<?xml version="1.0" encoding="utf-8"?>
<svg version="1.1"
	 xmlns="http://www.w3.org/2000/svg" xmlns:xlink="http://www.w3.org/1999/xlink" x="0px" y="0px" width="141.7px" height="60.2px"
	 viewBox="0 0 141.7 60.2" style="enable-background:new 0 0 141.7 60.2;" xml:space="preserve">
<style type="text/css">
	.st0{fill:#FFFFFF;}
	.st1{fill:#DFE0E1;}
	.st2{fill:#1D1D1B;}
	.st3{fill:#E20D17;}
	.st4{fill:#EA610A;}
	.st5{fill:#F59E00;}
</style>
<g>
	<g>
		<path class="st0" d="M2.8,59.7c-1.3,0-2.3-1-2.3-2.3V2.8c0-1.3,1-2.3,2.3-2.3h136.1c1.3,0,2.3,1,2.3,2.3v54.6c0,1.3-1,2.3-2.3,2.3
			H2.8z"/>
		<path class="st1" d="M138.9,1c1,0,1.8,0.8,1.8,1.8v54.6c0,1-0.8,1.8-1.8,1.8H2.8c-1,0-1.8-0.8-1.8-1.8V2.8C1,1.8,1.8,1,2.8,1
			H138.9 M138.9,0H2.8C1.2,0,0,1.3,0,2.8v54.6c0,1.6,1.3,2.8,2.8,2.8h136.1c1.6,0,2.8-1.3,2.8-2.8V2.8C141.7,1.2,140.4,0,138.9,0
			L138.9,0z"/>
	</g>
	<g>
		<g>
			<path class="st2" d="M50.6,49.1c-0.2-0.2-0.4-0.3-0.6-0.4c-0.2-0.1-0.5-0.1-0.8-0.1c-0.2,0-0.3,0-0.5,0c-0.2,0-0.3,0.1-0.5,0.1
				c-0.2,0.1-0.3,0.2-0.4,0.3c-0.1,0.1-0.3,0.3-0.4,0.4c-0.2-0.3-0.4-0.5-0.7-0.7c-0.3-0.2-0.6-0.2-1-0.2c-0.1,0-0.3,0-0.4,0
				c-0.1,0-0.3,0.1-0.4,0.1c-0.1,0.1-0.3,0.1-0.4,0.2c-0.1,0.1-0.2,0.2-0.3,0.4v-0.6h-1v5h1.1v-2.8c0-0.2,0-0.4,0.1-0.6
				c0.1-0.2,0.2-0.3,0.3-0.4c0.1-0.1,0.2-0.2,0.4-0.3c0.2-0.1,0.3-0.1,0.5-0.1c0.4,0,0.6,0.1,0.8,0.3c0.2,0.2,0.3,0.5,0.3,1v2.8h1.1
				v-2.8c0-0.2,0-0.4,0.1-0.6c0.1-0.2,0.2-0.3,0.3-0.4c0.1-0.1,0.2-0.2,0.4-0.3c0.2-0.1,0.3-0.1,0.5-0.1c0.4,0,0.6,0.1,0.8,0.3
				c0.2,0.2,0.3,0.5,0.3,1v2.8h1.1v-3.1c0-0.3,0-0.6-0.1-0.8C50.9,49.5,50.8,49.3,50.6,49.1z"/>
			<path class="st2" d="M56.2,49.3c-0.2-0.2-0.4-0.4-0.6-0.5c-0.3-0.1-0.6-0.2-0.9-0.2c-0.4,0-0.7,0.1-1,0.2
				c-0.3,0.1-0.6,0.3-0.8,0.5c-0.2,0.2-0.4,0.5-0.5,0.8c-0.1,0.3-0.2,0.7-0.2,1.1c0,0.4,0.1,0.7,0.2,1.1c0.1,0.3,0.3,0.6,0.5,0.8
				c0.2,0.2,0.5,0.4,0.8,0.5c0.3,0.1,0.6,0.2,1,0.2c0.4,0,0.7-0.1,0.9-0.2c0.3-0.1,0.5-0.3,0.6-0.5v0.6h1.1v-5h-1.1V49.3z
				 M56.2,51.8c-0.1,0.2-0.2,0.4-0.3,0.5c-0.1,0.1-0.3,0.3-0.5,0.3c-0.2,0.1-0.4,0.1-0.6,0.1c-0.2,0-0.4,0-0.6-0.1
				c-0.2-0.1-0.3-0.2-0.5-0.3c-0.1-0.1-0.2-0.3-0.3-0.5c-0.1-0.2-0.1-0.4-0.1-0.6c0-0.2,0-0.4,0.1-0.6c0.1-0.2,0.2-0.4,0.3-0.5
				c0.1-0.1,0.3-0.3,0.5-0.3c0.2-0.1,0.4-0.1,0.6-0.1c0.2,0,0.4,0,0.6,0.1c0.2,0.1,0.3,0.2,0.5,0.3c0.1,0.1,0.2,0.3,0.3,0.5
				c0.1,0.2,0.1,0.4,0.1,0.6S56.2,51.7,56.2,51.8z"/>
			<path class="st2" d="M62.3,51.2C62,51,61.6,50.8,61,50.7l-0.5-0.1c-0.1,0-0.2,0-0.3-0.1c-0.1,0-0.2-0.1-0.3-0.1
				c-0.1,0-0.1-0.1-0.2-0.1c0-0.1-0.1-0.1-0.1-0.2c0-0.2,0.1-0.3,0.2-0.4c0.2-0.1,0.4-0.2,0.7-0.2c0.2,0,0.3,0,0.5,0
				c0.2,0,0.3,0.1,0.4,0.1c0.1,0,0.3,0.1,0.4,0.1c0.1,0.1,0.2,0.1,0.3,0.1l0.5-0.8c-0.3-0.2-0.6-0.3-0.9-0.4
				c-0.3-0.1-0.7-0.1-1.1-0.1c-0.3,0-0.6,0-0.9,0.1c-0.3,0.1-0.5,0.2-0.6,0.3c-0.2,0.1-0.3,0.3-0.4,0.5c-0.1,0.2-0.1,0.4-0.1,0.7
				c0,0.4,0.1,0.7,0.4,1c0.3,0.2,0.7,0.4,1.3,0.5l0.5,0.1c0.3,0,0.5,0.1,0.7,0.2c0.1,0.1,0.2,0.2,0.2,0.4c0,0.2-0.1,0.3-0.3,0.4
				c-0.2,0.1-0.5,0.2-0.8,0.2c-0.2,0-0.4,0-0.6,0c-0.2,0-0.3-0.1-0.4-0.1c-0.1,0-0.3-0.1-0.4-0.2c-0.1-0.1-0.2-0.1-0.3-0.2l-0.5,0.8
				c0.2,0.1,0.4,0.2,0.6,0.3c0.2,0.1,0.4,0.1,0.6,0.2c0.2,0,0.4,0.1,0.5,0.1c0.2,0,0.3,0,0.4,0c0.4,0,0.7,0,1-0.1
				c0.3-0.1,0.5-0.2,0.7-0.3c0.2-0.1,0.3-0.3,0.4-0.5c0.1-0.2,0.2-0.4,0.2-0.7C62.8,51.8,62.6,51.4,62.3,51.2z"/>
			<path class="st2" d="M72.5,49.3c-0.2-0.2-0.5-0.4-0.7-0.5c-0.3-0.1-0.6-0.2-1-0.2c-0.4,0-0.7,0.1-1,0.2c-0.3,0.1-0.6,0.3-0.8,0.5
				c-0.2,0.2-0.4,0.5-0.5,0.8c-0.1,0.3-0.2,0.7-0.2,1.1c0,0.4,0.1,0.8,0.2,1.1c0.1,0.3,0.3,0.6,0.5,0.8c0.2,0.2,0.5,0.4,0.8,0.5
				c0.3,0.1,0.7,0.2,1,0.2c0.4,0,0.7-0.1,1.1-0.2c0.3-0.1,0.7-0.3,1-0.5l-0.5-0.8c-0.2,0.2-0.4,0.3-0.7,0.4
				c-0.3,0.1-0.5,0.1-0.8,0.1c-0.2,0-0.3,0-0.5-0.1c-0.2,0-0.3-0.1-0.4-0.2c-0.1-0.1-0.2-0.2-0.3-0.4c-0.1-0.2-0.2-0.4-0.2-0.6h3.7
				c0-0.1,0-0.1,0-0.2c0-0.1,0-0.1,0-0.2c0-0.4-0.1-0.7-0.2-1.1C72.9,49.8,72.7,49.5,72.5,49.3z M69.4,50.8c0-0.2,0.1-0.3,0.1-0.5
				c0.1-0.2,0.2-0.3,0.3-0.4c0.1-0.1,0.2-0.2,0.4-0.3c0.2-0.1,0.3-0.1,0.5-0.1c0.3,0,0.6,0.1,0.8,0.3c0.2,0.2,0.4,0.5,0.4,0.9H69.4z
				"/>
			<path class="st2" d="M87,49.3c-0.2-0.2-0.4-0.4-0.6-0.5c-0.3-0.1-0.6-0.2-0.9-0.2c-0.4,0-0.7,0.1-1,0.2c-0.3,0.1-0.6,0.3-0.8,0.5
				c-0.2,0.2-0.4,0.5-0.5,0.8c-0.1,0.3-0.2,0.7-0.2,1.1c0,0.4,0.1,0.7,0.2,1.1c0.1,0.3,0.3,0.6,0.5,0.8c0.2,0.2,0.5,0.4,0.8,0.5
				c0.3,0.1,0.6,0.2,1,0.2c0.4,0,0.7-0.1,0.9-0.2c0.3-0.1,0.5-0.3,0.6-0.5v0.6h1.1v-5H87V49.3z M86.9,51.8c-0.1,0.2-0.2,0.4-0.3,0.5
				c-0.1,0.1-0.3,0.3-0.5,0.3c-0.2,0.1-0.4,0.1-0.6,0.1c-0.2,0-0.4,0-0.6-0.1c-0.2-0.1-0.3-0.2-0.5-0.3c-0.1-0.1-0.2-0.3-0.3-0.5
				c-0.1-0.2-0.1-0.4-0.1-0.6c0-0.2,0-0.4,0.1-0.6c0.1-0.2,0.2-0.4,0.3-0.5c0.1-0.1,0.3-0.3,0.5-0.3c0.2-0.1,0.4-0.1,0.6-0.1
				c0.2,0,0.4,0,0.6,0.1c0.2,0.1,0.3,0.2,0.5,0.3c0.1,0.1,0.2,0.3,0.3,0.5C87,50.8,87,51,87,51.2S87,51.7,86.9,51.8z"/>
			<path class="st2" d="M67,52.7c-0.2,0.1-0.3,0.1-0.5,0.1c-0.1,0-0.2,0-0.3-0.1c-0.1,0-0.2-0.1-0.3-0.2c-0.1-0.1-0.1-0.2-0.2-0.3
				s-0.1-0.3-0.1-0.4v-2.2h1.8v-1h-1.8v-1.5h-1.1v1.5h-1v1h1v2.2c0,0.7,0.2,1.2,0.5,1.5c0.3,0.3,0.8,0.5,1.3,0.5
				c0.3,0,0.6,0,0.9-0.1c0.2-0.1,0.3-0.1,0.5-0.2l-0.4-0.9C67.2,52.6,67.1,52.7,67,52.7z"/>
			<path class="st2" d="M76.8,48.6c-0.3,0-0.6,0.1-0.8,0.2c-0.2,0.1-0.5,0.4-0.6,0.6v-0.7h-1v5h1V51c0-0.2,0-0.4,0.1-0.6
				c0.1-0.2,0.1-0.3,0.2-0.4c0.1-0.1,0.2-0.2,0.4-0.3c0.1-0.1,0.3-0.1,0.5-0.1c0.1,0,0.3,0,0.4,0c0.1,0,0.2,0,0.2,0.1l0.3-1
				c-0.1,0-0.2-0.1-0.3-0.1C77.1,48.6,77,48.6,76.8,48.6z"/>
			<path class="st2" d="M92,48.6c-0.3,0-0.6,0.1-0.8,0.2c-0.2,0.1-0.5,0.4-0.6,0.6v-0.7h-1v5h1V51c0-0.2,0-0.4,0.1-0.6
				c0.1-0.2,0.1-0.3,0.2-0.4c0.1-0.1,0.2-0.2,0.4-0.3c0.1-0.1,0.3-0.1,0.5-0.1c0.1,0,0.3,0,0.4,0c0.1,0,0.2,0,0.2,0.1l0.3-1
				c-0.1,0-0.2-0.1-0.3-0.1C92.3,48.6,92.1,48.6,92,48.6z"/>
			<path class="st2" d="M97,46.7v2.6c-0.2-0.2-0.4-0.4-0.6-0.5c-0.3-0.1-0.6-0.2-0.9-0.2c-0.4,0-0.7,0.1-1,0.2
				c-0.3,0.1-0.6,0.3-0.8,0.5c-0.2,0.2-0.4,0.5-0.5,0.8C93,50.5,93,50.8,93,51.2c0,0.4,0.1,0.7,0.2,1.1c0.1,0.3,0.3,0.6,0.5,0.8
				c0.2,0.2,0.5,0.4,0.8,0.5c0.3,0.1,0.6,0.2,1,0.2c0.4,0,0.7-0.1,0.9-0.2c0.3-0.1,0.5-0.3,0.6-0.5v0.6h1.1v-7H97z M97,51.8
				c-0.1,0.2-0.2,0.4-0.3,0.5c-0.1,0.1-0.3,0.3-0.5,0.3c-0.2,0.1-0.4,0.1-0.6,0.1c-0.2,0-0.4,0-0.6-0.1c-0.2-0.1-0.3-0.2-0.5-0.3
				c-0.1-0.1-0.2-0.3-0.3-0.5c-0.1-0.2-0.1-0.4-0.1-0.6c0-0.2,0-0.4,0.1-0.6c0.1-0.2,0.2-0.4,0.3-0.5c0.1-0.1,0.3-0.3,0.5-0.3
				c0.2-0.1,0.4-0.1,0.6-0.1c0.2,0,0.4,0,0.6,0.1c0.2,0.1,0.3,0.2,0.5,0.3c0.1,0.1,0.2,0.3,0.3,0.5c0.1,0.2,0.1,0.4,0.1,0.6
				S97.1,51.7,97,51.8z"/>
			<path class="st2" d="M79.4,50.1c0.1-0.1,0.3-0.3,0.5-0.3c0.2-0.1,0.4-0.1,0.6-0.1v0c0.2,0,0.5,0,0.7,0.1c0.2,0.1,0.4,0.2,0.5,0.3
				l0.5-0.9c-0.2-0.2-0.4-0.3-0.7-0.4c-0.3-0.1-0.7-0.2-1.1-0.2c-0.4,0-0.7,0.1-1.1,0.2c-0.3,0.1-0.6,0.3-0.8,0.6
				c-0.2,0.2-0.4,0.5-0.6,0.8c-0.1,0.3-0.2,0.7-0.2,1c0,0.4,0.1,0.7,0.2,1c0.1,0.3,0.3,0.6,0.6,0.8c0.2,0.2,0.5,0.4,0.8,0.6
				s0.7,0.2,1.1,0.2c0.4,0,0.7-0.1,1.1-0.2c0.2-0.1,0.5-0.2,0.7-0.4l-0.5-0.9c-0.1,0.1-0.3,0.2-0.5,0.3c-0.2,0.1-0.4,0.1-0.7,0.1v0
				c-0.2,0-0.4,0-0.6-0.1c-0.2-0.1-0.4-0.2-0.5-0.3c-0.1-0.1-0.2-0.3-0.3-0.5C79,51.7,79,51.4,79,51.2c0-0.2,0-0.5,0.1-0.6
				C79.2,50.4,79.3,50.2,79.4,50.1z"/>
		</g>
		<g>
			<path class="st2" d="M100.4,53c0.1,0,0.1,0,0.2,0c0.1,0,0.1,0.1,0.2,0.1c0,0,0.1,0.1,0.1,0.2c0,0.1,0,0.1,0,0.2
				c0,0.1,0,0.1,0,0.2c0,0.1-0.1,0.1-0.1,0.2c0,0-0.1,0.1-0.2,0.1c-0.1,0-0.1,0-0.2,0c-0.1,0-0.1,0-0.2,0c-0.1,0-0.1-0.1-0.2-0.1
				c0,0-0.1-0.1-0.1-0.2c0-0.1,0-0.1,0-0.2c0-0.1,0-0.1,0-0.2c0-0.1,0.1-0.1,0.1-0.2c0,0,0.1-0.1,0.2-0.1
				C100.3,53,100.4,53,100.4,53z M100.4,53.9c0.1,0,0.1,0,0.1,0c0,0,0.1,0,0.1-0.1c0,0,0.1-0.1,0.1-0.1c0,0,0-0.1,0-0.1
				c0-0.1,0-0.1,0-0.1c0,0,0-0.1-0.1-0.1c0,0-0.1-0.1-0.1-0.1c0,0-0.1,0-0.1,0c-0.1,0-0.1,0-0.1,0c0,0-0.1,0-0.1,0.1
				c0,0-0.1,0.1-0.1,0.1c0,0,0,0.1,0,0.1c0,0.1,0,0.1,0,0.1c0,0,0,0.1,0.1,0.1c0,0,0.1,0.1,0.1,0.1
				C100.3,53.8,100.4,53.9,100.4,53.9z M100.5,53.3c0.1,0,0.1,0,0.1,0c0,0,0,0.1,0,0.1c0,0,0,0.1,0,0.1c0,0-0.1,0-0.1,0l0.1,0.2
				h-0.2l-0.1-0.2h0v0.2h-0.1v-0.5H100.5z M100.4,53.4L100.4,53.4L100.4,53.4c0.1,0.1,0.1,0.1,0.1,0.1c0,0,0,0,0,0c0,0,0,0,0,0
				C100.5,53.4,100.5,53.4,100.4,53.4L100.4,53.4z"/>
		</g>
		<g>
			<path class="st3" d="M63.5,25.4c0-6,2.8-11.3,7.1-14.8C67.4,8.1,63.4,6.5,59,6.5c-10.4,0-18.8,8.4-18.8,18.8S48.6,44.2,59,44.2
				c4.4,0,8.5-1.5,11.7-4.1C66.3,36.7,63.5,31.4,63.5,25.4z"/>
			<ellipse class="st4" cx="70.6" cy="25.4" rx="7.1" ry="14.8"/>
			<path class="st5" d="M99.9,35.5V35h-0.2v-0.2h0.6V35H100v0.6H99.9z M101,35.5v-0.5l-0.2,0.4h-0.2l-0.2-0.4v0.5h-0.2v-0.7h0.2
				l0.2,0.5l0.2-0.5h0.2v0.7H101z"/>
			<path class="st5" d="M82.3,6.5c-4.4,0-8.5,1.5-11.7,4.1c4.4,3.4,7.1,8.8,7.1,14.8S75,36.7,70.6,40.1c3.2,2.5,7.3,4.1,11.7,4.1
				c10.4,0,18.8-8.4,18.8-18.8S92.7,6.5,82.3,6.5z"/>
		</g>
	</g>
</g>
</svg>
