<?xml version="1.0" encoding="utf-8"?>
<svg version="1.1" xmlns="http://www.w3.org/2000/svg" xmlns:xlink="http://www.w3.org/1999/xlink" x="0px" y="0px" width="141.7px" height="60.2px"
	 viewBox="0 0 141.7 60.2" style="enable-background:new 0 0 141.7 60.2;" xml:space="preserve">
<style type="text/css">
	.st0{fill:#289ECE;}
	.st1{fill:#DFE0E1;}
	.st2{opacity:0.949;fill:#FFFFFF;enable-background:new    ;}
</style>
<g>
	<g>
		<path class="st0" d="M2.8,59.7c-1.3,0-2.3-1-2.3-2.3V2.8c0-1.3,1-2.3,2.3-2.3h136.1c1.3,0,2.3,1,2.3,2.3v54.6c0,1.3-1,2.3-2.3,2.3
			H2.8z"/>
		<path class="st1" d="M138.9,1c1,0,1.8,0.8,1.8,1.8v54.6c0,1-0.8,1.8-1.8,1.8H2.8c-1,0-1.8-0.8-1.8-1.8V2.8C1,1.8,1.8,1,2.8,1
			H138.9 M138.9,0H2.8C1.2,0,0,1.3,0,2.8v54.6c0,1.6,1.3,2.8,2.8,2.8h136.1c1.6,0,2.8-1.3,2.8-2.8V2.8C141.7,1.2,140.4,0,138.9,0
			L138.9,0z"/>
	</g>
	<path class="st2" d="M136.4,42.2l-2.1-0.1c-0.7,0-1.1,0-1.5-0.2c-0.5-0.2-0.9-0.6-0.9-1.2c0-0.5,0.2-0.7,0.6-1
		c0.4-0.3,0.9-0.3,1.6-0.3h6.8v4.4c-0.1-0.1-0.2-0.3-0.4-0.4C139.6,42.4,138.5,42.2,136.4,42.2z M127.7,40.6c0,5.3,4.6,5,8.3,5.2
		c0.7,0,1.1,0.1,1.4,0.4c0.3,0.2,0.5,0.6,0.5,1.1s-0.2,0.6-0.5,0.8c-0.3,0.3-0.8,0.4-1.6,0.4h-8.1v4.2h8.2c2.5,0,4-1,5-2.5v4.3
		c-1.6,0.8-3.7,1.1-5.8,1.1h-10.3v-1.5c-1.2,1-3.3,1.5-5.4,1.5H88v-5.4c0-0.7-0.1-0.7-0.7-0.7h-0.5v6.1H76.6v-6.4
		c-1.8,0.8-4.1,1-5.8,1h-1.3v5.5H56.7l-3.2-3.6l-3.4,3.6H29.9V32.3h20.6l3,3.6l3.3-3.6H71c1.6,0,4.3,0.2,5.5,1.4v-1.4h12.7
		c1.2,0,3.8,0.2,5.3,1.4v-1.4h18.4v1.4c1-0.9,3-1.4,4.7-1.4h10.8v1.4c1.1-0.8,2.7-1.4,4.9-1.4h7.3v2.9h-7.4
		C129.2,35.2,127.7,38.2,127.7,40.6z M71.4,35.2H58.6l-5,5.9l-4.8-5.9H32.9v17.4h15.6l5-5.8l4.9,5.8h7.9v-5.9h4.8
		c3.4,0,6.9-1,6.9-5.6C78,36.5,74.5,35.2,71.4,35.2z M93.5,36c-1.3-0.7-2.7-0.8-4.7-0.8h-9.1v17.5h4.1v-6.6h4c1.4,0,2.3,0.1,2.9,0.7
		c0.7,0.8,0.6,2.4,0.6,3.4v2.5h4V49c0-1.5-0.1-2.2-0.7-3.1c-0.3-0.5-1.1-1.1-1.9-1.4c1-0.4,2.8-1.8,2.8-4.4
		C95.5,38.2,94.8,36.7,93.5,36z M110.2,48.5h-8.9v-3.1h8.6v-2.9h-8.6v-3.2h8.9v-4.1H97.1v17.4h13.1V48.5z M126.1,35.2h-8.8
		c-4.1,0-5.6,3-5.6,5.4c0,5.3,4.6,5,8.3,5.2c0.7,0,1.1,0.1,1.4,0.4c0.3,0.2,0.5,0.6,0.5,1.1s-0.2,0.6-0.5,0.9
		c-0.3,0.3-0.9,0.4-1.6,0.4h-8.1v4.1h8.1c4,0,6.2-2,6.2-5.6c0-1.7-0.4-2.7-1.2-3.5c-0.9-0.9-2.4-1.3-4.5-1.3l-2.1-0.1
		c-0.7,0-1.1,0-1.5-0.2c-0.5-0.2-0.9-0.5-0.9-1.2c0-0.5,0.2-0.7,0.6-1c0.4-0.3,0.9-0.4,1.6-0.4h8.1V35.2z M88.4,42.6h-4.6v-3.7h4.7
		c0.7,0,1.4,0,1.9,0.3s0.8,0.6,0.8,1.3s-0.3,1.4-0.8,1.7C89.8,42.6,89.2,42.6,88.4,42.6z M71.3,43.3h-5V39h5c1.4,0,2.4,0.6,2.4,2
		C73.8,42.6,72.8,43.3,71.3,43.3z M62.1,37.4v13.4l-6-6.8L62.1,37.4z M37.2,48.5v-3.1h8.6v-2.9h-8.6v-3.2h9.5l4.3,4.6l-4.5,4.5h-9.3
		V48.5z M118.8,24.4v3.5h-13.9l-1.5-3.7H100l-1.5,3.7h-7.2c-2.8,0-5-0.7-6.3-1.4v1.4H69.3v-5.3c0-0.7-0.1-0.8-0.6-0.8h-0.6v6.1H37.4
		V25l-1.2,2.9h-6.9L28.1,25v2.8H14.8l-1.5-3.7H9.9l-1.5,3.7H0.9v-1.5V16.2L6.5,4.5h10.3l1.3,2.8V4.5h12.1l2.6,6l2.6-6h36.1
		c1.7,0,3.3,0.3,4.5,1.4V4.5h9.1v1.4c1.8-1,4.1-1.4,6.6-1.4h15.1l1.4,2.8V4.5h11.3l1.5,2.8V4.5h11v23.3h-11.1L118.8,24.4z M44.5,7.5
		h-6.8l-4.8,11.7L27.8,7.5h-6.5v16.2L14.6,7.5H8.7L1.6,24.9h4.3l1.5-4.3h8.2l1.5,4.3h8.3V11.5l5.5,13.4h3.5l5.7-13.4v13.4h4.2V7.5
		H44.5z M59,20.7h-8.7v-3h8.5v-2.9h-8.4v-3.1h8.7V7.5h-13v17.4h13L59,20.7L59,20.7z M76.5,21.3c0-1.5-0.3-2.2-0.8-3.1
		c-0.4-0.5-1.1-1.1-2-1.4c1-0.4,2.8-1.8,2.8-4.5c0-1.9-0.7-3-2-3.7s-2.8-1.2-4.8-1.2h-9.1v17.3h4.3v-6.4h3.9c1.4,0,2.3,0.2,2.9,0.8
		c0.7,0.8,0.6,2.3,0.6,3.3v2.3h4.2V21.3z M82.5,7.6h-4.3v17.3h4.3V7.6z M129.1,24.8V7.5h-4.3v12l-7.3-12h-5.8v16.2l-6.9-16.2h-6
		L93.2,21h-1.4c-1,0-2.1-0.2-2.8-0.9c-0.7-0.8-1.1-2.1-1.1-3.9s0.5-3.1,1.1-3.8c0.8-0.8,1.6-1,3-1h3.4v-4h-3.5c-2.7,0-4.7,0.8-6,2.1
		c-1.7,1.8-2.1,4.2-2.1,6.7c0,3,0.7,5,2.1,6.4s3.8,2.1,5.7,2.1h4.3l1.5-4.3h8.2l1.5,4.3h8.6V12.4l6.9,12.5h6.5V24.8z M101.7,10.7
		l2.7,6.9h-5.5L101.7,10.7z M69.4,14.8h-4.5v-3.7h4.5c0.7,0,1.4,0,1.9,0.3c0.5,0.2,0.8,0.8,0.8,1.5s-0.3,1.3-0.8,1.6
		S70.2,14.8,69.4,14.8z M11.6,10.7l2.7,6.9H8.9L11.6,10.7z"/>
</g>
</svg>
