<?xml version="1.0" encoding="utf-8"?>
<!-- Generator: Adobe Illustrator 24.0.1, SVG Export Plug-In . SVG Version: 6.00 Build 0)  -->
<svg version="1.1" id="Ebene_1" xmlns="http://www.w3.org/2000/svg" xmlns:xlink="http://www.w3.org/1999/xlink" x="0px" y="0px"
	 viewBox="0 0 142 60" style="enable-background:new 0 0 142 60;" xml:space="preserve">
<style type="text/css">
	.st0{fill:#E5EDCE;}
	.st1{fill:#232950;}
	.st2{fill:#A9C85B;}
	.st3{fill:#BAD379;}
	.st4{fill:#CADC97;}
	.st5{fill:#232850;}
	.st6{fill:#A8C85B;}
	.st7{fill:#F9BE0B;}
	.st8{fill:#FEFEFE;}
	.st9{fill:#FBFBFD;}
	.st10{fill:#FAFAFC;}
	.st11{fill:#F9F8FA;}
	.st12{fill:#FAF9FB;}
	.st13{fill:#F6F5F8;}
	.st14{fill:#FFFFFF;}
	.st15{fill:#FBFBFC;}
	.st16{fill:#F7F7F9;}
	.st17{fill:#F8F7FA;}
	.st18{fill:#F9FAFC;}
	.st19{fill:#F3F2F6;}
	.st20{fill:#C19B30;}
	.st21{fill:#796646;}
	.st22{fill:#242950;}
	.st23{fill:#272C51;}
	.st24{fill:#262C51;}
	.st25{fill:#272A52;}
	.st26{fill:#2D2C54;}
	.st27{fill:#2A2C54;}
	.st28{fill:#2E2F57;}
</style>
<g>
	<path class="st0" d="M11.15,0.09c0,0.14-0.01,0.27-0.01,0.41c0,22.79,0,42.21,0,59.03c0,0.14,0.01,0.27,0.01,0.41
		c0,0.02,0,0.05,0,0.07c-0.04-0.03-0.14,0.07-0.14-0.07c0-0.08,0-0.16,0-0.24c0-17.03,0-36.67,0-59.67c0.05,0,0.09,0,0.14,0
		C11.15,0.04,11.15,0.06,11.15,0.09z"/>
	<rect x="0.01" y="0.09" class="st1" width="141.99" height="59.84"/>
	<path class="st2" d="M142,0.09c0,19.95,0,39.89,0,59.84c-47.13,0-94.26,0-141.39,0c-0.2,0-0.4,0-0.6,0c0-0.14-0.01-0.27-0.01-0.41
		C0,39.84,0,20.17,0,0.49c0-0.14,0.01-0.27,0.01-0.41c0.16,0,0.32,0,0.48,0C47.66,0.09,94.83,0.09,142,0.09z M140.39,1.44
		c-0.13-0.01-0.22-0.02-0.31-0.02C93.95,1.42,47.82,1.43,1.7,1.43c-0.01,0-0.02,0.01-0.03,0.02C1.65,1.46,1.65,1.47,1.61,1.5
		c0,18.9,0,37.83,0,56.76c0,0.08,0.01,0.16,0.02,0.24c0,0.01,0.01,0.02,0.02,0.03c0.01,0.01,0.02,0.02,0.02,0.02
		c46.24,0,92.46,0,138.71,0C140.39,39.5,140.39,20.49,140.39,1.44z"/>
	<path class="st3" d="M11.15,0.09c0-0.02,0-0.05,0-0.07c42.32,0,77.27,0,119.59,0c0.1,0,0.23-0.08,0.31,0.06
		c-42.29,0-77.2,0-119.49,0C11.42,0.09,11.29,0.09,11.15,0.09z"/>
	<path class="st4" d="M11.15,59.99c0-0.02,0-0.05,0-0.07c0.17,0,0.34,0,0.51,0c39.8,0,79.59,0,119.39,0
		c-0.01,0.02-0.02,0.06-0.03,0.06c-0.09,0.01-0.18,0-0.27,0C90.88,59.99,51.01,59.99,11.15,59.99z"/>
	<path class="st5" d="M129.68,4.44c0,19.05,0,35.07,0,54.11c-39.05,0-78.08,0-117.12,0c0,0-0.01-0.01-0.02-0.02
		c-0.01-0.01-0.02-0.02-0.02-0.03c-0.01-0.08-0.02-0.16-0.02-0.24c0-19.06,0-34.73,0-53.76c0.03-0.03,0.03-0.04,0.04-0.05
		c0.01-0.01,0.02-0.02,0.03-0.02c38.95-0.01,77.9-0.01,116.84-0.02C129.5,4.42,129.57,4.43,129.68,4.44z M62.65,17.36
		c-0.24,0.1-0.49,0.2-0.73,0.29c-2.57,0.99-4.87,2.4-6.78,4.4c-1.13,1.18-2.04,2.52-2.54,4.1c-0.57,1.84-0.43,3.59,0.69,5.22
		c0.63,0.91,1.41,1.67,2.31,2.32c1.81,1.3,3.84,2.09,5.99,2.59c2.98,0.7,5.99,0.8,9.03,0.48c3.18-0.33,6.15-1.29,8.9-2.93
		c1.81-1.08,3.43-2.37,4.63-4.13c0.02-0.03,0.06-0.04,0.15-0.09c-0.24,1.24-0.47,2.44-0.69,3.64c-0.22,1.2-0.5,2.4-0.67,3.63
		c1.96,0,3.85,0,5.77,0c1.05-5.47,2.09-10.91,3.14-16.39c-6.88,0-13.7,0-20.57,0c-0.37,1.8-0.74,3.6-1.12,5.45c2.6,0,5.12,0,7.65,0
		c0,0.07,0.01,0.1,0,0.12c-0.06,0.09-0.11,0.18-0.18,0.27c-0.96,1.34-2.08,2.53-3.43,3.49c-4.33,3.09-9.1,3.84-14.23,2.6
		c-1.36-0.33-2.64-0.88-3.75-1.74c-1.59-1.24-2.26-2.85-1.92-4.85c0.2-1.17,0.73-2.19,1.42-3.13c0.98-1.34,2.2-2.43,3.58-3.32
		c0.9-0.59,1.86-1.09,2.8-1.63c0.22-0.09,0.43-0.18,0.65-0.28c0.22-0.09,0.44-0.19,0.65-0.28c-0.01-0.03-0.03-0.06-0.04-0.09
		C63.13,17.17,62.89,17.26,62.65,17.36z M125.52,8.13c-0.01-0.02-0.03-0.03-0.05-0.04c0-0.14,0-0.28,0-0.42c-0.34,0-0.64,0-0.95,0
		c0,1.34,0,2.65,0,3.99c0.34,0,0.65,0,0.99,0c0.01-0.13,0.02-0.24,0.02-0.35c0-0.47-0.01-0.93,0-1.4c0.01-0.22,0.03-0.44,0.08-0.65
		c0.08-0.31,0.24-0.57,0.53-0.73c0.41-0.23,0.75-0.06,0.83,0.4c0.02,0.13,0.02,0.26,0.02,0.39c0,0.69,0,1.37,0,2.06
		c0,0.1,0.02,0.19,0.03,0.28c0.35,0,0.66,0,1,0c0-0.46,0-0.88,0-1.31c0-0.54,0.01-1.09,0-1.63c-0.01-0.55-0.25-0.93-0.69-1.06
		c-0.56-0.16-1.1-0.11-1.57,0.3C125.67,8,125.59,8.07,125.52,8.13z M95.07,46.23c-0.03-0.03-0.07-0.06-0.1-0.09
		c0.02-0.27,0.03-0.54,0.05-0.87c-0.57,0.01-1.1-0.02-1.62,0.01c0,2.24,0,4.43,0,6.65c0.58,0,1.14,0.02,1.71-0.01
		c0-0.22,0-0.39,0-0.56c0-0.85-0.03-1.7,0.02-2.54c0.02-0.44,0.13-0.88,0.28-1.3c0.18-0.49,0.59-0.73,1.13-0.73
		c0.13,0,0.26,0,0.44,0c0-0.55,0-1.07,0-1.62c-0.56-0.1-1.05,0.08-1.45,0.47C95.35,45.82,95.22,46.03,95.07,46.23z M20.04,17.26
		c0.1,0.07,0.14,0.1,0.19,0.12c0.75,0.38,1.2,1.01,1.45,1.79c0.27,0.83,0.32,1.68,0.21,2.54c-0.11,0.86-0.25,1.72-0.17,2.59
		c0.02,0.28-0.05,0.44-0.29,0.6c-5.28,3.65-7.76,10.08-6.36,16.3c1.63,7.21,8.28,12.56,16.05,12.16c0.93-0.05,1.86-0.17,2.77-0.39
		c7.86-1.82,13.2-9.42,11.91-17.66c-0.59-3.74-2.34-6.86-5.18-9.36c-0.41-0.37-0.86-0.69-1.3-1.04c-0.17,0.14-0.3,0.25-0.48,0.4
		c0-0.26,0.01-0.44,0-0.62c-0.01-0.18-0.03-0.36-0.07-0.54c-0.34-1.73-1.24-3.12-2.62-4.19c-2.59-2.02-5.53-3.11-8.82-3.24
		c-2.01-0.08-4.02,0.03-6.01,0.32C20.91,17.1,20.5,17.18,20.04,17.26z M100.96,32.72c-0.55,0.16-1.5,0.18-2.07,0.05
		c-1.2-0.27-1.86-1.05-1.92-2.27c-0.05-1.05,0.12-2.06,0.55-3.02c0.76-1.68,2.03-2.74,3.87-3.02c1.03-0.16,2.07-0.06,3.08,0.2
		c0.7,0.17,1.38,0.41,2.06,0.61c0.26-0.86,0.82-3.9,0.78-4.25c-2-0.47-4.02-0.75-6.09-0.51c-2.17,0.25-4.1,1.06-5.66,2.59
		c-2.63,2.58-3.55,5.77-3,9.35c0.32,2.07,1.59,3.42,3.61,4.05c1.09,0.34,2.21,0.42,3.34,0.38c1.58-0.05,3.13-0.3,4.62-0.86
		c0.27-0.1,0.41-0.22,0.47-0.53c0.34-1.87,0.72-3.72,1.08-5.59c0.13-0.64,0.24-1.29,0.37-1.96c-1.41,0-2.78,0-4.19,0
		c-0.15,0.79-0.3,1.58-0.44,2.36C101.27,31.1,101.12,31.91,100.96,32.72z M126.17,20.63c-0.46-0.06-0.87-0.11-1.29-0.15
		c-1.22-0.11-2.44-0.13-3.64,0.14c-2.69,0.6-4.32,2.44-4.58,4.92c-0.17,1.7,0.34,3.1,1.77,4.12c0.35,0.25,0.73,0.47,1.08,0.72
		c0.29,0.2,0.58,0.41,0.84,0.65c0.31,0.3,0.4,0.68,0.28,1.11c-0.18,0.62-0.66,0.85-1.22,0.89c-0.6,0.04-1.2,0.02-1.8-0.05
		c-0.56-0.06-1.11-0.22-1.69-0.33c-0.25,1.33-0.51,2.66-0.76,4c0.17,0.04,0.3,0.08,0.44,0.1c1.06,0.15,2.12,0.24,3.19,0.2
		c1.21-0.05,2.36-0.32,3.41-0.92c2.15-1.25,3.27-3.08,3.07-5.62c-0.07-0.86-0.4-1.63-1.03-2.22c-0.47-0.44-1.01-0.81-1.52-1.2
		c-0.33-0.25-0.69-0.47-1.01-0.74c-0.26-0.21-0.43-0.48-0.45-0.83c-0.03-0.62,0.33-1.08,1.01-1.24c0.52-0.12,1.04-0.14,1.56-0.06
		c0.54,0.08,1.08,0.19,1.65,0.29C125.7,23.15,125.93,21.92,126.17,20.63z M109.1,20.44c-1.05,5.45-2.1,10.91-3.16,16.38
		c2.58,0,5.1,0,7.65,0c0.25-1.36,0.5-2.7,0.76-4.09c-1.18,0-2.28,0-3.44,0c0.8-4.12,1.6-8.2,2.4-12.3
		C111.88,20.44,110.51,20.44,109.1,20.44z M77.86,51.92c0-1.66,0.01-3.28-0.01-4.9c0-0.23-0.06-0.46-0.13-0.68
		c-0.19-0.59-0.58-0.96-1.19-1.11c-0.99-0.25-1.98,0.07-2.6,0.88c-0.06,0.08-0.13,0.17-0.2,0.26c-0.56-1.53-2.77-1.7-4.01-0.09
		c0-0.34,0-0.66,0-0.98c-0.54,0-1.06,0-1.57,0c0,2.23,0,4.42,0,6.62c0.57,0,1.11,0,1.68,0c0-0.2,0-0.38,0-0.57
		c0.01-0.99,0.01-1.98,0.04-2.96c0.02-0.52,0.23-0.99,0.6-1.37c0.21-0.22,0.46-0.37,0.76-0.41c0.46-0.07,0.79,0.16,0.87,0.62
		c0.04,0.21,0.04,0.43,0.04,0.65c0,1.22,0,2.44,0,3.66c0,0.13,0.02,0.26,0.02,0.38c0.58,0,1.11,0,1.67,0c0-0.2,0-0.37,0-0.53
		c0.01-0.96,0-1.91,0.02-2.87c0.01-0.56,0.21-1.05,0.6-1.47c0.22-0.23,0.48-0.39,0.8-0.43c0.45-0.06,0.76,0.16,0.84,0.6
		c0.04,0.23,0.05,0.46,0.05,0.69c0,1.2,0,2.41,0,3.61c0,0.14,0.01,0.27,0.02,0.42C76.74,51.92,77.28,51.92,77.86,51.92z
		 M55.22,42.93c-0.62,0-1.17,0-1.73,0c0,3,0,5.99,0,8.98c0.57,0,1.12,0,1.72,0c0-0.36,0-0.69,0-1.03c0-0.35,0-0.71,0-1.06
		c0-0.34-0.01-0.68,0-1.02c0.01-0.34-0.06-0.68,0.07-1.06c0.96,1.43,1.89,2.81,2.8,4.17c0.77,0,1.5,0,2.3,0
		c-1.16-1.58-2.3-3.11-3.43-4.64c1.1-1.45,2.18-2.86,3.31-4.35c-0.66,0-1.23,0.01-1.8-0.01c-0.26-0.01-0.42,0.08-0.57,0.29
		c-0.79,1.12-1.59,2.24-2.39,3.35c-0.07,0.09-0.14,0.18-0.2,0.27c-0.02-0.01-0.05-0.02-0.07-0.03
		C55.22,45.53,55.22,44.25,55.22,42.93z M88.15,51.92c0-0.54,0-1.04,0-1.53c0-0.51,0-1.01,0-1.5c0.52-0.04,1-0.04,1.46-0.11
		c1.86-0.29,2.99-1.71,2.69-3.74c-0.16-1.07-0.86-1.72-1.89-2c-1.32-0.36-2.66-0.16-4-0.14c0,3.04,0,6.02,0,9.01
		C87,51.92,87.55,51.92,88.15,51.92z M104.06,48.36c-0.01-0.17-0.02-0.4-0.05-0.63c-0.16-1.38-0.95-2.25-2.31-2.51
		c-0.28-0.05-0.58-0.06-0.87-0.06c-1.5,0.02-2.7,0.93-3.12,2.36c-0.26,0.9-0.23,1.8,0.04,2.69c0.19,0.63,0.56,1.12,1.14,1.46
		c0.92,0.54,2.87,0.69,4.06-0.45C103.75,50.46,104.06,49.5,104.06,48.36z M82.96,47.81c-0.45,0.04-0.88,0.07-1.31,0.13
		c-0.58,0.08-1.15,0.24-1.65,0.57c-0.59,0.39-0.87,0.94-0.88,1.64c-0.01,0.9,0.47,1.64,1.27,1.83c0.95,0.23,1.81,0.03,2.48-0.73
		c0.07-0.08,0.14-0.16,0.25-0.27c-0.02,0.36-0.03,0.64-0.04,0.92c0.58,0,1.1,0,1.59,0c0-1.51,0-2.99,0-4.47c0-0.08,0-0.15,0-0.23
		c-0.01-0.09-0.02-0.18-0.03-0.28c-0.1-0.9-0.6-1.46-1.49-1.67c-0.7-0.17-1.41-0.14-2.12-0.05c-0.52,0.07-1.03,0.16-1.55,0.4
		c0.09,0.42,0.18,0.84,0.27,1.28c0.2-0.06,0.36-0.11,0.52-0.16c0.56-0.18,1.13-0.3,1.73-0.26c0.59,0.04,0.9,0.34,0.95,0.93
		C82.97,47.53,82.96,47.67,82.96,47.81z M115.58,48.96c0.13-0.63,0.13-1.2,0.02-1.76c-0.15-0.75-0.51-1.36-1.2-1.72
		c-1.19-0.61-3.41-0.54-4.28,1.43c-0.5,1.12-0.49,2.28-0.09,3.43c0.3,0.85,0.93,1.36,1.8,1.58c0.31,0.08,0.64,0.12,0.96,0.13
		c0.9,0.04,1.78-0.09,2.66-0.42c-0.03-0.23-0.06-0.44-0.09-0.65c-0.03-0.21-0.06-0.41-0.09-0.62c-0.39,0.1-0.73,0.21-1.07,0.26
		c-0.36,0.06-0.74,0.09-1.1,0.08c-0.82-0.02-1.64-0.5-1.53-1.75C112.87,48.96,114.21,48.96,115.58,48.96z M126.5,50.55
		c-0.22,0.03-0.4,0.06-0.58,0.07c-0.7,0.04-0.94-0.17-0.95-0.86c-0.02-0.79-0.01-1.57-0.02-2.36c0-0.24,0-0.49,0-0.78
		c0.56,0,1.07,0,1.57,0c0-0.48,0-0.9,0-1.36c-0.54,0-1.04,0-1.58,0c0-0.83,0-1.62,0-2.47c-0.6,0.16-1.14,0.3-1.72,0.46
		c0,0.68,0,1.34,0,2.03c-0.39,0-0.74,0-1.1,0c0,0.46,0,0.88,0,1.36c0.38,0,0.74,0,1.12,0c0,1.14,0,2.22,0,3.3
		c0,0.29,0.02,0.59,0.07,0.88c0.09,0.58,0.37,1.02,0.98,1.16c0.78,0.18,1.55,0.11,2.34-0.1C126.58,51.42,126.54,50.99,126.5,50.55z
		 M107.4,45.27c0-0.86,0-1.65,0-2.49c-0.6,0.16-1.14,0.31-1.72,0.46c0,0.69,0,1.34,0,2.04c-0.39,0-0.74,0-1.09,0
		c0,0.46,0,0.89,0,1.35c0.38,0,0.72,0,1.11,0c0,0.19,0,0.34,0,0.49c0,0.94-0.01,1.88,0,2.82c0,0.31,0.03,0.62,0.08,0.92
		c0.08,0.48,0.31,0.89,0.8,1.05c0.83,0.27,1.66,0.16,2.5-0.04c-0.04-0.47-0.09-0.89-0.13-1.33c-0.22,0.03-0.38,0.06-0.55,0.07
		c-0.72,0.04-0.97-0.17-0.98-0.88c-0.02-0.99,0-1.98,0-2.96c0-0.04,0.03-0.08,0.06-0.16c0.5,0,1,0,1.52,0c0-0.46,0-0.89,0-1.34
		C108.48,45.27,107.98,45.27,107.4,45.27z M40.5,7.66c0,1.35,0,2.67,0,3.99c0.35,0,0.68,0,1.02,0c0-0.39,0-0.75,0-1.12
		c0-0.34-0.01-0.67,0.02-1.01c0.04-0.41,0.2-0.78,0.58-1c0.38-0.22,0.7-0.07,0.78,0.35c0.03,0.15,0.03,0.31,0.03,0.46
		c0,0.67,0,1.35,0,2.02c0,0.1,0.02,0.2,0.02,0.29c0.34,0,0.66,0,0.99,0c0-0.19,0-0.34,0-0.49c0-0.52-0.01-1.04,0.01-1.55
		c0.02-0.43,0.18-0.81,0.55-1.06c0.39-0.26,0.75-0.09,0.82,0.37c0.02,0.11,0.01,0.23,0.01,0.35c0,0.7,0,1.4,0,2.1
		c0,0.1,0.01,0.2,0.02,0.29c0.35,0,0.66,0,1,0c0-0.85,0-1.68,0-2.51c0-0.19,0.01-0.39-0.01-0.58c-0.05-0.5-0.34-0.88-0.77-0.96
		C45,7.49,44.45,7.58,44.04,8.07c-0.05,0.07-0.08,0.15-0.15,0.28c-0.27-0.63-0.67-0.8-1.2-0.79c-0.51,0.01-0.88,0.26-1.25,0.68
		c0-0.25,0-0.42,0-0.58C41.11,7.66,40.82,7.66,40.5,7.66z M16.73,8.91c0-0.85-0.1-1.36-0.32-1.81c-0.24-0.48-0.61-0.79-1.13-0.92
		c-1.06-0.25-2.02,0.2-2.43,1.23c-0.43,1.07-0.41,2.18-0.02,3.26c0.19,0.53,0.58,0.89,1.14,1.02c1.13,0.25,1.97-0.17,2.43-1.11
		C16.67,10.03,16.75,9.44,16.73,8.91z M21.53,8.55c0-0.3-0.06-0.88-0.31-1.42c-0.23-0.5-0.61-0.83-1.15-0.95
		c-1.03-0.24-1.95,0.16-2.38,1.13c-0.51,1.13-0.48,2.29-0.04,3.44c0.19,0.5,0.59,0.81,1.11,0.95c1.05,0.28,2.02-0.19,2.46-1.19
		C21.46,9.97,21.53,9.41,21.53,8.55z M121.46,45.4c-0.67-0.21-1.3-0.29-1.89-0.22c-1.15,0.13-2.07,0.64-2.56,1.72
		c-0.52,1.14-0.55,2.33-0.14,3.52c0.28,0.8,0.87,1.3,1.68,1.51c0.67,0.18,1.35,0.15,2.02,0.05c0.3-0.04,0.59-0.14,0.91-0.21
		c-0.08-0.5-0.15-0.95-0.23-1.42c-0.27,0.07-0.48,0.15-0.71,0.18c-0.23,0.04-0.46,0.05-0.69,0.04c-0.71-0.02-1.16-0.37-1.35-1.05
		c-0.16-0.59-0.16-1.19,0.02-1.78c0.24-0.79,0.73-1.14,1.55-1.1c0.36,0.02,0.72,0.11,1.11,0.18
		C121.29,46.35,121.38,45.89,121.46,45.4z M131.5,7.57c-0.28,0-0.5-0.01-0.72,0c-0.83,0.03-1.48,0.5-1.77,1.28
		c-0.22,0.59-0.22,1.19-0.08,1.8c0.12,0.51,0.4,0.91,0.93,1.05c0.57,0.14,1.11,0.06,1.53-0.4c0.04-0.05,0.1-0.08,0.18-0.15
		c0,0.2,0,0.35,0,0.5c0.32,0,0.62,0,0.92,0c0-1.98,0-3.93,0-5.9c-0.34,0-0.65,0-1,0C131.5,6.36,131.5,6.95,131.5,7.57z M95.69,9.86
		c0.03-0.01,0.05-0.01,0.08-0.02c0.07,0.11,0.14,0.21,0.21,0.32c0.27,0.44,0.54,0.88,0.83,1.32c0.05,0.08,0.14,0.18,0.22,0.19
		c0.38,0.02,0.76,0.01,1.21,0.01c-0.53-0.77-1.02-1.48-1.51-2.19c0.46-0.61,0.91-1.19,1.4-1.84c-0.35,0-0.63,0.02-0.91,0
		c-0.26-0.02-0.43,0.06-0.57,0.29c-0.27,0.43-0.58,0.84-0.87,1.26c-0.02-0.01-0.04-0.01-0.06-0.02c0-1.12,0-2.24,0-3.37
		c-0.37,0-0.7,0-1.03,0c-0.08,0.52-0.05,5.59,0.02,5.86c0.32,0,0.64,0,0.99,0C95.69,11.04,95.69,10.45,95.69,9.86z M63.03,51.91
		c0-3.26,0-6.48,0-9.71c-0.57,0-1.11,0-1.66,0c0,3.25,0,6.47,0,9.71C61.93,51.91,62.46,51.91,63.03,51.91z M87.23,9.81
		c0.19,0,0.33,0,0.48,0c0.42-0.01,0.82-0.09,1.19-0.31c0.67-0.4,1-1.2,0.84-2.02c-0.14-0.71-0.63-1.2-1.42-1.27
		c-0.69-0.06-1.39-0.01-2.09-0.01c0,1.83,0,3.64,0,5.46c0.34,0,0.66,0,1.01,0C87.23,11.04,87.23,10.45,87.23,9.81z M33,5.8
		c-0.38,0-0.7,0-1.02,0c0,1.96,0,3.9,0,5.86c0.34,0,0.65,0,1.02,0c0-0.62,0-1.23,0-1.84c0.12,0.08,0.18,0.16,0.23,0.25
		c0.29,0.46,0.57,0.93,0.87,1.38c0.06,0.09,0.16,0.21,0.24,0.22c0.38,0.02,0.76,0.01,1.2,0.01c-0.53-0.77-1.01-1.47-1.5-2.19
		c0.46-0.6,0.91-1.19,1.4-1.84c-0.19,0-0.31,0-0.42,0c-0.28,0.01-0.61-0.06-0.84,0.05c-0.22,0.11-0.34,0.41-0.49,0.63
		c-0.21,0.29-0.41,0.58-0.61,0.88C33.04,9.2,33.02,9.19,33,9.18C33,8.06,33,6.94,33,5.8z M52.75,7.67c-0.36,0-0.66,0-0.97,0
		c0,1.34,0,2.65,0,3.98c0.35,0,0.68,0,1.03,0c0-0.18,0-0.34,0-0.49c0-0.53-0.01-1.06,0.02-1.59c0.02-0.43,0.18-0.81,0.57-1.04
		c0.42-0.25,0.79-0.06,0.83,0.42c0.01,0.13,0.01,0.26,0.01,0.39c0,0.67,0,1.35,0,2.02c0,0.1,0.02,0.2,0.02,0.3c0.35,0,0.66,0,0.99,0
		c0.01-0.09,0.02-0.15,0.02-0.21c0-0.88,0-1.76,0-2.64c0-0.14-0.01-0.29-0.04-0.42c-0.09-0.38-0.31-0.67-0.7-0.76
		c-0.57-0.13-1.11-0.07-1.56,0.36c-0.06,0.06-0.12,0.12-0.23,0.23C52.75,7.98,52.75,7.84,52.75,7.67z M60.57,7.66
		c0,1.02,0,2.02,0,3.01c0,0.09,0.02,0.18,0.04,0.27c0.1,0.38,0.32,0.66,0.7,0.75c0.6,0.14,1.16,0.06,1.61-0.42
		c0.04-0.04,0.08-0.08,0.16-0.17c0.01,0.22,0.02,0.38,0.03,0.54c0.33,0,0.63,0,0.94,0c0-1.34,0-2.66,0-3.98c-0.35,0-0.68,0-1.03,0
		c0,0.36,0,0.7,0,1.03c0,0.36,0.01,0.73-0.02,1.09c-0.03,0.39-0.18,0.73-0.5,0.96c-0.44,0.31-0.86,0.1-0.9-0.43
		c-0.01-0.17-0.01-0.34-0.01-0.5c0-0.71,0-1.42,0-2.15C61.26,7.66,60.94,7.66,60.57,7.66z M122.42,11.65c0.35,0,0.66,0,0.97,0
		c0-0.87,0-1.73,0-2.58c0-0.13,0-0.26-0.02-0.39c-0.09-0.68-0.45-1.05-1.14-1.1c-0.37-0.03-0.75-0.03-1.12,0.01
		c-0.3,0.03-0.61,0.07-0.87,0.25c0.03,0.15,0.05,0.27,0.08,0.4c0.03,0.12,0.07,0.23,0.1,0.35c0.22-0.06,0.41-0.13,0.6-0.16
		c0.19-0.04,0.38-0.07,0.58-0.08c0.59-0.01,0.78,0.2,0.73,0.85c-0.13,0-0.28-0.02-0.41,0c-0.31,0.05-0.62,0.07-0.91,0.18
		c-0.25,0.09-0.5,0.24-0.68,0.42c-0.57,0.59-0.31,1.67,0.44,1.88c0.53,0.15,1.03,0.05,1.45-0.33c0.06-0.06,0.09-0.15,0.13-0.23
		c0.03,0.02,0.06,0.05,0.09,0.07C122.42,11.34,122.42,11.48,122.42,11.65z M93.52,11.66c0-1.02,0.02-2.01-0.01-3
		c-0.02-0.6-0.42-0.99-1.05-1.05c-0.42-0.04-0.85-0.02-1.28,0.01c-0.26,0.02-0.52,0.12-0.81,0.2c0.06,0.29,0.11,0.53,0.16,0.76
		c0.43-0.07,0.82-0.18,1.21-0.2c0.58-0.03,0.78,0.22,0.72,0.82c-0.16,0.01-0.33,0.01-0.5,0.03c-0.45,0.04-0.9,0.13-1.29,0.39
		c-0.43,0.29-0.66,0.76-0.44,1.44c0.16,0.5,0.61,0.74,1.2,0.7c0.45-0.03,0.8-0.24,1.12-0.61c0.01,0.21,0.02,0.36,0.03,0.52
		C92.91,11.66,93.2,11.66,93.52,11.66z M47.65,8.57c0.44-0.07,0.83-0.18,1.22-0.2c0.58-0.03,0.79,0.23,0.71,0.82
		c-0.2,0.01-0.41,0.01-0.61,0.04c-0.22,0.03-0.43,0.08-0.64,0.14c-0.31,0.08-0.58,0.23-0.78,0.48c-0.52,0.62-0.26,1.66,0.49,1.85
		c0.53,0.14,1.03,0.04,1.45-0.34c0.06-0.06,0.09-0.15,0.13-0.23c0.03,0.02,0.06,0.04,0.08,0.07c0.01,0.15,0.02,0.3,0.03,0.45
		c0.32,0,0.62,0,0.94,0c0-0.26,0-0.51,0-0.75c0-0.7,0.01-1.4-0.01-2.1c-0.01-0.7-0.38-1.14-1.07-1.2c-0.46-0.04-0.93,0-1.39,0.04
		c-0.22,0.02-0.44,0.11-0.69,0.17C47.55,8.09,47.6,8.33,47.65,8.57z M74.07,11.66c0-1,0.01-1.95-0.01-2.91
		c-0.01-0.67-0.4-1.09-1.08-1.15c-0.41-0.04-0.83-0.02-1.24,0.01c-0.27,0.02-0.54,0.13-0.83,0.21c0.07,0.3,0.12,0.54,0.17,0.79
		c0.25-0.07,0.44-0.13,0.64-0.17c0.2-0.04,0.41-0.07,0.61-0.07c0.54,0,0.75,0.28,0.65,0.81c-0.34,0.04-0.67,0.07-1,0.13
		c-0.37,0.07-0.72,0.21-0.99,0.5c-0.36,0.39-0.38,0.84-0.21,1.31c0.16,0.44,0.52,0.63,0.97,0.65c0.45,0.02,0.84-0.1,1.17-0.43
		c0.05-0.05,0.1-0.1,0.18-0.17c0.01,0.2,0.02,0.35,0.03,0.51C73.46,11.66,73.76,11.66,74.07,11.66z M80.42,10.71
		c-0.47,0.17-0.91,0.25-1.37,0.22c-0.61-0.05-0.94-0.46-0.86-1.1c0.81,0,1.62,0,2.44,0c0.08-0.47,0.07-0.9-0.08-1.33
		c-0.13-0.37-0.37-0.66-0.74-0.8c-0.94-0.36-2.2-0.14-2.6,1.2c-0.16,0.53-0.15,1.07-0.01,1.61c0.17,0.63,0.58,1.03,1.22,1.17
		c0.71,0.15,1.41,0.06,2.12-0.19C80.49,11.24,80.46,11,80.42,10.71z M101.93,9.85c0.1-0.48,0.08-0.91-0.04-1.27
		c-0.13-0.4-0.38-0.72-0.78-0.87c-0.93-0.35-2.17-0.15-2.59,1.18c-0.17,0.55-0.16,1.13,0,1.68c0.16,0.56,0.53,0.94,1.1,1.09
		c0.75,0.19,1.48,0.09,2.23-0.16c-0.04-0.27-0.08-0.51-0.12-0.78c-0.47,0.17-0.91,0.25-1.37,0.22c-0.61-0.05-0.95-0.48-0.85-1.08
		c0.4,0,0.8,0,1.2,0C101.12,9.85,101.52,9.85,101.93,9.85z M112.88,10.79c-0.47,0.05-0.9,0.14-1.34,0.14
		c-0.64,0-0.98-0.42-0.91-1.09c0.81,0,1.62,0,2.44,0c0.09-0.48,0.07-0.93-0.09-1.36c-0.13-0.36-0.37-0.63-0.73-0.77
		c-0.93-0.36-2.2-0.16-2.61,1.19c-0.16,0.54-0.14,1.1,0,1.65c0.03,0.12,0.09,0.24,0.15,0.36c0.14,0.27,0.35,0.49,0.62,0.62
		c0.86,0.38,1.7,0.24,2.56-0.02C112.95,11.23,112.91,11,112.88,10.79z M59.66,9.85c0-0.38,0.04-0.72-0.01-1.04
		c-0.07-0.5-0.33-0.91-0.82-1.1c-0.9-0.35-2.13-0.17-2.57,1.09c-0.22,0.62-0.2,1.25,0.01,1.87c0.15,0.46,0.46,0.79,0.92,0.94
		c0.79,0.26,1.58,0.15,2.37-0.11c-0.05-0.28-0.09-0.53-0.13-0.79c-0.45,0.16-0.87,0.24-1.3,0.22c-0.64-0.04-0.97-0.41-0.92-1.08
		C58,9.85,58.81,9.85,59.66,9.85z M105.34,7.66c0.47,1.36,0.92,2.68,1.37,3.99c0.44,0,0.84,0,1.26,0c0.46-1.33,0.91-2.65,1.37-3.99
		c-0.38,0-0.73,0-1.11,0c-0.29,0.91-0.57,1.82-0.86,2.76c-0.31-0.95-0.6-1.86-0.89-2.76C106.08,7.66,105.74,7.66,105.34,7.66z
		 M66.43,45.3c-0.59,0-1.12,0-1.67,0c0,2.22,0,4.42,0,6.61c0.58,0,1.13,0,1.67,0C66.43,49.68,66.43,47.5,66.43,45.3z M103.04,8.45
		c0,0.15,0,0.28,0,0.4c0,0.56-0.01,1.11,0,1.67c0,0.21,0.03,0.41,0.07,0.61c0.06,0.27,0.23,0.47,0.5,0.55
		c0.49,0.13,0.97,0.07,1.46-0.03c-0.01-0.17-0.01-0.29-0.02-0.42c-0.01-0.12-0.02-0.25-0.03-0.37c-0.15,0-0.25,0-0.35,0
		c-0.46,0.01-0.56-0.06-0.58-0.52c-0.02-0.54-0.02-1.09-0.02-1.63c0-0.08,0.02-0.17,0.03-0.29c0.33,0,0.63,0,0.93,0
		c0-0.28,0-0.52,0-0.79c-0.32,0-0.61,0-0.94,0c-0.01-0.52-0.02-1.01-0.03-1.52c-0.38,0.1-0.69,0.19-1.03,0.29c0,0.43,0,0.82,0,1.23
		c-0.25,0.01-0.46,0.02-0.66,0.03c0,0.28,0,0.52,0,0.79C102.59,8.45,102.8,8.45,103.04,8.45z M65.37,7.65c-0.26,0-0.47,0-0.68,0
		c0,0.28,0,0.53,0,0.8c0.23,0,0.44,0,0.67,0c0,0.15,0,0.28,0,0.4c0,0.56-0.01,1.11,0,1.67c0,0.19,0.02,0.39,0.06,0.58
		c0.06,0.27,0.21,0.48,0.48,0.56c0.5,0.15,0.99,0.08,1.5-0.02c-0.03-0.29-0.05-0.54-0.07-0.78c-0.19,0-0.33,0-0.47,0
		c-0.31-0.01-0.43-0.09-0.44-0.41c-0.02-0.66-0.01-1.31-0.01-2.01c0.31,0,0.62,0,0.93,0c0-0.29,0-0.53,0-0.81c-0.32,0-0.61,0-0.95,0
		c0-0.51,0-1,0-1.52c-0.37,0.1-0.69,0.18-1.03,0.28C65.37,6.8,65.37,7.2,65.37,7.65z M116.79,10.84c-0.02,0.26-0.05,0.53-0.07,0.82
		c0.66,0.12,1.27,0.17,1.86-0.09c0.14-0.06,0.27-0.15,0.4-0.24c0.55-0.43,0.63-1.54-0.23-1.9c-0.17-0.07-0.34-0.13-0.5-0.21
		c-0.12-0.05-0.24-0.1-0.35-0.17c-0.13-0.08-0.19-0.21-0.17-0.36c0.02-0.17,0.13-0.26,0.27-0.3c0.12-0.04,0.26-0.04,0.38-0.04
		c0.21,0.01,0.43,0.04,0.66,0.06c0-0.27,0-0.52,0-0.8c-0.44-0.06-0.87-0.09-1.28,0c-0.23,0.05-0.47,0.16-0.67,0.29
		c-0.62,0.43-0.67,1.6,0.2,1.94c0.17,0.07,0.34,0.13,0.51,0.2c0.11,0.04,0.22,0.08,0.31,0.15c0.25,0.18,0.23,0.49-0.03,0.64
		c-0.11,0.06-0.25,0.1-0.37,0.09C117.42,10.92,117.13,10.88,116.79,10.84z M9.64,7.64c0.32-0.12,0.6-0.23,0.94-0.35
		c0,1.48,0,2.91,0,4.34c0.43,0.07,0.78,0.06,1.05-0.02c0.07-1.03,0.04-5.13-0.04-5.4c-0.77-0.14-1.43,0.21-2.11,0.46
		C9.54,7.01,9.59,7.3,9.64,7.64z M75.21,5.77c0,1.98,0,3.93,0,5.88c0.35,0,0.67,0,1,0c0-1.96,0-3.9,0-5.85
		c-0.09-0.01-0.18-0.02-0.26-0.03C75.71,5.77,75.46,5.77,75.21,5.77z M36.19,5.79c0,1.96,0,3.91,0,5.85c0.34,0,0.66,0,0.98,0
		c0-1.96,0-3.9,0-5.85C36.83,5.79,36.52,5.79,36.19,5.79z M28.89,6.47C28.65,6.3,28.44,6.15,28.23,6c-1.37,1.81-2.7,3.59-4.06,5.39
		c0.23,0.16,0.44,0.31,0.66,0.46C26.19,10.04,27.52,8.28,28.89,6.47z M69.25,11.65c0-0.51-0.02-1,0.01-1.49
		c0.01-0.33,0.04-0.67,0.13-1c0.12-0.45,0.35-0.6,0.82-0.63c0.06,0,0.12-0.02,0.2-0.03c0-0.32,0-0.63,0-0.94
		c-0.26-0.03-0.49,0-0.68,0.14c-0.19,0.14-0.35,0.33-0.54,0.51c0-0.19,0-0.37,0-0.57c-0.18,0-0.33,0-0.48,0c-0.15,0-0.3,0-0.45,0
		c0,1.37,0,2.68,0,4.01C68.59,11.65,68.91,11.65,69.25,11.65z M114.95,8.3c0-0.28,0-0.45,0-0.63c-0.33,0-0.63,0-0.93,0
		c0,1.34,0,2.66,0,3.99c0.34,0,0.66,0,1.01,0c0-0.34-0.01-0.66,0-0.98c0.02-0.44,0.02-0.88,0.08-1.32c0.08-0.58,0.35-0.79,0.94-0.82
		c0.04,0,0.07-0.02,0.12-0.04c0-0.31,0-0.61,0-0.93C115.61,7.51,115.25,7.79,114.95,8.3z M83.7,7.56c-0.55-0.07-0.9,0.24-1.21,0.72
		c0-0.27,0-0.45,0-0.61c-0.33,0-0.63,0-0.92,0c0,1.34,0,2.66,0,3.98c0.34,0,0.66,0,1,0c0-0.22,0-0.41,0-0.6
		c0.01-0.49,0-0.99,0.05-1.47C82.7,8.79,82.9,8.6,83.7,8.51C83.7,8.21,83.7,7.9,83.7,7.56z M28.16,9.2
		c-0.53-0.03-0.94,0.18-1.17,0.66c-0.24,0.5-0.21,1,0.09,1.48c0.13,0.2,0.34,0.32,0.57,0.37c0.95,0.23,1.71-0.4,1.67-1.38
		C29.28,9.61,28.87,9.21,28.16,9.2z M26.22,7.32c0-0.62-0.23-1.01-0.69-1.18C25,5.96,24.4,6.11,24.07,6.51
		c-0.35,0.43-0.42,1.22-0.1,1.67c0.12,0.17,0.3,0.34,0.5,0.4C25.47,8.95,26.27,8.22,26.22,7.32z M38.37,7.66c0,1.34,0,2.66,0,3.99
		c0.34,0,0.66,0,0.98,0c0-1.34,0-2.66,0-3.99C39.01,7.66,38.7,7.66,38.37,7.66z M66.66,43.26c0-0.58-0.48-1.05-1.07-1.04
		c-0.57,0-1.07,0.49-1.07,1.06c0,0.57,0.5,1.05,1.08,1.04C66.19,44.3,66.66,43.84,66.66,43.26z M39.51,6.43
		c0-0.35-0.28-0.63-0.64-0.64c-0.36-0.01-0.65,0.27-0.66,0.62c-0.01,0.35,0.28,0.63,0.64,0.63C39.22,7.05,39.51,6.78,39.51,6.43z"/>
	<path class="st6" d="M20.04,17.26c0.47-0.08,0.87-0.16,1.28-0.22c1.99-0.29,4-0.4,6.01-0.32c3.29,0.13,6.23,1.22,8.82,3.24
		c1.38,1.07,2.29,2.46,2.62,4.19c0.03,0.18,0.05,0.36,0.07,0.54c0.01,0.18,0,0.36,0,0.62c0.18-0.15,0.31-0.26,0.48-0.4
		c0.43,0.35,0.88,0.68,1.3,1.04c2.84,2.5,4.59,5.62,5.18,9.36c1.29,8.24-4.05,15.84-11.91,17.66c-0.91,0.21-1.83,0.34-2.77,0.39
		c-7.77,0.4-14.42-4.94-16.05-12.16c-1.4-6.21,1.08-12.65,6.36-16.3c0.24-0.16,0.31-0.33,0.29-0.6c-0.08-0.87,0.06-1.73,0.17-2.59
		c0.11-0.86,0.06-1.71-0.21-2.54c-0.25-0.78-0.7-1.41-1.45-1.79C20.18,17.36,20.14,17.33,20.04,17.26z M28.98,22.31
		c1.54,1.67,3.1,3.33,4.57,5.19c-0.94,0.04-1.77,0.03-2.61-0.02c0.31,0.08,0.62,0.14,0.93,0.2c0.7,0.14,1.4,0.27,2.1,0.41
		c0.21,0.04,0.38,0.12,0.47,0.35c0.11,0.26,0.24,0.52,0.38,0.76c0.04,0.08,0.14,0.17,0.22,0.18c0.24,0.02,0.48,0.01,0.72,0.01
		c0.01-0.06,0.03-0.09,0.02-0.11c-0.23-0.79-0.52-1.55-1.24-2.05c-0.02-0.01-0.04-0.04-0.06-0.05c-0.16-0.09-0.19-0.22-0.18-0.39
		c0.02-0.3,0.03-0.6,0.02-0.89c-0.03-1.01-0.06-2.02-0.1-3.03c-0.01-0.19-0.07-0.39-0.11-0.58c-0.03,0-0.06,0.01-0.09,0.01
		c-0.17,1.19-0.3,2.38-0.5,3.62c-0.12-0.11-0.18-0.17-0.25-0.23c-0.63-0.57-1.26-1.16-1.9-1.72c-0.72-0.63-1.45-1.25-2.28-1.75
		c-0.1-0.07-0.21-0.13-0.31-0.2c-0.02,0.02-0.03,0.05-0.05,0.07C28.82,22.16,28.9,22.24,28.98,22.31z M15.77,38.29
		c0.03,0.32,0.05,0.6,0.07,0.88c0.18,1.96,0.76,3.8,1.7,5.53c0.13,0.23,0.26,0.33,0.54,0.32c1.65-0.01,3.29-0.01,4.94-0.01
		c0.12,0,0.23,0,0.32,0c-0.2-1.13-0.42-2.23-0.57-3.35c-0.15-1.12-0.21-2.26-0.31-3.39C20.25,38.29,18.04,38.29,15.77,38.29z
		 M37.27,45.03c0.15,0,0.26,0,0.37,0c1.65,0,3.29-0.01,4.94,0.01c0.27,0,0.41-0.08,0.54-0.32c0.89-1.64,1.44-3.38,1.67-5.22
		c0.05-0.39,0.13-0.79,0.07-1.2c-2.24,0-4.45,0-6.71,0C38.11,40.57,37.84,42.8,37.27,45.03z M15.75,37.18c2.29,0,4.5,0,6.76,0
		c0.03-2.26,0.32-4.49,0.87-6.69c-0.14-0.01-0.23-0.02-0.32-0.02c-1.68,0-3.37,0-5.05-0.01c-0.23,0-0.34,0.08-0.45,0.28
		c-0.81,1.47-1.34,3.02-1.61,4.67C15.86,35.98,15.82,36.56,15.75,37.18z M44.86,37.17c0.01-0.06,0.03-0.09,0.03-0.13
		c-0.02-0.25-0.03-0.49-0.06-0.74c-0.18-1.97-0.77-3.82-1.71-5.56c-0.11-0.21-0.25-0.29-0.48-0.29c-1.52,0.01-3.03,0-4.55,0.01
		c-0.1,0-0.2,0.02-0.3,0.03c-0.08,0.28-0.17,0.54-0.24,0.8c-0.02,0.08-0.03,0.18-0.01,0.26c0.37,1.74,0.57,3.5,0.61,5.28
		c0,0.11,0.03,0.22,0.05,0.33C40.43,37.17,42.64,37.17,44.86,37.17z M30.89,45c1.78,0,3.52,0,5.28,0c0.59-2.2,0.87-4.42,0.89-6.7
		c-2.08,0-4.12,0-6.17,0C30.89,40.55,30.89,42.76,30.89,45z M24.5,45c0.82,0.07,4.99,0.04,5.26-0.03c0-2.22,0-4.44,0-6.67
		c-2.06,0-4.09,0-6.16,0C23.64,40.58,23.9,42.8,24.5,45z M29.77,37.17c0-1.18,0-2.34,0-3.52c-2.02-0.35-3.94-0.91-5.45-2.48
		c-0.47,2.01-0.69,3.98-0.71,6C25.67,37.17,27.71,37.17,29.77,37.17z M37.07,37.17c-0.04-2.28-0.3-4.5-0.9-6.68
		c-0.25,0-0.48,0-0.73,0c0.06,0.16,0.11,0.28,0.15,0.4c0.18,0.52,0.39,1.04,0.54,1.58c0.08,0.27,0.11,0.56,0.12,0.84
		c0.01,0.3-0.06,0.35-0.36,0.38c-1.6,0.19-3.2,0.21-4.81,0.1c-0.06,0-0.12,0.01-0.18,0.01c0,1.14,0,2.24,0,3.37
		C32.95,37.17,34.98,37.17,37.07,37.17z M30.95,46.13c-0.09,0.29-0.1,5.76,0,6.13c0.25-0.1,0.51-0.18,0.76-0.29
		c0.76-0.35,1.35-0.91,1.87-1.55c0.97-1.19,1.63-2.55,2.14-3.98c0.03-0.09,0.05-0.19,0.08-0.31C34.16,46.13,32.55,46.13,30.95,46.13
		z M24.88,46.13c0.01,0.08,0.01,0.13,0.03,0.18c0.48,1.36,1.08,2.66,1.96,3.82c0.46,0.61,0.99,1.16,1.64,1.58
		c0.38,0.25,0.78,0.45,1.26,0.52c0-2.04,0-4.07,0-6.11C28.13,46.13,26.53,46.13,24.88,46.13z M18.46,46.13
		c0.7,1.15,2.26,2.68,3.72,3.67c1.45,0.99,3.99,2.08,4.73,2.01c-0.79-0.79-1.4-1.68-1.92-2.64c-0.52-0.97-0.92-1.99-1.27-3.05
		C21.97,46.13,20.24,46.13,18.46,46.13z M36.95,46.13c-0.7,2.12-1.62,4.1-3.17,5.73c1.73-0.39,3.3-1.09,4.75-2.08
		c1.48-1.01,3.39-2.93,3.64-3.65C40.44,46.13,38.71,46.13,36.95,46.13z M21.91,25.87c-1.37,0.99-2.51,2.11-3.48,3.49
		c1.61,0,3.13,0,4.72,0C22.59,28.24,22.17,27.12,21.91,25.87z M38.12,29.34c0.42,0.08,3.78,0.06,4.09-0.03
		c-0.95-1.31-2.05-2.44-3.38-3.38C38.59,27.1,38.35,28.22,38.12,29.34z"/>
	<path class="st7" d="M62.1,17.73c-0.93,0.54-1.89,1.04-2.8,1.63c-1.38,0.9-2.6,1.99-3.58,3.32c-0.69,0.94-1.22,1.97-1.42,3.13
		c-0.34,2,0.33,3.61,1.92,4.85c1.11,0.87,2.39,1.41,3.75,1.74c5.12,1.24,9.89,0.49,14.23-2.6c1.34-0.96,2.46-2.15,3.43-3.49
		c0.06-0.09,0.12-0.18,0.18-0.27c0.01-0.02,0-0.06,0-0.12c-2.53,0-5.05,0-7.65,0c0.38-1.85,0.75-3.65,1.12-5.45
		c6.87,0,13.7,0,20.57,0c-1.05,5.48-2.09,10.92-3.14,16.39c-1.92,0-3.82,0-5.77,0c0.17-1.23,0.45-2.42,0.67-3.63
		c0.22-1.2,0.45-2.39,0.69-3.64c-0.08,0.05-0.13,0.06-0.15,0.09c-1.2,1.76-2.82,3.05-4.63,4.13c-2.75,1.64-5.71,2.6-8.9,2.93
		c-3.04,0.32-6.05,0.22-9.03-0.48c-2.15-0.51-4.19-1.29-5.99-2.59c-0.9-0.65-1.68-1.4-2.31-2.32c-1.12-1.62-1.26-3.38-0.69-5.22
		c0.49-1.58,1.4-2.91,2.54-4.1c1.91-2,4.21-3.41,6.78-4.4C61.98,17.68,62.04,17.7,62.1,17.73z"/>
	<path class="st8" d="M100.96,32.72c0.15-0.81,0.3-1.62,0.45-2.42c0.15-0.79,0.29-1.57,0.44-2.36c1.41,0,2.78,0,4.19,0
		c-0.13,0.67-0.24,1.31-0.37,1.96c-0.36,1.86-0.74,3.72-1.08,5.59c-0.06,0.31-0.2,0.43-0.47,0.53c-1.49,0.56-3.04,0.81-4.62,0.86
		c-1.13,0.04-2.25-0.04-3.34-0.38c-2.02-0.62-3.3-1.98-3.61-4.05c-0.55-3.59,0.37-6.77,3-9.35c1.56-1.53,3.49-2.34,5.66-2.59
		c2.07-0.24,4.09,0.03,6.09,0.51c0.05,0.35-0.52,3.39-0.78,4.25c-0.69-0.21-1.37-0.44-2.06-0.61c-1.01-0.25-2.05-0.36-3.08-0.2
		c-1.84,0.29-3.11,1.34-3.87,3.02c-0.43,0.96-0.61,1.97-0.55,3.02c0.06,1.22,0.73,2,1.92,2.27C99.46,32.9,100.41,32.88,100.96,32.72
		z"/>
	<path class="st8" d="M126.17,20.63c-0.24,1.29-0.47,2.52-0.71,3.75c-0.56-0.1-1.1-0.2-1.65-0.29c-0.52-0.08-1.05-0.07-1.56,0.06
		c-0.68,0.16-1.05,0.62-1.01,1.24c0.02,0.35,0.19,0.62,0.45,0.83c0.32,0.26,0.68,0.48,1.01,0.74c0.51,0.39,1.05,0.76,1.52,1.2
		c0.63,0.59,0.96,1.36,1.03,2.22c0.21,2.54-0.92,4.37-3.07,5.62c-1.05,0.61-2.2,0.88-3.41,0.92c-1.07,0.04-2.13-0.05-3.19-0.2
		c-0.14-0.02-0.27-0.06-0.44-0.1c0.26-1.34,0.51-2.66,0.76-4c0.58,0.12,1.13,0.27,1.69,0.33c0.59,0.07,1.2,0.09,1.8,0.05
		c0.56-0.04,1.04-0.27,1.22-0.89c0.12-0.43,0.03-0.81-0.28-1.11c-0.25-0.24-0.55-0.45-0.84-0.65c-0.35-0.25-0.73-0.47-1.08-0.72
		c-1.42-1.01-1.94-2.41-1.77-4.12c0.25-2.48,1.88-4.32,4.58-4.92c1.2-0.27,2.42-0.25,3.64-0.14
		C125.3,20.51,125.71,20.57,126.17,20.63z"/>
	<path class="st8" d="M109.1,20.44c1.41,0,2.78,0,4.19,0c-0.8,4.1-1.59,8.18-2.4,12.3c1.16,0,2.26,0,3.44,0
		c-0.26,1.38-0.5,2.72-0.76,4.09c-2.55,0-5.07,0-7.65,0C106.99,31.34,108.05,25.89,109.1,20.44z"/>
	<path class="st9" d="M77.86,51.92c-0.58,0-1.12,0-1.69,0c-0.01-0.15-0.02-0.28-0.02-0.42c0-1.2,0-2.41,0-3.61
		c0-0.23-0.01-0.46-0.05-0.69c-0.08-0.45-0.39-0.66-0.84-0.6c-0.32,0.04-0.58,0.2-0.8,0.43c-0.38,0.41-0.58,0.91-0.6,1.47
		c-0.02,0.96-0.02,1.91-0.02,2.87c0,0.17,0,0.33,0,0.53c-0.56,0-1.1,0-1.67,0c-0.01-0.12-0.02-0.25-0.02-0.38c0-1.22,0-2.44,0-3.66
		c0-0.22,0-0.43-0.04-0.65c-0.08-0.46-0.41-0.69-0.87-0.62c-0.3,0.05-0.55,0.19-0.76,0.41c-0.36,0.39-0.58,0.85-0.6,1.37
		c-0.03,0.99-0.03,1.97-0.04,2.96c0,0.18,0,0.37,0,0.57c-0.58,0-1.11,0-1.68,0c0-2.19,0-4.39,0-6.62c0.51,0,1.03,0,1.57,0
		c0,0.32,0,0.63,0,0.98c1.24-1.61,3.45-1.43,4.01,0.09c0.07-0.09,0.13-0.18,0.2-0.26c0.62-0.8,1.61-1.13,2.6-0.88
		c0.61,0.15,1,0.53,1.19,1.11c0.07,0.22,0.13,0.45,0.13,0.68C77.87,48.64,77.86,50.26,77.86,51.92z"/>
	<path class="st9" d="M55.22,42.93c0,1.32,0,2.59,0,3.87c0.02,0.01,0.05,0.02,0.07,0.03c0.07-0.09,0.14-0.18,0.2-0.27
		c0.8-1.12,1.6-2.23,2.39-3.35c0.15-0.21,0.31-0.3,0.57-0.29c0.57,0.02,1.14,0.01,1.8,0.01c-1.13,1.48-2.21,2.9-3.31,4.35
		c1.13,1.53,2.26,3.07,3.43,4.64c-0.8,0-1.53,0-2.3,0c-0.91-1.36-1.84-2.74-2.8-4.17c-0.12,0.38-0.05,0.73-0.07,1.06
		c-0.01,0.34,0,0.68,0,1.02c0,0.35,0,0.71,0,1.06c0,0.34,0,0.67,0,1.03c-0.59,0-1.14,0-1.72,0c0-2.99,0-5.98,0-8.98
		C54.05,42.93,54.61,42.93,55.22,42.93z"/>
	<path class="st9" d="M88.15,51.92c-0.6,0-1.15,0-1.73,0c0-2.99,0-5.98,0-9.01c1.34-0.02,2.68-0.22,4,0.14
		c1.02,0.28,1.72,0.92,1.89,2c0.31,2.02-0.82,3.44-2.69,3.74c-0.47,0.07-0.94,0.07-1.46,0.11c0,0.49,0,1,0,1.5
		C88.15,50.88,88.15,51.37,88.15,51.92z M88.16,47.37c0.41,0,0.79,0.05,1.14-0.01c1.12-0.19,1.65-1.64,0.94-2.53
		c-0.08-0.11-0.19-0.21-0.31-0.27c-0.57-0.31-1.17-0.29-1.78-0.22C88.16,45.35,88.16,46.32,88.16,47.37z"/>
	<path class="st9" d="M104.06,48.36c0,1.14-0.31,2.1-1.11,2.86c-1.2,1.14-3.14,0.99-4.06,0.45c-0.58-0.34-0.95-0.83-1.14-1.46
		c-0.27-0.89-0.3-1.79-0.04-2.69c0.42-1.43,1.62-2.35,3.12-2.36c0.29,0,0.59,0.01,0.87,0.06c1.36,0.26,2.16,1.13,2.31,2.51
		C104.04,47.96,104.05,48.19,104.06,48.36z M102.33,48.62c-0.08-0.42-0.11-0.79-0.22-1.14c-0.15-0.47-0.48-0.77-1-0.85
		c-0.83-0.13-1.51,0.32-1.72,1.17c-0.15,0.6-0.13,1.19,0.05,1.78c0.2,0.66,0.63,1,1.26,1.03c0.58,0.03,1.11-0.28,1.34-0.87
		C102.2,49.38,102.25,48.98,102.33,48.62z"/>
	<path class="st9" d="M82.96,47.81c0-0.15,0.01-0.28,0-0.42c-0.05-0.59-0.36-0.89-0.95-0.93c-0.6-0.04-1.17,0.08-1.73,0.26
		c-0.16,0.05-0.32,0.1-0.52,0.16c-0.09-0.44-0.18-0.85-0.27-1.28c0.52-0.24,1.03-0.33,1.55-0.4c0.71-0.09,1.42-0.11,2.12,0.05
		c0.89,0.21,1.38,0.77,1.49,1.67c0.01,0.09,0.02,0.18,0.03,0.28c0.01,0.08,0,0.15,0,0.23c0,1.48,0,2.96,0,4.47c-0.49,0-1,0-1.59,0
		c0.01-0.28,0.03-0.56,0.04-0.92c-0.11,0.12-0.18,0.19-0.25,0.27c-0.68,0.76-1.53,0.96-2.48,0.73c-0.8-0.19-1.28-0.93-1.27-1.83
		c0.01-0.7,0.29-1.25,0.88-1.64c0.5-0.33,1.06-0.49,1.65-0.57C82.08,47.89,82.5,47.86,82.96,47.81z M82.96,48.99
		c-0.56-0.03-1.06,0.03-1.55,0.19c-0.13,0.04-0.25,0.12-0.36,0.2c-0.26,0.21-0.34,0.52-0.24,0.83c0.1,0.32,0.34,0.5,0.68,0.53
		c0.36,0.03,0.67-0.08,0.93-0.33C82.82,50.04,82.98,49.58,82.96,48.99z"/>
	<path class="st10" d="M115.58,48.96c-1.36,0-2.7,0-4.04,0c-0.11,1.25,0.72,1.73,1.53,1.75c0.37,0.01,0.74-0.02,1.1-0.08
		c0.35-0.05,0.68-0.16,1.07-0.26c0.03,0.2,0.06,0.41,0.09,0.62c0.03,0.21,0.06,0.42,0.09,0.65c-0.88,0.34-1.75,0.46-2.66,0.42
		c-0.32-0.01-0.65-0.06-0.96-0.13c-0.86-0.22-1.5-0.73-1.8-1.58c-0.41-1.15-0.41-2.3,0.09-3.43c0.88-1.98,3.09-2.05,4.28-1.43
		c0.7,0.36,1.06,0.98,1.2,1.72C115.71,47.76,115.71,48.33,115.58,48.96z M113.93,47.78c0.04-0.84-0.35-1.33-1.05-1.37
		c-0.72-0.04-1.29,0.54-1.31,1.37C112.34,47.78,113.12,47.78,113.93,47.78z"/>
	<path class="st11" d="M126.5,50.55c0.04,0.44,0.08,0.87,0.12,1.32c-0.79,0.21-1.56,0.28-2.34,0.1c-0.6-0.14-0.89-0.58-0.98-1.16
		c-0.04-0.29-0.06-0.58-0.07-0.88c-0.01-1.08,0-2.16,0-3.3c-0.37,0-0.73,0-1.12,0c0-0.48,0-0.9,0-1.36c0.36,0,0.71,0,1.1,0
		c0-0.69,0-1.35,0-2.03c0.58-0.15,1.12-0.3,1.72-0.46c0,0.84,0,1.64,0,2.47c0.54,0,1.05,0,1.58,0c0,0.46,0,0.88,0,1.36
		c-0.5,0-1.01,0-1.57,0c0,0.29,0,0.54,0,0.78c0,0.79,0,1.57,0.02,2.36c0.02,0.69,0.26,0.9,0.95,0.86
		C126.1,50.61,126.28,50.58,126.5,50.55z"/>
	<path class="st12" d="M107.4,45.27c0.58,0,1.08,0,1.61,0c0,0.46,0,0.88,0,1.34c-0.52,0-1.02,0-1.52,0
		c-0.03,0.07-0.06,0.12-0.06,0.16c0,0.99-0.02,1.98,0,2.96c0.01,0.72,0.26,0.93,0.98,0.88c0.17-0.01,0.33-0.04,0.55-0.07
		c0.04,0.44,0.08,0.86,0.13,1.33c-0.84,0.2-1.67,0.31-2.5,0.04c-0.49-0.16-0.72-0.56-0.8-1.05c-0.05-0.3-0.08-0.61-0.08-0.92
		c-0.01-0.94,0-1.88,0-2.82c0-0.15,0-0.3,0-0.49c-0.39,0-0.73,0-1.11,0c0-0.46,0-0.89,0-1.35c0.35,0,0.7,0,1.09,0
		c0-0.69,0-1.35,0-2.04c0.57-0.15,1.12-0.3,1.72-0.46C107.4,43.62,107.4,44.41,107.4,45.27z"/>
	<path class="st11" d="M40.5,7.66c0.32,0,0.62,0,0.94,0c0,0.17,0,0.33,0,0.58c0.37-0.41,0.74-0.67,1.25-0.68
		c0.53-0.01,0.94,0.16,1.2,0.79c0.07-0.13,0.1-0.21,0.15-0.28c0.41-0.5,0.96-0.59,1.55-0.47c0.43,0.08,0.72,0.46,0.77,0.96
		c0.02,0.19,0.01,0.39,0.01,0.58c0,0.83,0,1.66,0,2.51c-0.34,0-0.66,0-1,0c-0.01-0.1-0.02-0.2-0.02-0.29c0-0.7,0-1.4,0-2.1
		c0-0.12,0-0.23-0.01-0.35c-0.07-0.46-0.43-0.63-0.82-0.37c-0.38,0.25-0.54,0.63-0.55,1.06c-0.02,0.52-0.01,1.04-0.01,1.55
		c0,0.15,0,0.31,0,0.49c-0.33,0-0.65,0-0.99,0c-0.01-0.09-0.02-0.19-0.02-0.29c0-0.67,0-1.35,0-2.02c0-0.15,0-0.31-0.03-0.46
		c-0.08-0.43-0.39-0.57-0.78-0.35c-0.38,0.22-0.54,0.58-0.58,1c-0.03,0.33-0.02,0.67-0.02,1.01c0,0.36,0,0.72,0,1.12
		c-0.34,0-0.67,0-1.02,0C40.5,10.32,40.5,9.01,40.5,7.66z"/>
	<path class="st10" d="M16.73,8.91c0.02,0.53-0.06,1.12-0.33,1.67c-0.46,0.94-1.3,1.36-2.43,1.11c-0.56-0.12-0.95-0.49-1.14-1.02
		c-0.39-1.08-0.41-2.19,0.02-3.26c0.41-1.03,1.37-1.48,2.43-1.23c0.53,0.12,0.9,0.44,1.13,0.92C16.64,7.55,16.73,8.06,16.73,8.91z
		 M15.61,8.89c0-0.18,0.03-0.37-0.01-0.54c-0.06-0.31-0.11-0.65-0.25-0.93c-0.28-0.57-1.01-0.6-1.36-0.07
		c-0.12,0.18-0.19,0.39-0.24,0.6c-0.14,0.57-0.12,1.16-0.05,1.74c0.03,0.26,0.12,0.53,0.23,0.77c0.13,0.28,0.38,0.41,0.69,0.41
		c0.41,0,0.64-0.23,0.79-0.58C15.62,9.85,15.63,9.37,15.61,8.89z"/>
	<path class="st10" d="M21.53,8.55c0.01,0.86-0.07,1.42-0.31,1.95c-0.45,1-1.41,1.46-2.46,1.19c-0.52-0.14-0.92-0.45-1.11-0.95
		c-0.44-1.14-0.47-2.31,0.04-3.44c0.43-0.96,1.35-1.37,2.38-1.13c0.54,0.13,0.92,0.46,1.15,0.95C21.47,7.67,21.52,8.25,21.53,8.55z
		 M20.46,9.09c-0.04-0.46-0.05-0.77-0.11-1.07c-0.04-0.21-0.11-0.43-0.21-0.62c-0.29-0.52-0.96-0.57-1.32-0.09
		c-0.11,0.15-0.2,0.34-0.24,0.52c-0.19,0.75-0.19,1.51,0,2.27c0.04,0.15,0.1,0.29,0.18,0.43c0.14,0.24,0.36,0.35,0.65,0.36
		c0.41,0.01,0.68-0.21,0.79-0.56C20.33,9.87,20.39,9.41,20.46,9.09z"/>
	<path class="st9" d="M121.46,45.4c-0.09,0.49-0.17,0.95-0.26,1.42c-0.39-0.07-0.75-0.16-1.11-0.18c-0.82-0.05-1.31,0.31-1.55,1.1
		c-0.18,0.59-0.18,1.19-0.02,1.78c0.18,0.68,0.63,1.03,1.35,1.05c0.23,0.01,0.46,0,0.69-0.04c0.22-0.03,0.44-0.11,0.71-0.18
		c0.07,0.47,0.15,0.92,0.23,1.42c-0.32,0.08-0.61,0.17-0.91,0.21c-0.68,0.1-1.35,0.13-2.02-0.05c-0.82-0.22-1.4-0.71-1.68-1.51
		c-0.41-1.19-0.38-2.37,0.14-3.52c0.49-1.09,1.41-1.6,2.56-1.72C120.17,45.11,120.79,45.19,121.46,45.4z"/>
	<path class="st10" d="M131.5,7.57c0-0.62,0-1.21,0-1.82c0.35,0,0.66,0,1,0c0,1.97,0,3.92,0,5.9c-0.3,0-0.6,0-0.92,0
		c0-0.15,0-0.31,0-0.5c-0.08,0.07-0.13,0.1-0.18,0.15c-0.43,0.46-0.96,0.54-1.53,0.4c-0.53-0.13-0.81-0.54-0.93-1.05
		c-0.14-0.6-0.14-1.21,0.08-1.8c0.29-0.78,0.94-1.25,1.77-1.28C131,7.56,131.22,7.57,131.5,7.57z M131.53,8.43
		c-0.26-0.02-0.45-0.06-0.64-0.05c-0.4,0.01-0.69,0.21-0.83,0.59c-0.17,0.48-0.18,0.97-0.03,1.45c0.16,0.52,0.74,0.65,1.09,0.23
		c0.15-0.18,0.27-0.43,0.3-0.65C131.49,9.5,131.5,8.99,131.53,8.43z"/>
	<path class="st13" d="M95.69,9.86c0,0.59,0,1.18,0,1.79c-0.35,0-0.67,0-0.99,0c-0.08-0.27-0.1-5.34-0.02-5.86c0.33,0,0.66,0,1.03,0
		c0,1.14,0,2.26,0,3.37c0.02,0.01,0.04,0.01,0.06,0.02c0.29-0.42,0.6-0.83,0.87-1.26c0.14-0.23,0.31-0.31,0.57-0.29
		c0.28,0.02,0.56,0,0.91,0c-0.49,0.64-0.93,1.23-1.4,1.84c0.49,0.71,0.98,1.42,1.51,2.19c-0.45,0-0.83,0.01-1.21-0.01
		c-0.08,0-0.17-0.11-0.22-0.19c-0.28-0.44-0.55-0.88-0.83-1.32c-0.07-0.11-0.14-0.21-0.21-0.32C95.74,9.85,95.72,9.85,95.69,9.86z"
		/>
	<path class="st14" d="M63.03,51.91c-0.57,0-1.1,0-1.66,0c0-3.24,0-6.46,0-9.71c0.55,0,1.09,0,1.66,0
		C63.03,45.44,63.03,48.66,63.03,51.91z"/>
	<path class="st9" d="M87.23,9.81c0,0.64,0,1.23,0,1.85c-0.35,0-0.67,0-1.01,0c0-1.82,0-3.62,0-5.46c0.7,0,1.4-0.05,2.09,0.01
		c0.8,0.07,1.29,0.56,1.42,1.27C89.9,8.3,89.56,9.1,88.9,9.5c-0.37,0.22-0.77,0.3-1.19,0.31C87.56,9.81,87.42,9.81,87.23,9.81z
		 M87.25,8.86c0.62,0.13,1.04,0.04,1.25-0.29c0.23-0.36,0.27-0.77,0.05-1.14c-0.3-0.51-0.81-0.4-1.3-0.39
		C87.25,7.66,87.25,8.25,87.25,8.86z"/>
	<path class="st15" d="M33,5.8c0,1.14,0,2.26,0,3.38c0.02,0.01,0.04,0.02,0.07,0.02c0.2-0.29,0.41-0.59,0.61-0.88
		c0.16-0.22,0.28-0.53,0.49-0.63c0.23-0.12,0.56-0.04,0.84-0.05c0.11,0,0.23,0,0.42,0c-0.49,0.64-0.94,1.24-1.4,1.84
		c0.49,0.72,0.97,1.42,1.5,2.19c-0.44,0-0.82,0.02-1.2-0.01c-0.09-0.01-0.18-0.13-0.24-0.22c-0.29-0.46-0.58-0.92-0.87-1.38
		C33.17,9.98,33.12,9.89,33,9.82c0,0.61,0,1.22,0,1.84c-0.37,0-0.68,0-1.02,0c0-1.96,0-3.9,0-5.86C32.3,5.8,32.62,5.8,33,5.8z"/>
	<path class="st11" d="M95.07,46.23c0.15-0.19,0.28-0.41,0.45-0.58c0.41-0.4,0.89-0.57,1.45-0.47c0,0.54,0,1.06,0,1.62
		c-0.18,0-0.31,0-0.44,0c-0.53,0-0.94,0.24-1.13,0.73c-0.15,0.41-0.26,0.86-0.28,1.3c-0.05,0.85-0.02,1.69-0.02,2.54
		c0,0.17,0,0.34,0,0.56c-0.58,0.04-1.13,0.01-1.71,0.01c0-2.22,0-4.41,0-6.65c0.53-0.03,1.06-0.01,1.62-0.01
		c-0.02,0.33-0.04,0.6-0.05,0.87c-0.01,0.07-0.02,0.14-0.04,0.3C95.01,46.32,95.04,46.27,95.07,46.23z"/>
	<path class="st16" d="M52.75,7.67c0,0.17,0,0.32,0,0.53c0.11-0.11,0.16-0.17,0.23-0.23c0.45-0.43,0.99-0.48,1.56-0.36
		c0.39,0.09,0.61,0.38,0.7,0.76c0.03,0.14,0.04,0.28,0.04,0.42c0,0.88,0,1.76,0,2.64c0,0.06-0.01,0.13-0.02,0.21
		c-0.33,0-0.65,0-0.99,0c-0.01-0.1-0.02-0.2-0.02-0.3c0-0.67,0-1.35,0-2.02c0-0.13,0-0.26-0.01-0.39c-0.04-0.48-0.41-0.67-0.83-0.42
		c-0.39,0.23-0.55,0.61-0.57,1.04c-0.02,0.53-0.01,1.06-0.02,1.59c0,0.15,0,0.31,0,0.49c-0.35,0-0.68,0-1.03,0c0-1.33,0-2.64,0-3.98
		C52.09,7.67,52.39,7.67,52.75,7.67z"/>
	<path class="st16" d="M60.57,7.66c0.37,0,0.69,0,1.03,0c0,0.73,0,1.44,0,2.15c0,0.17,0,0.34,0.01,0.5c0.04,0.53,0.46,0.73,0.9,0.43
		c0.33-0.23,0.48-0.57,0.5-0.96c0.02-0.36,0.01-0.72,0.02-1.09c0-0.34,0-0.67,0-1.03c0.35,0,0.68,0,1.03,0c0,1.33,0,2.64,0,3.98
		c-0.31,0-0.62,0-0.94,0c-0.01-0.16-0.02-0.32-0.03-0.54c-0.08,0.08-0.12,0.12-0.16,0.17c-0.45,0.48-1.01,0.56-1.61,0.42
		c-0.39-0.09-0.61-0.37-0.7-0.75c-0.02-0.09-0.04-0.18-0.04-0.27C60.57,9.68,60.57,8.68,60.57,7.66z"/>
	<path class="st17" d="M122.42,11.65c0-0.17,0-0.31,0-0.45c-0.03-0.02-0.06-0.05-0.09-0.07c-0.04,0.08-0.07,0.17-0.13,0.23
		c-0.42,0.38-0.92,0.48-1.45,0.33c-0.75-0.21-1.01-1.29-0.44-1.88c0.18-0.19,0.43-0.33,0.68-0.42c0.29-0.1,0.6-0.13,0.91-0.18
		c0.14-0.02,0.28,0,0.41,0c0.05-0.65-0.14-0.87-0.73-0.85c-0.19,0-0.39,0.04-0.58,0.08c-0.19,0.04-0.37,0.1-0.6,0.16
		c-0.03-0.12-0.07-0.23-0.1-0.35c-0.03-0.13-0.05-0.25-0.08-0.4c0.26-0.18,0.58-0.22,0.87-0.25c0.37-0.04,0.75-0.04,1.12-0.01
		c0.69,0.05,1.05,0.42,1.14,1.1c0.02,0.13,0.02,0.26,0.02,0.39c0,0.85,0,1.7,0,2.58C123.08,11.65,122.77,11.65,122.42,11.65z
		 M122.31,9.86c-0.33,0.05-0.63,0.08-0.93,0.16c-0.31,0.09-0.44,0.34-0.37,0.59c0.07,0.26,0.35,0.42,0.66,0.31
		c0.17-0.06,0.34-0.19,0.46-0.33C122.3,10.42,122.36,10.19,122.31,9.86z"/>
	<path class="st12" d="M93.52,11.66c-0.32,0-0.62,0-0.92,0c-0.01-0.16-0.02-0.31-0.03-0.52c-0.32,0.38-0.68,0.58-1.12,0.61
		c-0.59,0.04-1.05-0.2-1.2-0.7c-0.21-0.68,0.01-1.15,0.44-1.44c0.39-0.26,0.83-0.35,1.29-0.39c0.17-0.02,0.33-0.02,0.5-0.03
		c0.06-0.61-0.14-0.86-0.72-0.82c-0.39,0.02-0.78,0.13-1.21,0.2c-0.05-0.22-0.1-0.47-0.16-0.76c0.29-0.07,0.54-0.18,0.81-0.2
		c0.42-0.04,0.86-0.05,1.28-0.01c0.63,0.06,1.03,0.45,1.05,1.05C93.55,9.65,93.52,10.64,93.52,11.66z M92.55,9.97
		c-0.03-0.03-0.06-0.06-0.09-0.1c-0.26,0.03-0.53,0.06-0.79,0.1c-0.09,0.01-0.17,0.05-0.25,0.1c-0.22,0.13-0.3,0.32-0.24,0.55
		c0.06,0.21,0.22,0.32,0.46,0.33c0.27,0.01,0.49-0.1,0.62-0.32C92.39,10.43,92.46,10.19,92.55,9.97z"/>
	<path class="st12" d="M47.65,8.57c-0.05-0.24-0.09-0.48-0.15-0.76c0.24-0.06,0.46-0.15,0.69-0.17c0.46-0.04,0.93-0.08,1.39-0.04
		c0.69,0.06,1.06,0.5,1.07,1.2c0.01,0.7,0.01,1.4,0.01,2.1c0,0.24,0,0.49,0,0.75c-0.31,0-0.62,0-0.94,0
		c-0.01-0.16-0.02-0.31-0.03-0.45c-0.03-0.02-0.06-0.04-0.08-0.07c-0.04,0.08-0.07,0.17-0.13,0.23c-0.42,0.39-0.91,0.48-1.45,0.34
		c-0.74-0.2-1.01-1.24-0.49-1.85c0.21-0.25,0.48-0.4,0.78-0.48c0.21-0.06,0.43-0.11,0.64-0.14c0.2-0.03,0.41-0.03,0.61-0.04
		c0.07-0.6-0.14-0.86-0.71-0.82C48.47,8.39,48.08,8.49,47.65,8.57z M49.66,9.97c-0.03-0.03-0.06-0.06-0.08-0.1
		c-0.26,0.03-0.53,0.06-0.79,0.1c-0.09,0.01-0.17,0.05-0.25,0.1c-0.22,0.13-0.3,0.32-0.24,0.55c0.06,0.21,0.22,0.32,0.46,0.33
		c0.27,0.01,0.49-0.1,0.62-0.32C49.51,10.43,49.57,10.19,49.66,9.97z"/>
	<path class="st12" d="M74.07,11.66c-0.31,0-0.61,0-0.93,0c-0.01-0.16-0.02-0.31-0.03-0.51c-0.08,0.07-0.13,0.12-0.18,0.17
		c-0.32,0.32-0.72,0.45-1.17,0.43c-0.45-0.02-0.81-0.21-0.97-0.65c-0.17-0.46-0.15-0.92,0.21-1.31c0.27-0.29,0.62-0.43,0.99-0.5
		c0.33-0.06,0.66-0.09,1-0.13c0.1-0.53-0.11-0.81-0.65-0.81c-0.21,0-0.41,0.03-0.61,0.07c-0.2,0.04-0.4,0.1-0.64,0.17
		c-0.05-0.25-0.11-0.49-0.17-0.79c0.29-0.08,0.56-0.18,0.83-0.21c0.41-0.04,0.83-0.05,1.24-0.01c0.68,0.07,1.07,0.49,1.08,1.15
		C74.09,9.71,74.07,10.67,74.07,11.66z M73.04,9.88c-0.25,0.02-0.47,0.02-0.68,0.06c-0.15,0.03-0.3,0.08-0.43,0.16
		c-0.2,0.11-0.26,0.32-0.2,0.53c0.06,0.19,0.21,0.3,0.43,0.31c0.27,0.01,0.48-0.09,0.64-0.3C72.97,10.44,73.05,10.21,73.04,9.88z"/>
	<path class="st18" d="M80.42,10.71c0.04,0.29,0.07,0.53,0.11,0.78c-0.71,0.25-1.41,0.34-2.12,0.19c-0.64-0.13-1.05-0.53-1.22-1.17
		c-0.14-0.53-0.15-1.08,0.01-1.61c0.4-1.35,1.67-1.56,2.6-1.2c0.37,0.14,0.61,0.43,0.74,0.8c0.15,0.42,0.16,0.86,0.08,1.33
		c-0.82,0-1.63,0-2.44,0c-0.08,0.64,0.25,1.05,0.86,1.1C79.51,10.97,79.95,10.88,80.42,10.71z M78.19,9.14c0.47,0,0.94,0,1.41,0
		c0-0.53-0.21-0.8-0.63-0.82C78.54,8.29,78.22,8.61,78.19,9.14z"/>
	<path class="st18" d="M101.93,9.85c-0.41,0-0.81,0-1.21,0c-0.4,0-0.8,0-1.2,0c-0.1,0.61,0.24,1.03,0.85,1.08
		c0.46,0.04,0.9-0.05,1.37-0.22c0.04,0.27,0.08,0.52,0.12,0.78c-0.75,0.25-1.48,0.35-2.23,0.16c-0.58-0.15-0.94-0.53-1.1-1.09
		c-0.16-0.56-0.17-1.13,0-1.68c0.41-1.32,1.66-1.52,2.59-1.18c0.4,0.15,0.64,0.47,0.78,0.87C102.01,8.93,102.03,9.37,101.93,9.85z
		 M100.94,9.14c-0.03-0.58-0.27-0.84-0.7-0.82c-0.43,0.02-0.73,0.36-0.7,0.82C100,9.14,100.46,9.14,100.94,9.14z"/>
	<path class="st18" d="M112.88,10.79c0.03,0.21,0.06,0.44,0.1,0.72c-0.86,0.26-1.71,0.4-2.56,0.02c-0.28-0.12-0.48-0.34-0.62-0.62
		c-0.06-0.11-0.11-0.23-0.15-0.36c-0.14-0.55-0.16-1.1,0-1.65c0.41-1.35,1.68-1.55,2.61-1.19c0.36,0.14,0.59,0.41,0.73,0.77
		c0.16,0.43,0.18,0.88,0.09,1.36c-0.82,0-1.63,0-2.44,0c-0.06,0.67,0.27,1.09,0.91,1.09C111.98,10.92,112.41,10.84,112.88,10.79z
		 M112.07,9.14c-0.02-0.56-0.25-0.83-0.68-0.82c-0.43,0.01-0.72,0.33-0.73,0.82C111.12,9.14,111.58,9.14,112.07,9.14z"/>
	<path class="st10" d="M59.66,9.85c-0.85,0-1.65,0-2.45,0c-0.05,0.67,0.28,1.05,0.92,1.08c0.43,0.02,0.85-0.06,1.3-0.22
		c0.04,0.26,0.08,0.51,0.13,0.79c-0.8,0.26-1.58,0.37-2.37,0.11c-0.46-0.15-0.77-0.48-0.92-0.94c-0.21-0.62-0.23-1.25-0.01-1.87
		c0.44-1.26,1.67-1.44,2.57-1.09c0.49,0.19,0.75,0.6,0.82,1.1C59.7,9.13,59.66,9.47,59.66,9.85z M57.19,9.14c0.5,0,0.97,0,1.44,0
		c0.01-0.51-0.2-0.79-0.62-0.82C57.59,8.28,57.29,8.57,57.19,9.14z"/>
	<path class="st15" d="M125.52,8.13c0.08-0.07,0.15-0.13,0.23-0.2c0.47-0.4,1.01-0.46,1.57-0.3c0.44,0.13,0.68,0.51,0.69,1.06
		c0.01,0.54,0,1.09,0,1.63c0,0.43,0,0.85,0,1.31c-0.33,0-0.65,0-1,0c-0.01-0.09-0.02-0.18-0.03-0.28c0-0.69,0-1.37,0-2.06
		c0-0.13,0-0.26-0.02-0.39c-0.07-0.46-0.41-0.63-0.83-0.4c-0.29,0.16-0.45,0.42-0.53,0.73c-0.05,0.21-0.07,0.43-0.08,0.65
		c-0.01,0.47,0,0.93,0,1.4c0,0.11-0.01,0.23-0.02,0.35c-0.34,0-0.66,0-0.99,0c0-1.34,0-2.65,0-3.99c0.31,0,0.62,0,0.95,0
		c0,0.15,0,0.29,0,0.42c0,0.03,0,0.06,0,0.1C125.48,8.17,125.5,8.15,125.52,8.13z"/>
	<path class="st12" d="M105.34,7.66c0.4,0,0.74,0,1.13,0c0.29,0.9,0.59,1.82,0.89,2.76c0.29-0.94,0.58-1.85,0.86-2.76
		c0.38,0,0.72,0,1.11,0c-0.46,1.34-0.91,2.65-1.37,3.99c-0.41,0-0.82,0-1.26,0C106.26,10.34,105.81,9.02,105.34,7.66z"/>
	<path class="st17" d="M66.43,45.3c0,2.21,0,4.39,0,6.61c-0.55,0-1.09,0-1.67,0c0-2.19,0-4.38,0-6.61
		C65.31,45.3,65.84,45.3,66.43,45.3z"/>
	<path class="st12" d="M103.04,8.45c-0.24,0-0.44,0-0.67,0c0-0.26,0-0.5,0-0.79c0.2-0.01,0.41-0.02,0.66-0.03c0-0.4,0-0.8,0-1.23
		c0.34-0.09,0.66-0.18,1.03-0.29c0.01,0.51,0.02,1.01,0.03,1.52c0.33,0,0.63,0,0.94,0c0,0.27,0,0.51,0,0.79c-0.29,0-0.59,0-0.93,0
		c-0.01,0.12-0.03,0.2-0.03,0.29c0,0.54-0.01,1.09,0.02,1.63c0.02,0.46,0.11,0.53,0.58,0.52c0.1,0,0.21,0,0.35,0
		c0.01,0.12,0.02,0.24,0.03,0.37c0.01,0.13,0.01,0.26,0.02,0.42c-0.49,0.1-0.97,0.16-1.46,0.03c-0.27-0.08-0.44-0.28-0.5-0.55
		c-0.05-0.2-0.07-0.41-0.07-0.61c-0.01-0.56,0-1.11,0-1.67C103.04,8.72,103.04,8.6,103.04,8.45z"/>
	<path class="st12" d="M65.37,7.65c0-0.45,0-0.85,0-1.26c0.34-0.09,0.66-0.18,1.03-0.28c0,0.52,0,1.01,0,1.52c0.34,0,0.63,0,0.95,0
		c0,0.28,0,0.52,0,0.81c-0.31,0-0.62,0-0.93,0c0,0.69-0.01,1.35,0.01,2.01c0.01,0.32,0.13,0.4,0.44,0.41c0.14,0,0.28,0,0.47,0
		c0.02,0.24,0.04,0.49,0.07,0.78c-0.51,0.1-1,0.17-1.5,0.02c-0.27-0.08-0.42-0.3-0.48-0.56c-0.04-0.19-0.06-0.38-0.06-0.58
		c-0.01-0.56,0-1.11,0-1.67c0-0.13,0-0.25,0-0.4c-0.24,0-0.44,0-0.67,0c0-0.27,0-0.52,0-0.8C64.9,7.65,65.11,7.65,65.37,7.65z"/>
	<path class="st18" d="M116.79,10.84c0.34,0.03,0.64,0.08,0.93,0.09c0.12,0,0.26-0.03,0.37-0.09c0.27-0.15,0.28-0.46,0.03-0.64
		c-0.09-0.07-0.21-0.11-0.31-0.15c-0.17-0.07-0.34-0.13-0.51-0.2c-0.87-0.35-0.82-1.52-0.2-1.94c0.2-0.14,0.43-0.24,0.67-0.29
		c0.42-0.09,0.85-0.06,1.28,0c0,0.28,0,0.53,0,0.8c-0.24-0.02-0.45-0.05-0.66-0.06c-0.13-0.01-0.26,0-0.38,0.04
		c-0.14,0.04-0.25,0.13-0.27,0.3c-0.02,0.16,0.03,0.28,0.17,0.36c0.11,0.07,0.23,0.12,0.35,0.17c0.17,0.07,0.33,0.14,0.5,0.21
		c0.86,0.36,0.78,1.47,0.23,1.9c-0.12,0.09-0.26,0.18-0.4,0.24c-0.6,0.26-1.21,0.21-1.86,0.09
		C116.74,11.37,116.76,11.1,116.79,10.84z"/>
	<path class="st17" d="M9.64,7.64C9.59,7.3,9.54,7.01,9.48,6.67c0.68-0.25,1.33-0.6,2.11-0.46c0.08,0.27,0.12,4.37,0.04,5.4
		c-0.27,0.08-0.62,0.09-1.05,0.02c0-1.42,0-2.85,0-4.34C10.25,7.42,9.96,7.53,9.64,7.64z"/>
	<path class="st19" d="M75.21,5.77c0.25,0,0.5,0,0.74,0c0.09,0,0.18,0.02,0.26,0.03c0,1.95,0,3.89,0,5.85c-0.34,0-0.66,0-1,0
		C75.21,9.7,75.21,7.76,75.21,5.77z"/>
	<path class="st8" d="M36.19,5.79c0.33,0,0.65,0,0.98,0c0,1.95,0,3.89,0,5.85c-0.32,0-0.64,0-0.98,0
		C36.19,9.7,36.19,7.76,36.19,5.79z"/>
	<path class="st11" d="M28.89,6.47c-1.36,1.8-2.7,3.57-4.06,5.37c-0.22-0.15-0.42-0.3-0.66-0.46c1.35-1.8,2.69-3.57,4.06-5.39
		C28.44,6.15,28.65,6.3,28.89,6.47z"/>
	<path class="st15" d="M69.25,11.65c-0.35,0-0.66,0-1.01,0c0-1.33,0-2.64,0-4.01c0.15,0,0.3,0,0.45,0c0.15,0,0.31,0,0.48,0
		c0,0.2,0,0.37,0,0.57c0.19-0.18,0.35-0.37,0.54-0.51c0.19-0.14,0.42-0.17,0.68-0.14c0,0.31,0,0.62,0,0.94
		c-0.08,0.01-0.14,0.03-0.2,0.03c-0.47,0.03-0.7,0.17-0.82,0.63c-0.08,0.32-0.11,0.66-0.13,1C69.24,10.65,69.25,11.14,69.25,11.65z"
		/>
	<path class="st15" d="M114.95,8.3c0.31-0.51,0.66-0.79,1.22-0.74c0,0.32,0,0.63,0,0.93c-0.05,0.02-0.09,0.04-0.12,0.04
		c-0.59,0.03-0.86,0.24-0.94,0.82c-0.06,0.43-0.06,0.88-0.08,1.32c-0.01,0.32,0,0.64,0,0.98c-0.35,0-0.67,0-1.01,0
		c0-1.33,0-2.65,0-3.99c0.3,0,0.61,0,0.93,0C114.95,7.85,114.95,8.02,114.95,8.3z"/>
	<path class="st15" d="M83.7,7.56c0,0.34,0,0.64,0,0.95c-0.8,0.09-1,0.28-1.09,1.07c-0.05,0.49-0.04,0.98-0.05,1.47
		c0,0.19,0,0.39,0,0.6c-0.34,0-0.66,0-1,0c0-1.32,0-2.64,0-3.98c0.29,0,0.59,0,0.92,0c0,0.17,0,0.34,0,0.61
		C82.8,7.81,83.14,7.5,83.7,7.56z"/>
	<path class="st11" d="M28.16,9.2c0.71,0.01,1.12,0.41,1.15,1.13c0.04,0.99-0.72,1.61-1.67,1.38c-0.23-0.06-0.44-0.17-0.57-0.37
		c-0.3-0.47-0.33-0.98-0.09-1.48C27.22,9.38,27.63,9.17,28.16,9.2z M27.6,10.43c0.03,0.14,0.04,0.23,0.06,0.32
		c0.07,0.25,0.18,0.35,0.39,0.35c0.21,0,0.36-0.09,0.41-0.33c0.04-0.21,0.02-0.43,0-0.64c-0.02-0.15-0.14-0.24-0.29-0.27
		c-0.17-0.03-0.32,0.01-0.41,0.16C27.69,10.15,27.65,10.31,27.6,10.43z"/>
	<path class="st10" d="M26.22,7.32c0.06,0.9-0.75,1.63-1.75,1.27c-0.19-0.07-0.38-0.23-0.5-0.4c-0.31-0.45-0.25-1.25,0.1-1.67
		c0.33-0.4,0.93-0.55,1.45-0.36C25.99,6.32,26.22,6.7,26.22,7.32z M24.56,7.35c0.02,0.15,0.02,0.24,0.04,0.33
		c0.06,0.22,0.22,0.37,0.4,0.36c0.2-0.01,0.36-0.14,0.39-0.32c0.04-0.24,0.04-0.49-0.01-0.72c-0.02-0.1-0.18-0.21-0.3-0.25
		c-0.16-0.06-0.31,0.03-0.39,0.18C24.62,7.07,24.59,7.24,24.56,7.35z"/>
	<path class="st9" d="M38.37,7.66c0.33,0,0.64,0,0.98,0c0,1.33,0,2.65,0,3.99c-0.32,0-0.64,0-0.98,0C38.37,10.32,38.37,9,38.37,7.66
		z"/>
	<path class="st18" d="M66.66,43.26c0,0.58-0.47,1.05-1.06,1.05c-0.58,0.01-1.08-0.47-1.08-1.04c0-0.56,0.49-1.05,1.07-1.06
		C66.18,42.21,66.65,42.68,66.66,43.26z"/>
	<path class="st13" d="M39.51,6.43c0,0.35-0.3,0.62-0.66,0.62c-0.37,0-0.65-0.28-0.64-0.63c0.01-0.35,0.3-0.62,0.66-0.62
		C39.23,5.8,39.52,6.08,39.51,6.43z"/>
	<path class="st20" d="M62.1,17.73c-0.06-0.03-0.12-0.05-0.18-0.08c0.24-0.1,0.49-0.2,0.73-0.29c0.03,0.03,0.07,0.06,0.1,0.1
		C62.54,17.54,62.32,17.64,62.1,17.73z"/>
	<path class="st21" d="M62.75,17.45c-0.03-0.03-0.07-0.06-0.1-0.1c0.24-0.09,0.47-0.18,0.71-0.28c0.01,0.03,0.03,0.06,0.04,0.09
		C63.19,17.26,62.97,17.36,62.75,17.45z"/>
	<path class="st22" d="M15.77,38.29c2.27,0,4.48,0,6.69,0c0.1,1.13,0.16,2.27,0.31,3.39c0.14,1.11,0.37,2.22,0.57,3.35
		c-0.09,0-0.21,0-0.32,0c-1.65,0-3.29-0.01-4.94,0.01c-0.27,0-0.41-0.09-0.54-0.32c-0.93-1.73-1.51-3.57-1.7-5.53
		C15.82,38.9,15.8,38.62,15.77,38.29z"/>
	<path class="st22" d="M37.27,45.03c0.57-2.23,0.84-4.46,0.89-6.73c2.25,0,4.47,0,6.71,0c0.06,0.41-0.02,0.81-0.07,1.2
		c-0.22,1.84-0.78,3.58-1.67,5.22c-0.13,0.24-0.28,0.32-0.54,0.32c-1.65-0.01-3.29-0.01-4.94-0.01
		C37.53,45.03,37.42,45.03,37.27,45.03z"/>
	<path class="st1" d="M15.75,37.18c0.07-0.62,0.11-1.2,0.2-1.77c0.27-1.65,0.8-3.21,1.61-4.67c0.11-0.19,0.22-0.28,0.45-0.28
		c1.68,0.01,3.37,0.01,5.05,0.01c0.09,0,0.18,0.01,0.32,0.02c-0.55,2.2-0.84,4.42-0.87,6.69C20.26,37.18,18.05,37.18,15.75,37.18z"
		/>
	<path class="st1" d="M44.86,37.17c-2.22,0-4.43,0-6.67,0c-0.02-0.11-0.04-0.22-0.05-0.33c-0.04-1.78-0.24-3.54-0.61-5.28
		c-0.02-0.08-0.01-0.18,0.01-0.26c0.07-0.26,0.15-0.52,0.24-0.8c0.1-0.01,0.2-0.03,0.3-0.03c1.52,0,3.03,0,4.55-0.01
		c0.24,0,0.37,0.08,0.48,0.29c0.95,1.74,1.53,3.59,1.71,5.56c0.02,0.24,0.04,0.49,0.06,0.74C44.88,37.08,44.87,37.11,44.86,37.17z"
		/>
	<path class="st22" d="M30.89,45c0-2.25,0-4.46,0-6.7c2.05,0,4.09,0,6.17,0c-0.02,2.27-0.3,4.5-0.89,6.7C34.41,45,32.67,45,30.89,45
		z"/>
	<path class="st22" d="M24.5,45c-0.6-2.2-0.86-4.42-0.89-6.7c2.07,0,4.1,0,6.16,0c0,2.23,0,4.45,0,6.67
		C29.49,45.04,25.32,45.07,24.5,45z"/>
	<path class="st22" d="M29.77,37.17c-2.06,0-4.1,0-6.16,0c0.02-2.02,0.24-3.99,0.71-6c1.51,1.57,3.43,2.13,5.45,2.48
		C29.77,34.83,29.77,35.99,29.77,37.17z"/>
	<path class="st22" d="M37.07,37.17c-2.09,0-4.12,0-6.17,0c0-1.13,0-2.23,0-3.37c0.06-0.01,0.12-0.02,0.18-0.01
		c1.61,0.11,3.21,0.09,4.81-0.1c0.3-0.04,0.37-0.08,0.36-0.38c-0.01-0.28-0.04-0.57-0.12-0.84c-0.16-0.53-0.36-1.05-0.54-1.58
		c-0.04-0.12-0.09-0.24-0.15-0.4c0.26,0,0.48,0,0.73,0C36.77,32.67,37.03,34.89,37.07,37.17z"/>
	<path class="st22" d="M30.95,46.13c1.61,0,3.21,0,4.85,0c-0.03,0.12-0.05,0.21-0.08,0.31c-0.51,1.44-1.17,2.8-2.14,3.98
		c-0.52,0.64-1.11,1.19-1.87,1.55c-0.24,0.11-0.5,0.2-0.76,0.29C30.85,51.88,30.86,46.41,30.95,46.13z"/>
	<path class="st22" d="M24.88,46.13c1.65,0,3.25,0,4.88,0c0,2.04,0,4.06,0,6.11c-0.47-0.08-0.87-0.28-1.26-0.52
		c-0.65-0.42-1.18-0.97-1.64-1.58c-0.88-1.16-1.48-2.46-1.96-3.82C24.89,46.26,24.89,46.21,24.88,46.13z"/>
	<path class="st22" d="M18.46,46.13c1.78,0,3.51,0,5.26,0c0.35,1.05,0.75,2.07,1.27,3.05c0.52,0.96,1.13,1.85,1.92,2.64
		c-0.73,0.06-3.28-1.03-4.73-2.01C20.72,48.81,19.16,47.28,18.46,46.13z"/>
	<path class="st22" d="M36.95,46.13c1.77,0,3.49,0,5.22,0c-0.25,0.72-2.15,2.64-3.64,3.65c-1.45,0.99-3.02,1.69-4.75,2.08
		C35.33,50.22,36.25,48.25,36.95,46.13z"/>
	<path class="st23" d="M29.1,22.22c0.83,0.5,1.56,1.12,2.28,1.75c0.64,0.56,1.27,1.15,1.9,1.72c0.07,0.06,0.13,0.12,0.25,0.23
		c0.2-1.24,0.32-2.43,0.5-3.62c0.03,0,0.06-0.01,0.09-0.01c0.04,0.19,0.1,0.38,0.11,0.58c0.04,1.01,0.07,2.02,0.1,3.03
		c0.01,0.3-0.01,0.6-0.02,0.89c-0.01,0.17,0.02,0.3,0.18,0.39c0.02,0.01,0.04,0.03,0.06,0.05c0.72,0.5,1.01,1.26,1.24,2.05
		c0.01,0.02-0.01,0.05-0.02,0.11c-0.23,0-0.48,0.01-0.72-0.01c-0.08-0.01-0.18-0.1-0.22-0.18c-0.14-0.25-0.28-0.5-0.38-0.76
		c-0.09-0.22-0.26-0.3-0.47-0.35c-0.7-0.14-1.4-0.27-2.1-0.41c-0.31-0.06-0.62-0.12-0.93-0.2c0.84,0.06,1.67,0.06,2.61,0.02
		c-1.47-1.86-3.03-3.52-4.57-5.19C29.02,22.28,29.06,22.25,29.1,22.22z"/>
	<path class="st24" d="M21.91,25.87c0.26,1.25,0.68,2.37,1.24,3.49c-1.58,0-3.11,0-4.72,0C19.41,27.98,20.54,26.85,21.91,25.87z"/>
	<path class="st24" d="M38.12,29.34c0.23-1.12,0.46-2.24,0.71-3.41c1.32,0.94,2.43,2.06,3.38,3.38
		C41.9,29.4,38.54,29.42,38.12,29.34z"/>
	<path class="st21" d="M29.1,22.22c-0.04,0.03-0.07,0.06-0.11,0.09c-0.08-0.07-0.16-0.15-0.24-0.22c0.02-0.02,0.03-0.05,0.05-0.07
		C28.89,22.09,28.99,22.15,29.1,22.22z"/>
	<path class="st25" d="M88.16,47.37c0-1.04,0-2.01,0-3.04c0.61-0.07,1.21-0.08,1.78,0.22c0.12,0.06,0.22,0.17,0.31,0.27
		c0.71,0.89,0.18,2.35-0.94,2.53C88.95,47.42,88.58,47.37,88.16,47.37z"/>
	<path class="st25" d="M102.33,48.62c-0.08,0.35-0.14,0.75-0.28,1.12c-0.23,0.59-0.76,0.9-1.34,0.87c-0.64-0.03-1.06-0.37-1.26-1.03
		c-0.18-0.59-0.2-1.18-0.05-1.78c0.22-0.85,0.89-1.3,1.72-1.17c0.51,0.08,0.84,0.38,1,0.85C102.23,47.83,102.26,48.21,102.33,48.62z
		"/>
	<path class="st26" d="M82.96,48.99c0.02,0.58-0.14,1.05-0.54,1.42c-0.26,0.24-0.57,0.36-0.93,0.33c-0.35-0.03-0.58-0.21-0.68-0.53
		c-0.1-0.31-0.02-0.62,0.24-0.83c0.11-0.08,0.23-0.16,0.36-0.2C81.9,49.02,82.4,48.96,82.96,48.99z"/>
	<path class="st25" d="M113.93,47.78c-0.81,0-1.59,0-2.37,0c0.02-0.83,0.59-1.41,1.31-1.37C113.58,46.45,113.97,46.94,113.93,47.78z
		"/>
	<path class="st25" d="M15.61,8.89c0.02,0.48,0,0.96-0.19,1.41c-0.15,0.34-0.38,0.58-0.79,0.58c-0.32,0-0.57-0.13-0.69-0.41
		c-0.11-0.24-0.2-0.51-0.23-0.77c-0.07-0.58-0.09-1.16,0.05-1.74c0.05-0.21,0.13-0.43,0.24-0.6c0.35-0.53,1.08-0.5,1.36,0.07
		c0.14,0.28,0.19,0.61,0.25,0.93C15.64,8.52,15.61,8.71,15.61,8.89z"/>
	<path class="st25" d="M20.46,9.09c-0.07,0.32-0.13,0.78-0.27,1.22c-0.11,0.36-0.39,0.57-0.79,0.56c-0.29,0-0.5-0.12-0.65-0.36
		c-0.08-0.13-0.14-0.28-0.18-0.43c-0.18-0.75-0.19-1.51,0-2.27c0.05-0.18,0.13-0.37,0.24-0.52c0.36-0.48,1.03-0.43,1.32,0.09
		c0.1,0.19,0.17,0.41,0.21,0.62C20.41,8.33,20.42,8.64,20.46,9.09z"/>
	<path class="st27" d="M131.53,8.43c-0.03,0.56-0.03,1.06-0.1,1.56c-0.03,0.23-0.15,0.47-0.3,0.65c-0.35,0.42-0.93,0.29-1.09-0.23
		c-0.15-0.48-0.14-0.97,0.03-1.45c0.14-0.38,0.43-0.58,0.83-0.59C131.08,8.37,131.27,8.41,131.53,8.43z"/>
	<path class="st27" d="M87.25,8.86c0-0.61,0-1.2,0-1.81c0.49-0.01,1-0.12,1.3,0.39c0.22,0.37,0.19,0.78-0.05,1.14
		C88.29,8.9,87.87,8.99,87.25,8.86z"/>
	<path class="st5" d="M95.07,46.23c-0.03,0.04-0.06,0.09-0.14,0.21c0.02-0.16,0.03-0.23,0.04-0.3C95,46.17,95.03,46.2,95.07,46.23z"
		/>
	<path class="st26" d="M122.31,9.86c0.05,0.33-0.02,0.56-0.18,0.74c-0.12,0.14-0.29,0.27-0.46,0.33c-0.31,0.1-0.59-0.05-0.66-0.31
		c-0.07-0.25,0.06-0.51,0.37-0.59C121.68,9.93,121.99,9.91,122.31,9.86z"/>
	<path class="st27" d="M92.55,9.97c-0.09,0.22-0.16,0.46-0.28,0.66c-0.13,0.22-0.36,0.33-0.62,0.32c-0.25-0.01-0.41-0.12-0.46-0.33
		c-0.06-0.23,0.02-0.43,0.24-0.55c0.08-0.04,0.16-0.08,0.25-0.1c0.26-0.04,0.53-0.07,0.79-0.1C92.49,9.91,92.52,9.94,92.55,9.97z"/>
	<path class="st27" d="M49.66,9.97c-0.09,0.22-0.16,0.46-0.28,0.66c-0.13,0.22-0.36,0.33-0.62,0.32c-0.25-0.01-0.41-0.12-0.46-0.33
		c-0.06-0.23,0.02-0.42,0.24-0.55c0.08-0.04,0.16-0.08,0.25-0.1c0.26-0.04,0.53-0.07,0.79-0.1C49.61,9.91,49.63,9.94,49.66,9.97z"/>
	<path class="st27" d="M73.04,9.88c0.01,0.32-0.07,0.56-0.24,0.77c-0.16,0.2-0.37,0.31-0.64,0.3c-0.23-0.01-0.38-0.12-0.43-0.31
		c-0.06-0.21,0-0.42,0.2-0.53c0.13-0.08,0.28-0.13,0.43-0.16C72.56,9.9,72.78,9.9,73.04,9.88z"/>
	<path class="st26" d="M78.19,9.14c0.03-0.52,0.35-0.84,0.79-0.82c0.42,0.02,0.63,0.29,0.63,0.82C79.14,9.14,78.66,9.14,78.19,9.14z
		"/>
	<path class="st26" d="M100.94,9.14c-0.48,0-0.94,0-1.4,0c-0.03-0.46,0.27-0.81,0.7-0.82C100.67,8.3,100.91,8.56,100.94,9.14z"/>
	<path class="st26" d="M112.07,9.14c-0.49,0-0.95,0-1.41,0c0.01-0.49,0.3-0.82,0.73-0.82C111.82,8.31,112.05,8.58,112.07,9.14z"/>
	<path class="st26" d="M57.19,9.14c0.1-0.57,0.39-0.85,0.82-0.82c0.41,0.03,0.63,0.31,0.62,0.82C58.16,9.14,57.69,9.14,57.19,9.14z"
		/>
	<path class="st5" d="M125.52,8.13c-0.02,0.02-0.03,0.04-0.05,0.05c0-0.03,0-0.06,0-0.1C125.49,8.1,125.5,8.12,125.52,8.13z"/>
	<path class="st28" d="M27.6,10.43c0.04-0.11,0.08-0.28,0.16-0.42c0.08-0.15,0.24-0.19,0.41-0.16c0.15,0.03,0.27,0.12,0.29,0.27
		c0.02,0.21,0.04,0.44,0,0.64c-0.05,0.24-0.2,0.34-0.41,0.33c-0.21,0-0.33-0.1-0.39-0.35C27.64,10.66,27.63,10.57,27.6,10.43z"/>
	<path class="st28" d="M24.56,7.35c0.03-0.1,0.06-0.27,0.13-0.42c0.07-0.15,0.22-0.24,0.39-0.18c0.12,0.04,0.28,0.15,0.3,0.25
		c0.05,0.23,0.05,0.49,0.01,0.72C25.36,7.9,25.2,8.03,25,8.04c-0.18,0.01-0.34-0.14-0.4-0.36C24.58,7.59,24.58,7.5,24.56,7.35z"/>
</g>
</svg>
