<?xml version="1.0" encoding="utf-8"?>
<svg version="1.1"
	 xmlns="http://www.w3.org/2000/svg" xmlns:xlink="http://www.w3.org/1999/xlink" x="0px" y="0px" width="141.7px" height="60.2px"
	 viewBox="0 0 141.7 60.2" style="enable-background:new 0 0 141.7 60.2;" xml:space="preserve">
<style type="text/css">
	.st0{fill:#FFFFFF;}
	.st1{fill:#DFE0E1;}
	.st2{fill:#263C7F;}
	.st3{fill:#179BD7;}
</style>
<g>
	<g>
		<path class="st0" d="M2.8,59.7c-1.3,0-2.3-1-2.3-2.3V2.8c0-1.3,1-2.3,2.3-2.3h136.1c1.3,0,2.3,1,2.3,2.3v54.6c0,1.3-1,2.3-2.3,2.3
			H2.8z"/>
		<path class="st1" d="M138.9,1c1,0,1.8,0.8,1.8,1.8v54.6c0,1-0.8,1.8-1.8,1.8H2.8c-1,0-1.8-0.8-1.8-1.8V2.8C1,1.8,1.8,1,2.8,1
			H138.9 M138.9,0H2.8C1.2,0,0,1.3,0,2.8v54.6c0,1.6,1.3,2.8,2.8,2.8h136.1c1.6,0,2.8-1.3,2.8-2.8V2.8C141.7,1.2,140.4,0,138.9,0
			L138.9,0z"/>
	</g>
	<g>
		<path class="st2" d="M24.8,14h-9.4c-0.6,0-1.2,0.5-1.3,1.1l-3.8,24.1c-0.1,0.5,0.3,0.9,0.8,0.9h4.5c0.6,0,1.2-0.5,1.3-1.1l1-6.5
			c0.1-0.6,0.6-1.1,1.3-1.1h3c6.2,0,9.8-3,10.7-8.9c0.4-2.6,0-4.6-1.2-6.1C30.4,14.8,28,14,24.8,14z M25.9,22.8
			c-0.5,3.4-3.1,3.4-5.6,3.4h-1.4l1-6.3c0.1-0.4,0.4-0.7,0.8-0.7h0.7c1.7,0,3.3,0,4.1,1C26,20.7,26.1,21.6,25.9,22.8z"/>
		<path class="st2" d="M53,22.7h-4.5c-0.4,0-0.7,0.3-0.8,0.7l-0.2,1.3l-0.3-0.5c-1-1.4-3.2-1.9-5.3-1.9c-5,0-9.2,3.8-10.1,9.1
			c-0.4,2.6,0.2,5.2,1.7,6.9c1.4,1.6,3.3,2.3,5.7,2.3c4,0,6.2-2.6,6.2-2.6l-0.2,1.3c-0.1,0.5,0.3,0.9,0.8,0.9h4.1
			c0.6,0,1.2-0.5,1.3-1.1l2.4-15.5C53.8,23.1,53.5,22.7,53,22.7z M46.7,31.4c-0.4,2.6-2.5,4.3-5.1,4.3c-1.3,0-2.4-0.4-3-1.2
			c-0.7-0.8-0.9-1.9-0.7-3.2c0.4-2.6,2.5-4.3,5.1-4.3c1.3,0,2.3,0.4,3,1.2C46.6,29.1,46.9,30.2,46.7,31.4z"/>
		<path class="st2" d="M77,22.7h-4.5c-0.4,0-0.8,0.2-1.1,0.6l-6.2,9.2l-2.6-8.8c-0.2-0.6-0.7-0.9-1.3-0.9h-4.5c-0.5,0-0.9,0.5-0.7,1
			l5,14.6L56.4,45c-0.4,0.5,0,1.2,0.6,1.2h4.5c0.4,0,0.8-0.2,1.1-0.6l15.1-21.7C78,23.4,77.6,22.7,77,22.7z"/>
		<path class="st3" d="M92,14h-9.4c-0.6,0-1.2,0.5-1.3,1.1l-3.8,24.1c-0.1,0.5,0.3,0.9,0.8,0.9h4.8c0.4,0,0.8-0.3,0.9-0.8l1.1-6.8
			c0.1-0.6,0.6-1.1,1.3-1.1h3c6.2,0,9.8-3,10.7-8.9c0.4-2.6,0-4.6-1.2-6.1C97.5,14.8,95.1,14,92,14z M93.1,22.8
			c-0.5,3.4-3.1,3.4-5.6,3.4h-1.4l1-6.3c0.1-0.4,0.4-0.7,0.8-0.7h0.7c1.7,0,3.3,0,4.1,1C93.1,20.7,93.3,21.6,93.1,22.8z"/>
		<path class="st3" d="M120.1,22.7h-4.5c-0.4,0-0.7,0.3-0.8,0.7l-0.2,1.3l-0.3-0.5c-1-1.4-3.2-1.9-5.3-1.9c-5,0-9.2,3.8-10.1,9.1
			c-0.4,2.6,0.2,5.2,1.7,6.9c1.4,1.6,3.3,2.3,5.7,2.3c4,0,6.2-2.6,6.2-2.6l-0.2,1.3c-0.1,0.5,0.3,0.9,0.8,0.9h4.1
			c0.6,0,1.2-0.5,1.3-1.1l2.4-15.4C121,23.1,120.6,22.7,120.1,22.7z M113.8,31.4c-0.4,2.6-2.5,4.3-5.1,4.3c-1.3,0-2.4-0.4-3-1.2
			c-0.7-0.8-0.9-1.9-0.7-3.2c0.4-2.6,2.5-4.3,5.1-4.3c1.3,0,2.3,0.4,3,1.2C113.8,29.1,114,30.2,113.8,31.4z"/>
		<path class="st3" d="M125.4,14.6l-3.9,24.6c-0.1,0.5,0.3,0.9,0.8,0.9h3.9c0.6,0,1.2-0.5,1.3-1.1l3.8-24.1c0.1-0.5-0.3-0.9-0.8-0.9
			h-4.3C125.8,14,125.5,14.2,125.4,14.6z"/>
	</g>
</g>
</svg>
