<?xml version="1.0" encoding="utf-8"?>
<!-- Generator: Adobe Illustrator 22.0.1, SVG Export Plug-In . SVG Version: 6.00 Build 0)  -->
<svg version="1.1" id="Ebene_1" xmlns="http://www.w3.org/2000/svg" xmlns:xlink="http://www.w3.org/1999/xlink" x="0px" y="0px"
	 width="141.7px" height="60.2px" viewBox="0 0 141.7 60.2" style="enable-background:new 0 0 141.7 60.2;" xml:space="preserve">
<style type="text/css">
	.st0{fill:#FECC04;}
	.st1{fill:#D4102B;}
	.st2{fill:#DFE0E1;}
</style>
<g>
	<polygon class="st0" points="141,0.8 141,59.5 0.8,59.5 0.8,0.8 	"/>
	<path class="st1" d="M46.1,27.6c-0.6,0.8-1.6,2.3-2.2,3.1c-0.3,0.4-0.9,1.2,1,1.2c2,0,9.9,0,9.9,0s1.6-2.2,2.9-4
		c1.8-2.5,0.2-7.6-6.4-7.6c-5.8,0-25.7,0-25.7,0l-4.4,6c0,0,23.1,0,24.3,0S46.7,26.7,46.1,27.6z M38.8,33.4c-1.9,0-1.3-0.8-1-1.2
		c0.6-0.8,1.7-2.3,2.3-3.1s0.6-1.3-0.6-1.3c-1.2,0-11.1,0-11.1,0L19.5,40c0,0,16,0,21.8,0c7.2,0,11.2-4.9,12.5-6.6
		C53.7,33.4,40.8,33.4,38.8,33.4z M53,39.9h12.8l4.9-6.6H57.9C57.8,33.4,53,39.9,53,39.9z M86,20.2l-4.9,6.7h-5.7l4.9-6.7H67.5
		l-8.6,11.6h31.3l8.6-11.6H86z M71.5,39.9h12.8l4.9-6.6H76.3C76.3,33.4,71.5,39.9,71.5,39.9z M1.1,36v1.4h17.8l1-1.4H1.1z
		 M21.9,33.4H1.1v1.4h19.7L21.9,33.4z M1.1,39.9H17l1-1.4H1.1V39.9z M121.8,37.4h18.8V36h-17.8L121.8,37.4z M119.9,39.9h20.7v-1.4
		h-19.7L119.9,39.9z M124.7,33.4l-1,1.4h16.9v-1.4H124.7z M108,31.9l8.6-11.6H103l-8.6,11.6H108z M93.3,33.4c0,0-0.9,1.3-1.4,1.9
		C90.3,37.5,91.7,40,97,40c6.1,0,20.6,0,20.6,0l4.9-6.6L93.3,33.4L93.3,33.4z"/>
	<g>
		<path class="st2" d="M138.9,1c1,0,1.8,0.8,1.8,1.8v54.6c0,1-0.8,1.8-1.8,1.8H2.8c-1,0-1.8-0.8-1.8-1.8V2.8C1,1.8,1.8,1,2.8,1
			H138.9 M138.9,0H2.8C1.2,0,0,1.3,0,2.8v54.6c0,1.6,1.3,2.8,2.8,2.8h136.1c1.6,0,2.8-1.3,2.8-2.8V2.8C141.7,1.2,140.4,0,138.9,0
			L138.9,0z"/>
	</g>
</g>
</svg>
