<?xml version="1.0" encoding="utf-8"?>
<!-- Generator: Adobe Illustrator 22.1.0, SVG Export Plug-In . SVG Version: 6.00 Build 0)  -->
<svg version="1.1" id="Ebene_1_Kopie_Kopie_Kopie" xmlns="http://www.w3.org/2000/svg" xmlns:xlink="http://www.w3.org/1999/xlink"
	 x="0px" y="0px" viewBox="0 0 170.1 70.9" style="enable-background:new 0 0 170.1 70.9;" xml:space="preserve">
<style type="text/css">
	.st0{fill:#FFFFFF;}
	.st1{fill:#DFE0E1;}
	.st2{fill:#0498BA;}
	.st3{fill:#0598BA;}
</style>
<g>
	<path class="st0" d="M17,65.4c-1.3,0-2.3-1-2.3-2.3V8.5c0-1.3,1-2.3,2.3-2.3h136.1c1.3,0,2.3,1,2.3,2.3v54.6c0,1.3-1,2.3-2.3,2.3
		H17z"/>
	<path class="st1" d="M153.1,6.7c1,0,1.8,0.8,1.8,1.8v54.6c0,1-0.8,1.8-1.8,1.8H17c-1,0-1.8-0.8-1.8-1.8V8.5c0-1,0.8-1.8,1.8-1.8
		H153.1 M153.1,5.7H17c-1.6,0-2.8,1.3-2.8,2.8v54.6c0,1.6,1.3,2.8,2.8,2.8h136.1c1.6,0,2.8-1.3,2.8-2.8V8.5
		C155.9,6.9,154.6,5.7,153.1,5.7L153.1,5.7z"/>
</g>
<g>
	<path class="st2" d="M24.3,29c1.7,0,3.3,0,5,0c0.3,0,0.3,0.1,0.3,0.4c0,0.3,0,0.6,0,0.9c0.1,0,0.1,0,0.2,0
		c3.5-3.1,8.9-1.9,10.5,2.5c1.2,3.1,1,6.2-1.3,8.8c-2.4,2.8-6.9,2.9-9.2,1.1c0,0-0.1,0-0.2-0.1c0,1.7,0,3.3,0,5c-1.6,0-3.2,0-4.8,0
		c-0.4,0-0.5,0-0.5-0.5C24.3,41.1,24.3,35,24.3,29z M29.4,36.2c0,1.7,1.2,3,2.9,3c1.6,0,2.9-1.2,2.9-2.8c0-1.9-1.1-3.1-2.8-3.2
		C30.7,33.2,29.5,34.4,29.4,36.2z"/>
	<path class="st2" d="M146.5,43.5c-1.5-0.1-3,0-4.5,0c-0.2,0-0.3,0-0.5,0c-0.3,0-0.4-0.1-0.4-0.4c0-0.3,0-0.6,0-0.9
		c-0.3,0.3-0.5,0.5-0.8,0.7c-2.5,1.8-6.4,1.4-8.6-0.9c-2.6-2.9-2.6-8.1,0-11c2.4-2.6,6.9-3,9.2-1.1c0,0,0.1,0,0.2,0.1
		c0-1.3,0-2.5,0-3.8c0-0.4,0.1-0.5,0.5-0.5c1.4-0.3,2.8-0.5,4.2-0.8c0.1,0,0.2,0,0.2-0.1c0.3-0.1,0.4,0.1,0.4,0.4
		C146.5,31.1,146.5,37.3,146.5,43.5z M135.5,36.2c0,1.8,1.2,3,2.9,3c1.7,0,2.9-1.2,2.9-3c0-1.7-1.2-2.9-2.9-2.9
		C136.7,33.2,135.5,34.4,135.5,36.2z"/>
	<path class="st2" d="M109.5,28.5c1.6,0,3,0.3,4.3,0.8c3.1,1.3,4.7,4.1,4.4,7.4c-0.3,4-3,6.3-6.6,6.9c-2.1,0.4-4.2,0.2-6.2-0.6
		c-3.1-1.3-4.5-4-4.4-7.2c0.2-4.6,3.6-6.7,7.2-7.2C108.7,28.5,109.2,28.5,109.5,28.5z M106.6,36.2c0,1.7,1.3,3,2.9,3
		c1.7,0,2.9-1.2,2.9-3c0-1.8-1.2-3-2.9-3C107.8,33.2,106.6,34.4,106.6,36.2z"/>
	<path class="st2" d="M50.5,28.5c2.2,0.1,4.3,0.6,6,2c1.5,1.2,2.2,2.8,2.4,4.7c0.2,2.1-0.2,4.1-1.6,5.8c-1.2,1.4-2.8,2.2-4.7,2.6
		c-2.2,0.5-4.3,0.3-6.3-0.5c-3.4-1.4-4.8-4.4-4.4-7.7c0.4-3.7,3-6,6.5-6.7C49,28.6,49.7,28.5,50.5,28.5z M50.4,33.2
		c-1.7,0-2.9,1.2-3,3c0,1.7,1.3,3,2.9,3c1.7,0,2.9-1.2,2.9-2.9C53.3,34.5,52.1,33.2,50.4,33.2z"/>
	<path class="st3" d="M90.3,30.2c1.8-1.7,3.8-2,6-1.4c2,0.5,2.9,2,3.3,4c0.1,0.5,0.1,1,0.1,1.6c0,2.9,0,5.7,0,8.6
		c0,0.4-0.1,0.5-0.5,0.5c-1.5,0-2.9,0-4.4,0c-0.4,0-0.5-0.1-0.5-0.5c0-2.4,0-4.8,0-7.2c0-0.2,0-0.5-0.1-0.7c-0.2-1.3-0.8-1.7-2-1.7
		c-1.2,0-1.9,0.7-2,1.9c-0.1,1.3,0,2.7,0,4c0,1.2,0,2.5,0,3.7c0,0.4-0.1,0.5-0.5,0.5c-1.5,0-3,0-4.5,0c-0.3,0-0.4-0.1-0.4-0.4
		c0-4.5,0-9.1,0-13.6c0-0.4,0.1-0.4,0.5-0.4c1.5,0,2.9,0,4.4,0c0.4,0,0.6,0.1,0.5,0.5C90.2,29.7,90.2,29.9,90.3,30.2z"/>
	<path class="st3" d="M67.2,28.5c1.8,0.1,3.4,0.2,5,0.6c0.3,0.1,0.4,0.2,0.3,0.5c-0.3,1.1-0.5,2.1-0.7,3.2c-0.1,0.4-0.2,0.4-0.6,0.3
		c-1.7-0.5-3.3-0.8-5.1-0.6c-0.1,0-0.3,0.1-0.4,0.1c-0.3,0.1-0.6,0.3-0.6,0.6c0,0.4,0.3,0.5,0.6,0.6c1.1,0.3,2.3,0.3,3.5,0.6
		c0.6,0.2,1.2,0.3,1.8,0.6c1.6,0.7,2.3,2,2.2,3.7c-0.1,2.1-1.1,3.4-2.9,4.2c-1.5,0.6-3,0.8-4.6,0.8c-2,0-3.9-0.2-5.8-0.8
		c-0.3-0.1-0.4-0.2-0.3-0.5c0.3-1.1,0.6-2.3,0.9-3.4c0.1-0.4,0.2-0.4,0.5-0.3c1.8,0.7,3.6,1.1,5.5,0.9c0.3,0,0.5-0.1,0.7-0.2
		c0.3-0.1,0.4-0.3,0.4-0.6c0-0.3-0.2-0.5-0.5-0.6c-0.6-0.2-1.2-0.3-1.8-0.4c-1.1-0.1-2.1-0.3-3.2-0.7c-2.9-1.2-3.5-4.9-1.1-7
		c1.3-1.1,2.9-1.5,4.6-1.7C66.2,28.5,66.7,28.5,67.2,28.5z"/>
	<path class="st3" d="M74.2,34.6c0-2.8,0-5.6,0-8.4c0-0.4,0.1-0.5,0.5-0.5c1.5,0,3,0,4.4,0c0.4,0,0.5,0.1,0.5,0.5c0,0.8,0,1.6,0,2.3
		c0,0.3,0.1,0.4,0.4,0.4c1.3,0,2.7,0,4,0c0.4,0,0.5,0.1,0.3,0.4c-0.7,1.3-1.4,2.5-2.1,3.8c-0.1,0.2-0.3,0.3-0.5,0.3
		c-0.6,0-1.1,0-1.7,0c-0.4,0-0.5,0.1-0.5,0.5c0,2.9,0,5.9,0,8.8c0,0.7,0,0.7-0.7,0.7c-1.4,0-2.8,0-4.2,0c-0.4,0-0.5-0.1-0.5-0.5
		C74.2,40.1,74.2,37.3,74.2,34.6z"/>
	<path class="st2" d="M124.7,30.5c1.2-1.6,2.8-1.9,4.6-1.7c0.3,0,0.5,0.1,0.5,0.5c-0.1,1.4-0.1,2.7-0.1,4.1c0,0.3-0.1,0.4-0.4,0.3
		c-0.6-0.2-1.2-0.2-1.9-0.2c-1.8,0.1-2.6,1.1-2.6,2.8c0,2.1,0,4.3,0,6.4c0,0.4-0.1,0.6-0.5,0.6c-1.4,0-2.9,0-4.3,0
		c-0.3,0-0.5,0-0.5-0.4c0-4.5,0-9.1,0-13.6c0-0.3,0.1-0.4,0.4-0.4c1.5,0,3,0,4.5,0c0.3,0,0.4,0.1,0.4,0.4
		C124.7,29.7,124.7,30.1,124.7,30.5z"/>
</g>
</svg>
