<?xml version="1.0" encoding="utf-8"?>
<svg version="1.1" xmlns="http://www.w3.org/2000/svg" xmlns:xlink="http://www.w3.org/1999/xlink" x="0px" y="0px"
	 width="141.7px" height="60.2px" viewBox="0 0 141.7 60.2" style="enable-background:new 0 0 141.7 60.2;" xml:space="preserve">
<style type="text/css">
	.st0{fill:#FFFFFF;}
	.st1{fill:#DFE0E1;}
	.st2{fill:#005098;}
	.st3{fill:#F7A600;}
</style>
<g>
	<g>
		<path class="st0" d="M2.8,59.7c-1.3,0-2.3-1-2.3-2.3V2.8c0-1.3,1-2.3,2.3-2.3h136.1c1.3,0,2.3,1,2.3,2.3v54.6c0,1.3-1,2.3-2.3,2.3
			H2.8z"/>
		<path class="st1" d="M138.9,1c1,0,1.8,0.8,1.8,1.8v54.6c0,1-0.8,1.8-1.8,1.8H2.8c-1,0-1.8-0.8-1.8-1.8V2.8C1,1.8,1.8,1,2.8,1
			H138.9 M138.9,0H2.8C1.2,0,0,1.3,0,2.8v54.6c0,1.6,1.3,2.8,2.8,2.8h136.1c1.6,0,2.8-1.3,2.8-2.8V2.8C141.7,1.2,140.4,0,138.9,0
			L138.9,0z"/>
	</g>
	<g>
		<polygon class="st2" points="52.5,48.5 58.8,11.7 68.8,11.7 62.6,48.5 		"/>
		<path class="st2" d="M99,12.6c-2-0.7-5.1-1.5-9-1.5c-9.9,0-16.9,5-17,12.1c-0.1,5.3,5,8.2,8.8,10c3.9,1.8,5.2,3,5.2,4.6
			c0,2.5-3.1,3.6-6,3.6c-4,0-6.1-0.6-9.4-1.9l-1.3-0.6l-1.5,8.2c2.3,1,6.7,1.9,11.2,2c10.5,0,17.4-4.9,17.5-12.6
			c0-4.2-2.6-7.4-8.4-10c-3.5-1.7-5.7-2.8-5.6-4.6c0-1.5,1.8-3.2,5.7-3.2c3.3-0.1,5.7,0.7,7.5,1.4l0.9,0.4L99,12.6"/>
		<path class="st2" d="M124.7,11.8h-7.8c-2.4,0-4.2,0.7-5.3,3.1L96.8,48.6h10.5c0,0,1.7-4.5,2.1-5.5c1.2,0,11.4,0,12.9,0
			c0.3,1.3,1.2,5.5,1.2,5.5h9.3L124.7,11.8 M112.3,35.5c0.8-2.1,4-10.3,4-10.3c-0.1,0.1,0.8-2.1,1.3-3.5l0.7,3.2
			c0,0,1.9,8.8,2.3,10.6C120.6,35.5,112.3,35.5,112.3,35.5z"/>
		<path class="st2" d="M44.1,11.8l-9.8,25.1l-1-5.1c-1.8-5.9-7.5-12.3-13.9-15.4l9,32.2H39l15.8-36.7H44.1"/>
		<path class="st3" d="M25.2,11.7H9l-0.1,0.8c12.6,3,20.9,10.4,24.4,19.3l-3.5-16.9C29.1,12.5,27.4,11.8,25.2,11.7"/>
	</g>
</g>
</svg>
