<?xml version="1.0" encoding="utf-8"?>
<!-- Generator: Adobe Illustrator 22.0.1, SVG Export Plug-In . SVG Version: 6.00 Build 0)  -->
<svg version="1.1" id="Ebene_1" xmlns="http://www.w3.org/2000/svg" xmlns:xlink="http://www.w3.org/1999/xlink" x="0px" y="0px"
	 width="141.7px" height="60.2px" viewBox="0 0 141.7 60.2" style="enable-background:new 0 0 141.7 60.2;" xml:space="preserve">
<style type="text/css">
	.st0{fill:#FFFFFF;}
	.st1{fill:#DFE0E1;}
	.st2{fill:#2F180F;}
	.st3{fill:#FBB914;}
</style>
<g>
	<g>
		<path class="st0" d="M2.8,59.7c-1.3,0-2.3-1-2.3-2.3V2.8c0-1.3,1-2.3,2.3-2.3h136.1c1.3,0,2.3,1,2.3,2.3v54.6c0,1.3-1,2.3-2.3,2.3
			H2.8z"/>
		<path class="st1" d="M138.9,1c1,0,1.8,0.8,1.8,1.8v54.6c0,1-0.8,1.8-1.8,1.8H2.8c-1,0-1.8-0.8-1.8-1.8V2.8C1,1.8,1.8,1,2.8,1
			H138.9 M138.9,0H2.8C1.2,0,0,1.3,0,2.8v54.6c0,1.6,1.3,2.8,2.8,2.8h136.1c1.6,0,2.8-1.3,2.8-2.8V2.8C141.7,1.2,140.4,0,138.9,0
			L138.9,0z"/>
	</g>
	<g transform="matrix(1.25 0 0 -1.25 -47.372 728.76)">
		<g transform="translate(.36060 .36060)">
			<path class="st2" d="M78.5,566.1l0.1-16.3l3.7-4.5l11-5.8l13.5,6.6l2.8,6.7l-0.3,21.6l-10.2,0.3L88.5,573l-9.7-5.6L78.5,566.1z"
				/>
			<path class="st3" d="M94.2,577.9c-6.4,0-12-1.2-16.6-3.7v-19.5c0-4.1,1.5-7.5,4.5-9.9c2.7-2.2,11.1-5.9,12.1-6.3
				c1,0.4,9.5,4.1,12.1,6.3c2.9,2.4,4.5,5.8,4.5,9.9v19.5C106.1,576.6,100.6,577.9,94.2,577.9L94.2,577.9z M103.6,574.1
				c1.9,0,3.8-0.1,5.6-0.3v-19.1c0-3.7-1.3-6.6-3.9-8.8c-2.3-1.9-9.2-5-11.2-5.8c-2,0.9-8.9,4-11.2,5.8c-2.6,2.1-3.9,5.1-3.9,8.8
				v11.2C86.5,572.6,95.4,574.2,103.6,574.1L103.6,574.1z M94.6,565.2c-1.6,0-2.8-0.4-3.9-1v-18.8h2.9v6.1c0.3-0.1,0.7-0.2,1.3-0.2
				c3.2,0,5,2.9,5,7.1C99.9,562.6,98,565.2,94.6,565.2L94.6,565.2z M104.5,565.2c-1.9-0.1-3.9-1.4-3.9-3.8c0-1.5,0.4-2.7,2.8-4.1
				c1.3-0.7,1.8-1.2,1.8-2.1c0-1-0.7-1.6-1.7-1.6c-0.9,0-2,0.5-2.8,1.2v-2.7c0.9-0.5,2-0.9,3.2-0.9c2.9,0,4.1,2,4.2,3.9
				c0.1,1.7-0.4,3-2.8,4.4c-1.1,0.6-1.9,1-1.9,2.1c0,1,0.9,1.4,1.7,1.4c1,0,2-0.6,2.6-1.2v2.5C107.1,564.7,106,565.3,104.5,565.2
				L104.5,565.2z M80.6,564.9v-9.1c0-3.1,1.4-4.6,4.3-4.6c1.8,0,3.2,0.4,4.3,1.2v12.5h-2.9V554c-0.3-0.2-0.8-0.4-1.4-0.4
				c-1.3,0-1.5,1.2-1.5,2v9.2L80.6,564.9L80.6,564.9z M94.6,562.9c1.7,0,2.4-1.3,2.4-4.6c0-3.2-0.8-4.7-2.5-4.7
				c-0.4,0-0.7,0.1-0.9,0.2v8.9C93.8,562.8,94.2,562.9,94.6,562.9L94.6,562.9z"/>
		</g>
	</g>
</g>
</svg>
