<?xml version="1.0" encoding="utf-8"?>
<!-- Generator: Adobe Illustrator 22.0.1, SVG Export Plug-In . SVG Version: 6.00 Build 0)  -->
<svg version="1.1" id="Ebene_1" xmlns="http://www.w3.org/2000/svg" xmlns:xlink="http://www.w3.org/1999/xlink" x="0px" y="0px"
	 width="12px" height="12px" viewBox="0 0 12 12" style="enable-background:new 0 0 12 12;" xml:space="preserve">
<style type="text/css">
	.st0{fill:#424242;}
</style>
<g>
	<path class="st0" d="M6,12c1.3,0,2.6-0.4,3.7-1.2C7.6,7.5,8.2,6,8.8,4.4c0.4-0.9,0.7-1.9,0.7-3.3C8.5,0.4,7.3,0,6,0
		C4.3,0,2.6,0.7,1.5,2C0.8,4.1,1.2,5.1,1.8,6.3c0.5,1.1,1.1,2.3,0.9,4.6C3.7,11.6,4.8,12,6,12z"/>
	<path class="st0" d="M0.8,6.4C0.6,5.9,0.3,5.3,0.2,4.6C0.1,5.1,0,5.5,0,6c0,1.4,0.6,2.9,1.6,4.1C1.8,8.5,1.3,7.5,0.8,6.4z"/>
	<path class="st0" d="M9.9,4.3c-0.8,1.6-1.5,3.1,0.7,5.6C11.5,8.8,12,7.4,12,6c0-1.4-0.5-2.8-1.4-3.8C10.5,2.9,10.2,3.6,9.9,4.3z"/>
</g>
</svg>
