<svg width="145" height="234" viewBox="0 0 145 234" fill="none" xmlns="http://www.w3.org/2000/svg">
<path d="M139 104.095C139 131.766 131.178 156.559 118.842 174.272C106.49 192.006 90.0113 202.19 72.5 202.19C54.9887 202.19 38.5096 192.006 26.1583 174.272C13.8216 156.559 6 131.766 6 104.095C6 76.4235 13.8216 51.6308 26.1583 33.9178C38.5096 16.1839 54.9887 6 72.5 6C90.0113 6 106.49 16.1839 118.842 33.9178C131.178 51.6308 139 76.4235 139 104.095Z" stroke="#949494" stroke-width="12"/>
<path d="M38 148.861L65.16 142.43L46.5859 120.332L38 148.861ZM113 75.5092L85.84 81.9402L104.414 104.039L113 75.5092ZM55.6942 135.043L98.5229 93.1552L95.3058 89.3276L52.4771 131.215L55.6942 135.043Z" fill="#949494"/>
<line y1="-5" x2="54.2809" y2="-5" transform="matrix(0.718485 -0.695542 0.63956 0.768741 59 134.838)" stroke="#949494" stroke-width="10"/>
<path d="M86.5 198.482C86.5 206.226 81.299 212.505 75.5 212.505C69.701 212.505 65 206.226 65 198.482C65 190.737 69.701 184.998 75.5 184.998C81.299 184.998 86.5 190.737 86.5 198.482Z" fill="white"/>
<path d="M60 196.324L62.6303 203.875L63.3866 208.729L63.3866 213.757L62.6303 232.411" stroke="#949494" stroke-width="11"/>
<path d="M92 193.628L89.5 208.19L88 216.819L87 233" stroke="#949494" stroke-width="11"/>
</svg>
