<!DOCTYPE svg PUBLIC "-//W3C//DTD SVG 1.1//EN" "http://www.w3.org/Graphics/SVG/1.1/DTD/svg11.dtd">
<!-- Uploaded to: SVG Repo, www.svgrepo.com, Transformed by: SVG Repo Mixer Tools -->
<svg height="76px" width="76px" version="1.1" id="_x32_" xmlns="http://www.w3.org/2000/svg" xmlns:xlink="http://www.w3.org/1999/xlink" viewBox="0 0 512 512" xml:space="preserve" fill="#484747">
<g id="SVGRepo_bgCarrier" stroke-width="0"/>
<g id="SVGRepo_tracerCarrier" stroke-linecap="round" stroke-linejoin="round"/>
<g id="SVGRepo_iconCarrier"> <style type="text/css"> .st0{fill:#484747;} </style> <g> <path class="st0" d="M441.479,402.522c-12.527-18.759-31.554-29.133-49.435-35.873c-8.968-3.374-17.731-5.862-25.452-7.974 c-7.706-2.098-14.412-3.867-18.917-5.561c-7.878-2.928-16.202-6.719-22.01-10.799c-2.9-2.022-5.135-4.107-6.431-5.883 c-1.31-1.816-1.666-3.072-1.68-4.168c0-7.576,0-17.045,0-29.517c10.08-11.218,24.56-28.598,30.512-56.154 c2.078-0.933,4.135-1.996,6.116-3.374c4.93-3.401,9.113-8.344,12.658-15.064c3.565-6.747,6.726-15.373,10.099-27.172 c1.708-5.979,2.496-11.176,2.496-15.804c0.007-5.334-1.09-9.963-3.106-13.72c-1.241-2.345-2.839-4.162-4.518-5.705 c3.394-25.404,9.057-92.357-21.68-111.308c5.869-14.419,5.787-29.73-6.781-42.298c-10.786-3.593-35.935-3.593-55.702-8.988 C267.879-2.238,178.038-7.62,151.085,49.879c-26.59,7.089-31.327,115.127-13.734,119.276c-0.555,0.775-1.2,1.412-1.673,2.304 c-2.016,3.757-3.119,8.385-3.112,13.72c0.007,4.628,0.796,9.825,2.502,15.804c4.512,15.714,8.585,25.863,13.858,33.309 c2.633,3.696,5.636,6.664,8.899,8.927c1.982,1.378,4.038,2.44,6.116,3.374c5.952,27.556,20.432,44.937,30.511,56.154 c0,12.472,0,21.941,0,29.517c0,0.932-0.37,2.276-1.817,4.196c-2.118,2.852-6.514,6.308-11.732,9.236 c-5.204,2.962-11.19,5.526-16.428,7.371c-6.15,2.18-16.058,4.45-27.159,7.631c-16.681,4.827-36.401,11.773-52.445,25.534 c-8.008,6.877-15.043,15.516-19.987,26.254c-4.95,10.73-7.788,23.484-7.782,38.403c0,3.463,0.151,7.042,0.466,10.744 c0.227,2.598,1.214,4.703,2.372,6.438c2.208,3.25,5.136,5.656,8.804,8.132c6.425,4.25,15.325,8.406,26.72,12.486 c34.104,12.163,90.568,23.299,160.538,23.312c56.848,0,104.83-7.378,139.078-16.648c17.135-4.642,30.813-9.729,40.7-14.81 c4.95-2.557,8.954-5.087,12.129-7.857c1.591-1.398,2.982-2.866,4.155-4.614c1.152-1.735,2.146-3.84,2.372-6.438 c0.309-3.696,0.46-7.268,0.46-10.717C454.925,431.025,449.816,414.994,441.479,402.522z M166.156,141.255l26.253-37.471 c14.379,5.389,91.638,7.185,114.998-3.593c4.779-2.208,10.388-5.938,16.024-10.703c2.249,2.187,3.744,3.518,3.744,3.518 l11.025,69.456l-76.807,9.606l-2.153,7.185h-6.473l-2.152-7.185l-84.658-10.586L166.156,141.255z M178.175,239.646l-0.782-4.422 l-4.223-1.508c-2.688-0.96-4.738-1.94-6.528-3.182c-2.64-1.865-5.033-4.409-7.83-9.62c-2.763-5.184-5.691-12.932-8.893-24.17 c-1.406-4.909-1.906-8.728-1.906-11.566c0.007-3.292,0.637-5.218,1.282-6.431c0.274-0.501,0.582-0.905,0.905-1.255l2.256,0.377 c8.296,9.365,13.117,23.065,13.117,23.065l0.206-20.844l5.773,0.96l12.575,28.749l48.517,3.592l21.564-21.564h3.593l21.564,21.564 l48.516-3.592l12.576-28.749l0.678-0.116l4.011,25.273l7.2-27.138l9.462-1.577c0.315,0.356,0.617,0.733,0.898,1.255 c0.652,1.213,1.275,3.14,1.289,6.431c0,2.839-0.501,6.658-1.906,11.566c-4.258,15.003-8.077,23.724-11.58,28.565 c-1.755,2.447-3.36,3.976-5.142,5.224c-1.79,1.241-3.84,2.221-6.527,3.182l-4.224,1.508l-0.782,4.422 c-4.943,27.68-19.205,43.244-29.737,54.976l-1.981,2.208v2.962c0,6.13,0,11.423,0,16.25l-44.705,25.547l-47.515-27.145 c0-4.423,0-9.174,0-14.652v-2.962l-1.982-2.208C197.38,282.89,183.119,267.326,178.175,239.646z M235.016,420.781l-56.394-56.764 c5.45-2.386,11.018-5.246,16.002-8.708c3.902-2.728,7.474-5.786,10.312-9.51c2.804-3.675,4.958-8.276,4.958-13.534 c0-1.529,0-3.208,0-4.889l33.274,19.02l-8.796,18.732l9.016,11.868L235.016,420.781z M256.003,495.236 c-4.443,0-8.056-3.6-8.056-8.05c0-4.45,3.613-8.056,8.056-8.056c4.45,0,8.05,3.606,8.05,8.056 C264.053,491.636,260.453,495.236,256.003,495.236z M256.003,456.044c-4.443,0-8.056-3.6-8.056-8.05 c0-4.443,3.613-8.057,8.056-8.057c4.45,0,8.05,3.614,8.05,8.057C264.053,452.444,260.453,456.044,256.003,456.044z M279.069,418.807l-8.194-41.811l9.024-11.868l-8.626-18.52l30.841-17.628c0,1.097,0,2.256,0,3.284 c-0.014,5.094,1.968,9.668,4.676,13.322c4.114,5.512,9.819,9.592,16.03,13.158c3.415,1.941,7.001,3.648,10.607,5.231 L279.069,418.807z"/> </g> </g>
</svg>