<!DOCTYPE svg PUBLIC "-//W3C//DTD SVG 1.1//EN" "http://www.w3.org/Graphics/SVG/1.1/DTD/svg11.dtd">
<!-- Uploaded to: SVG Repo, www.svgrepo.com, Transformed by: SVG Repo Mixer Tools -->
<svg fill="#302f2f" width="76px" height="76px" viewBox="0 0 32.00 32.00" version="1.1" xmlns="http://www.w3.org/2000/svg" stroke="#302f2f" stroke-width="0.736" transform="rotate(0)">
<g id="SVGRepo_bgCarrier" stroke-width="0"/>
<g id="SVGRepo_tracerCarrier" stroke-linecap="round" stroke-linejoin="round"/>
<g id="SVGRepo_iconCarrier"> <title>double-team</title> <path d="M15.474 1.384c-1.851 0.24-3.295 2.252-3.295 4.679 0 1.344 0.461 2.545 1.171 3.401-3.849 0.723-4.14 7.203-4.14 11.753h2.669l0.708 9.494h6.781l0.626-9.494h2.533c0-4.562 0.092-11.156-4.112-11.807 0.68-0.852 1.117-2.035 1.117-3.346 0-2.589-1.65-4.679-3.677-4.679-0.127 0-0.258-0.016-0.381 0l0-0zM21.163 1.355c2.027 0 3.681 2.075 3.681 4.665 0 1.311-0.45 2.501-1.13 3.353 4.204 0.651 4.118 7.245 4.118 11.807h-2.514l-0.656 9.511h-3.936l0.619-9.511h2.551c0-4.562 0.086-11.156-4.118-11.807 0.68-0.851 1.13-2.041 1.13-3.353 0-1.662-0.69-3.106-1.713-3.936 0.472-0.389 0.98-0.653 1.567-0.729 0.123-0.016 0.274 0 0.401 0zM12.542 2.084c-1.017 0.838-1.713 2.278-1.713 3.936 0 1.345 0.456 2.57 1.166 3.426-3.849 0.723-4.118 7.185-4.118 11.734h2.66l0.692 9.511h-3.936l-0.692-9.511h-2.697c0-4.549 0.306-11.011 4.154-11.734-0.71-0.856-1.166-2.081-1.166-3.426 0-2.427 1.429-4.424 3.28-4.665 0.123-0.016 0.274 0 0.401 0 0.726 0 1.397 0.266 1.968 0.729z"/> </g>
</svg>