<!DOCTYPE svg PUBLIC "-//W3C//DTD SVG 1.1//EN" "http://www.w3.org/Graphics/SVG/1.1/DTD/svg11.dtd">
<!-- Uploaded to: SVG Repo, www.svgrepo.com, Transformed by: SVG Repo Mixer Tools -->
<svg fill="#484747" height="76px" width="76px" version="1.1" id="Layer_1" xmlns="http://www.w3.org/2000/svg" xmlns:xlink="http://www.w3.org/1999/xlink" viewBox="0 0 511.999 511.999" xml:space="preserve">
<g id="SVGRepo_bgCarrier" stroke-width="0"/>
<g id="SVGRepo_tracerCarrier" stroke-linecap="round" stroke-linejoin="round"/>
<g id="SVGRepo_iconCarrier"> <g> <g> <path d="M498.928,100.433L268.481,29.704c-3.129-0.96-6.466-0.989-9.61-0.084L14.864,99.874C6.107,100.919,0,108.306,0,116.586 v285.001c0,7.51,4.968,14.113,12.183,16.196l220.831,63.722c3.505,1.601,7.4,1.959,11.122,1.021l255.128-64.337 c7.488-1.888,12.735-8.623,12.735-16.344V116.843C512,109.136,506.742,102.234,498.928,100.433z M263.381,63.403l168.933,51.849 l-13.57,3.422L254.641,65.921L263.381,63.403z M196.859,82.557l159.323,51.893l-34.399,8.674l-166.28-48.66L196.859,82.557z M401.095,158.434v23.733l-63.323,16.269v-24.162L401.095,158.434z M164.402,203.305c-2.618-0.769-5.318-1.157-8.027-1.157 c-15.661,0-28.402,12.754-28.402,28.43v37.142c0,12.528,8.396,23.743,20.417,27.273l38.117,11.189 c18.311,5.377,36.429-8.446,36.429-27.273l0.024,164.604L33.713,388.906V139.251l189.247,54.609l-0.024,47.909 c0-12.529-8.396-23.743-20.417-27.273L164.402,203.305z M189.224,245.729v26.115l-27.538-8.083v-26.115L189.224,245.729z M240.589,163.601L78.165,116.732l16.834-4.847l162.308,47.5L240.589,163.601z M478.287,388.71L478.287,388.71l-221.415,55.835 V194.314l47.188-11.9v20.174c0,19.971,18.839,34.477,38.08,29.534l72.485-18.623c11.884-3.053,20.183-13.755,20.183-26.024 v-38.033l43.479-10.965V388.71z"/> </g> </g> <g> <g> <path d="M426.595,255.066l-56.28,14.719c-13.099,3.29-22.247,15.02-22.247,28.526v68.199c0,20.054,18.883,34.36,37.923,29.574 l54.119-14.176c13.58-3.412,23.063-15.573,23.063-29.574v-68.742C463.173,264.2,444.913,250.464,426.595,255.066z M429.46,349.823 l-47.678,12.558v-60.717l47.678-12.558V349.823z"/> </g> </g> </g>
</svg>