<!DOCTYPE svg PUBLIC "-//W3C//DTD SVG 1.1//EN" "http://www.w3.org/Graphics/SVG/1.1/DTD/svg11.dtd">
<!-- Uploaded to: SVG Repo, www.svgrepo.com, Transformed by: SVG Repo Mixer Tools -->
<svg height="76px" width="76px" version="1.1" id="_x32_" xmlns="http://www.w3.org/2000/svg" xmlns:xlink="http://www.w3.org/1999/xlink" viewBox="0 0 512 512" xml:space="preserve" fill="#000000" transform="rotate(0)">
<g id="SVGRepo_bgCarrier" stroke-width="0"/>
<g id="SVGRepo_tracerCarrier" stroke-linecap="round" stroke-linejoin="round"/>
<g id="SVGRepo_iconCarrier"> <style type="text/css"> .st0{fill:#484747;} </style> <g> <path class="st0" d="M507.316,119.933c-6.746-27.334-21.252-52.624-41.815-73.186l-0.105-0.105l-0.088-0.079 c-0.008-0.017-0.026-0.026-0.035-0.035l-0.235-0.227l-0.009,0.009c-18.43-18.395-40.11-31.669-64.116-39.158 c-15.196-4.736-31.188-7.139-47.573-7.139c-2.184,0-4.404,0.043-6.658,0.14l-0.761,0.026l0.804-0.026 c-26.95,1.04-54.145,8.301-80.728,21.322c-26.102,12.75-50.579,30.577-72.784,52.773c-38.817,38.834-63.015,87.22-67.698,136.786 c-0.515,5.532-0.778,11.124-0.778,16.708c0,3.688,0.149,7.366,0.367,11.063c-1.643,33.478-8.966,64.291-21.698,91.826 c-10.539,22.826-24.975,43.772-42.916,62.325l-2.866,2.875c-4.885,4.902-13.782,13.466-27.571,26.985 c-9.928,9.7-18.421,18.002-20.615,20.204c-1.738,1.748-3.95,4.282-5.881,7.839c-1.923,3.521-3.557,8.188-3.557,13.641 c-0.079,7.995,3.775,16.595,11.063,23.734l19.479,19.479l0.822-0.83c5.261,3.304,10.828,5.156,16.158,5.103 c5.47,0,10.137-1.643,13.649-3.565c3.548-1.94,6.091-4.142,7.848-5.899c2.281-2.263,10.487-10.687,20.187-20.57l0.017-0.009 c13.406-13.72,21.908-22.555,26.871-27.509l2.928-2.884l-0.061,0.053c16.341-15.878,38.668-30.446,64.325-41.631 c28.112-12.242,58.602-20.012,90.725-23.017c2.919,0.166,5.881,0.262,8.87,0.27c18.771-0.035,38.538-2.91,54.268-7.637 c36.458-11.037,71.369-31.538,100.616-60.786c19.688-19.706,35.977-41.273,48.351-64.195c9.315-17.241,16.254-35.033,20.588-52.895 c3.513-14.506,5.296-28.881,5.296-43.003C512,145.503,510.445,132.518,507.316,119.933z M51.909,485.324l-0.044,0.044l-2.272,1.748 l-2.071,0.603c-0.76-0.07-2.464-0.009-6.528-3.906l-1.932-1.896l-2.106-2.089l-8.022-8.005l-0.699-0.708 c-3.994-4.124-3.906-5.855-3.977-6.615l0.612-2.072l1.738-2.28l0.018-0.018c1.162-1.171,5.278-5.208,10.574-10.382l25.054,25.063 C57.073,480.09,53.054,484.214,51.909,485.324z M73.519,463.303l-1.625,1.66c-0.402,0.42-0.761,0.778-1.154,1.18l-24.87-24.879 c0.393-0.376,0.752-0.717,1.135-1.11c5.2-5.095,9.482-9.263,13.336-13.021l32.097,16.752 C87.72,448.717,81.576,455.036,73.519,463.303z M102.069,434.194l-0.682,0.681l-31.913-16.656c2.054-2.001,3.862-3.792,5.33-5.261 l2.901-2.91l0.079-0.078l0.044-0.043c5.243-5.409,10.189-11.064,14.89-16.857l26.478,26.486 C113.106,424.249,107.321,429.108,102.069,434.194z M483.136,195.978c-3.818,15.686-9.97,31.582-18.359,47.101 c-11.169,20.685-26.007,40.408-44.166,58.576c-26.426,26.408-57.902,44.838-90.489,54.713c-12.863,3.915-31.066,6.624-47.241,6.589 c-2.901,0.009-5.724-0.07-8.433-0.236l-0.288-0.027l-0.743-0.035l-0.909,0.062l-0.227,0.026h-0.087 c-34.737,3.207-67.926,11.613-98.599,24.993c-16.114,7.043-30.944,15.424-44.392,24.678l-29.117-29.126 c9.814-13.362,18.412-27.492,25.342-42.47c14.165-30.647,22.162-64.684,23.926-101.046l0.009-0.279v-0.577v-0.42l-0.026-0.393 c-0.236-3.443-0.341-6.904-0.341-10.364c0-4.841,0.227-9.674,0.673-14.436c4.029-43.169,25.412-86.627,60.69-121.905 c20.501-20.492,42.829-36.667,66.3-48.132c23.926-11.718,47.783-17.967,71.019-18.884l0.76-0.035l-0.717,0.035 c1.852-0.078,3.723-0.114,5.619-0.114c14.017,0,27.545,2.045,40.346,6.038c20.318,6.344,38.52,17.46,54.451,33.399l0.105,0.096 l0.157,0.149c17.547,17.565,29.746,38.957,35.374,61.799c2.639,10.661,3.968,21.646,3.968,32.954 C487.742,170.793,486.23,183.236,483.136,195.978z"/> <polygon class="st0" points="11.064,488.251 11.064,488.234 10.356,487.535 "/> <path class="st0" d="M177.528,334.686c-5.532-5.531-10.591-11.648-15.048-18.194l-2.683-3.923l-1.363,4.535 c-3.347,11.133-7.463,21.986-12.216,32.264c-5.112,11.063-11.16,21.864-17.95,32.088l3.084,3.172 c10.574-6.563,21.995-12.532,33.967-17.765c10.164-4.448,20.877-8.407,31.862-11.754l4.631-1.408l-4.054-2.647 C190.364,346.213,183.557,340.69,177.528,334.686z"/> <path class="st0" d="M318.351,53.922c0.035-0.009,0.07-0.009,0.096-0.018l1.478-0.358L318.351,53.922z"/> <path class="st0" d="M431.822,86.203v-0.358l-2.839-2.84c-14.717-14.716-32.238-24.826-51.646-29.642 c-8.922-2.237-18.124-3.32-27.518-3.312c-10.259,0-20.763,1.319-31.372,3.853l-0.122,0.035 c-13.519,3.286-27.046,8.582-40.251,15.704c-18.019,9.735-35.051,22.598-50.676,38.223c-22.58,22.598-38.878,49.312-46.97,77.486 c-3.792,13.186-5.698,26.416-5.706,39.35c0,13.187,2.001,26.05,6.038,38.188c5.356,16.088,14.165,30.419,26.05,42.312 c11.885,11.885,26.216,20.693,42.313,26.05l0.131,0.035c12.06,3.976,24.826,5.976,38.031,5.976c4.133,0,8.328-0.192,12.566-0.576 c37.524-3.53,74.384-22.178,104.296-52.091c17.591-17.574,31.626-36.859,41.631-57.299c9.831-20.064,15.319-40.4,16.088-60.358 c0.052-1.6,0.079-3.172,0.079-4.763c0-11.64-1.67-22.974-5.025-33.678C452.018,112.821,443.41,98.629,431.822,86.203z M438.403,134.282c1.862,5.943,2.866,12.226,3.47,18.658l-16.822,16.822l-37.375-37.384l31.38-31.39 C428.048,111.047,434.584,122.136,438.403,134.282z M254.086,173.405l35.471-35.462l37.384,37.385l-35.479,35.453L254.086,173.405z M282.575,219.677l-33.329,33.347l-37.367-37.384l33.321-33.337L282.575,219.677z M298.453,129.039l34.038-34.037l37.384,37.376 l-34.028,34.045L298.453,129.039z M335.846,184.206l37.366,37.394l-35.462,35.47l-37.375-37.392L335.846,184.206z M344.742,175.329 l34.037-34.038l37.367,37.376l-34.028,34.037L344.742,175.329z M357.587,69.914c5.13,0.402,10.181,1.066,15.058,2.272 c13.798,3.451,26.224,10.216,37.428,19.985l-31.294,31.31l-37.375-37.375L357.587,69.914z M339.604,70.088l-7.113,7.113 l-5.209-5.217C331.45,71.146,335.557,70.482,339.604,70.088z M287.294,86.709c8.651-4.666,17.364-8.074,26.033-10.87l10.267,10.268 l-34.046,34.028l-21.357-21.366C274.448,94.339,280.792,90.213,287.294,86.709z M241.118,121.594 c5.479-5.488,11.177-10.452,16.962-15.135l22.582,22.58L245.2,164.501l-21.978-21.986 C228.552,135.244,234.486,128.218,241.118,121.594z M199.077,190.708c3.678-12.846,9.42-25.499,16.944-37.576l20.274,20.273 l-33.33,33.33l-6.046-6.056C197.6,197.367,198.116,194.064,199.077,190.708z M199.164,256.763 c-2.516-7.602-3.784-15.712-4.412-24.022l8.214-8.232l37.385,37.385l-24.416,24.424 C208.558,277.667,202.878,267.862,199.164,256.763z M277.708,317.122c-7.76-0.7-15.346-1.949-22.476-4.291l-0.035-0.009 c-11.474-3.836-21.576-9.796-30.411-17.565l24.46-24.451l37.384,37.384L277.708,317.122z M295.141,317.498l0.385-0.403l0.358,0.359 C295.639,317.471,295.386,317.471,295.141,317.498z M295.526,299.286l-37.376-37.392l33.312-33.32l37.393,37.384L295.526,299.286z M311.526,315.278l-7.105-7.087l33.329-33.329l21.14,21.13C343.684,305.455,327.64,311.975,311.526,315.278z M390.419,270.886 c-6.641,6.65-13.65,12.636-20.902,17.949l-22.86-22.878l35.462-35.462l23.419,23.429C400.853,259.7,395.915,265.38,390.419,270.886 z M428.345,218.768c-4.177,8.564-9.272,16.927-15.065,25.08L391.022,221.6l34.028-34.038l11.238,11.238 C434.147,205.398,431.639,212.057,428.345,218.768z M440.011,184.731l-6.066-6.064l8.092-8.092 C441.671,175.241,440.981,179.968,440.011,184.731z"/> <path class="st0" d="M249.962,331.523l-0.708-0.235c-0.035,0-0.07-0.018-0.105-0.027L249.962,331.523z"/> </g> </g>
</svg>