<!DOCTYPE svg PUBLIC "-//W3C//DTD SVG 1.1//EN" "http://www.w3.org/Graphics/SVG/1.1/DTD/svg11.dtd">
<!-- Uploaded to: SVG Repo, www.svgrepo.com, Transformed by: SVG Repo Mixer Tools -->
<svg fill="#484747" height="76px" width="76px" version="1.1" id="Layer_1" xmlns="http://www.w3.org/2000/svg" xmlns:xlink="http://www.w3.org/1999/xlink" viewBox="0 0 512.002 512.002" xml:space="preserve">
<g id="SVGRepo_bgCarrier" stroke-width="0"/>
<g id="SVGRepo_tracerCarrier" stroke-linecap="round" stroke-linejoin="round"/>
<g id="SVGRepo_iconCarrier"> <g> <g> <path d="M270.962,0c-16.137,0-31.736,5.127-44.634,14.409C213.43,5.127,197.831,0,181.694,0 c-42.133,0-76.412,34.278-76.412,76.412c0,4.004,0.376,7.955,1.073,11.854h80.303l28.083-30.859l27.273,40.992l9.222-10.133H346.3 c0.697-3.899,1.073-7.85,1.073-11.854C347.374,34.278,313.095,0,270.962,0z"/> </g> </g> <g> <g> <path d="M265.997,121.657l-28.083,30.859l-27.273-40.992l-9.222,10.133h-81.091c14.745,22.704,38.046,42.769,59.414,59.295 c15.431,11.935,36.601,25.698,37.495,26.278l9.09,5.9l9.09-5.9c0.894-0.58,22.064-14.343,37.496-26.278 c21.368-16.528,44.67-36.591,59.414-59.295H265.997z"/> </g> </g> <g> <g> <path d="M483.142,441.569c-0.971-7.908-3.926-22.098-12.937-36.458c-11.963-19.063-36.897-41.787-87.743-41.787 c-15.192,0-28.533-2.41-40.526-6.305l-38.071,46.005l-25.725-21.288l32.501-39.275c-7.755-4.653-14.973-9.676-21.886-14.632 l-37.252,45.018l-25.726-21.288l35.311-42.672c-6.057-3.566-12.178-6.545-18.501-8.526c-1.363-15.065-6.286-31.12-19.437-40.776 c-8.237-6.047-22.633-11.63-44.455-3.889c-21.821,7.743-29.48,21.152-32.062,31.038c-2.603,9.966-1.05,19.844,2.57,28.935 c-8.298-1.95-15.423-5.762-22.832-9.735c-15.147-8.122-33.998-18.231-60.381-7.76c-24.003,9.524-33.5,36.713-37.048,65.15h15.537 c8.166-0.837,52.986-3.976,84.583,23.763c17.93,15.742,27.991,37.878,30.023,65.878l299.057,11.213 c0.505,0.019,0.902,0.43,0.902,0.935v12.562c0,0.516-0.42,0.936-0.936,0.936H53.897c-0.516,0-0.936-0.42-0.936-0.936v-27.716 c0-0.109,0-0.397,0.286-0.673c0.248-0.239,0.498-0.264,0.621-0.264c0.019,0,0.036,0.001,0.048,0.001l71.531,2.682 c-1.912-17.182-8.081-30.447-18.419-39.524c-22.541-19.789-59.1-15.652-59.463-15.605l-1.076,0.14H26.993 c-0.058,8.934,0.166,17.289,0.359,24.454c0.068,2.504,0.129,4.799,0.168,6.821c-5.148,6.151-7.951,13.822-7.951,21.968v27.716 c0,18.928,15.399,34.327,34.327,34.327h404.207c18.928,0,34.327-15.399,34.327-34.327v-12.562 C492.432,455.986,488.915,447.711,483.142,441.569z"/> </g> </g> </g>
</svg>