<svg width="184" height="61" viewBox="0 0 184 61" fill="none" xmlns="http://www.w3.org/2000/svg">
<rect width="184" height="61" fill="white"/>
<circle cx="92" cy="20" r="18" fill="black"/>
<ellipse cx="91.9998" cy="20" rx="15" ry="15" fill="#FFF900"/>
<path d="M79.4295 9.5C79.1159 12.4246 79.1489 14.0467 80.0522 16.87C80.4333 17.7362 81.142 19.4495 81.142 19.4495C81.142 19.4495 81.8477 21.2907 82.076 21.6604C82.3044 22.0301 82.3116 23.8727 82.076 24.6084C81.8404 25.3441 81.142 28.2934 81.142 28.2934C80.6686 30.1633 81.2976 34.9264 81.142 33.0839" stroke="black"/>
<path d="M102.945 8C103.38 8.875 104.094 10.9777 103.99 12.5C103.852 14.5127 103.441 16.0721 103.206 16.25C102.817 17.0823 101.292 19.1612 101.378 18.875C101.465 18.5888 100.615 20.393 100.334 21.5C100.199 22.4527 100.247 22.9187 100.334 23.75C100.421 24.25 100.78 25.3028 101.117 26C101.843 27.5031 102.492 28.2075 102.684 28.25L102.945 28.625M103.206 29.75C103.206 29.75 103.206 30.125 102.945 28.625M102.945 28.625C103.237 29.7787 103.367 30.4858 103.467 32" stroke="black"/>
<path d="M15.976 11.68H12.072L12.36 12.48V30.048C12.36 31.0293 12.2533 31.6053 12.04 31.776C11.848 31.9253 11.176 32 10.024 32H9.256V12.48L9.48 11.68H5.64V8.96H15.976V11.68ZM27.313 29.152V32H17.265V8.96H26.993V11.68H20.113L20.401 12.48V17.376L20.113 18.176H26.609V21.024H20.145L20.401 21.76V28.352L20.113 29.152H27.313ZM36.4745 24.96V8.96H37.1785C38.3305 8.96 39.0025 9.04533 39.1945 9.216C39.3865 9.36533 39.4825 9.93067 39.4825 10.912V32H38.5225C37.4558 32 36.7945 31.9253 36.5385 31.776C36.2825 31.6053 36.0052 31.0827 35.7065 30.208L31.5785 16.384H31.4185V30.048C31.4185 31.0293 31.3225 31.6053 31.1305 31.776C30.9385 31.9253 30.2665 32 29.1145 32H28.4425V8.96H29.1465C30.1918 8.96 30.8318 9.03467 31.0665 9.184C31.3012 9.33333 31.5892 9.856 31.9305 10.752L36.3145 24.96H36.4745ZM49.132 24.96V8.96H49.836C50.988 8.96 51.66 9.04533 51.852 9.216C52.044 9.36533 52.14 9.93067 52.14 10.912V32H51.18C50.1133 32 49.452 31.9253 49.196 31.776C48.94 31.6053 48.6627 31.0827 48.364 30.208L44.236 16.384H44.076V30.048C44.076 31.0293 43.98 31.6053 43.788 31.776C43.596 31.9253 42.924 32 41.772 32H41.1V8.96H41.804C42.8493 8.96 43.4893 9.03467 43.724 9.184C43.9587 9.33333 44.2467 9.856 44.588 10.752L48.972 24.96H49.132ZM54.2375 30.048V8.96H54.9095C56.0828 8.96 56.7655 9.04533 56.9575 9.216C57.1708 9.36533 57.2775 9.93067 57.2775 10.912V32H56.5415C55.3895 32 54.7175 31.9253 54.5255 31.776C54.3335 31.6053 54.2375 31.0293 54.2375 30.048ZM59.1925 28.832C61.3258 29.0453 62.8832 29.152 63.8645 29.152C64.8458 29.152 65.5178 29.0773 65.8805 28.928C66.2645 28.7787 66.5525 28.608 66.7445 28.416C66.9365 28.2027 67.0752 27.8933 67.1605 27.488C67.2672 26.976 67.3205 26.3467 67.3205 25.6C67.3205 24.8533 67.1392 24.2027 66.7765 23.648C66.4138 23.0933 66.0725 22.6773 65.7525 22.4C65.4538 22.1227 64.8992 21.632 64.0885 20.928C63.2778 20.224 62.7018 19.7227 62.3605 19.424C62.0405 19.104 61.5818 18.6133 60.9845 17.952C59.8965 16.7573 59.3525 15.5093 59.3525 14.208C59.3525 11.9467 59.5872 10.56 60.0565 10.048C60.7818 9.30133 61.5605 8.87467 62.3925 8.768C63.2245 8.64 64.1098 8.576 65.0485 8.576L69.4005 9.504C69.2298 10.72 68.9845 11.4347 68.6645 11.648C68.5152 11.776 68.2485 11.84 67.8645 11.84C67.5018 11.84 67.0218 11.776 66.4245 11.648L65.2085 11.424C63.9498 11.424 63.1818 11.68 62.9045 12.192C62.7338 12.4693 62.6272 12.7253 62.5845 12.96C62.5632 13.1947 62.5525 13.5467 62.5525 14.016C62.5525 14.8907 63.6298 16.2347 65.7845 18.048C66.8085 18.8587 67.6085 19.5413 68.1845 20.096C68.7605 20.6507 69.3045 21.3227 69.8165 22.112C70.3285 22.9013 70.5845 23.648 70.5845 24.352C70.5845 25.056 70.5738 25.6 70.5525 25.984C70.5525 26.3467 70.5098 26.8587 70.4245 27.52C70.3605 28.16 70.2538 28.6613 70.1045 29.024C69.9552 29.3867 69.7312 29.8027 69.4325 30.272C69.1338 30.7413 68.7712 31.0933 68.3445 31.328C67.2565 31.9253 65.9552 32.224 64.4405 32.224C63.5872 32.224 62.5952 32.128 61.4645 31.936C60.3338 31.7227 59.5765 31.5947 59.1925 31.552V28.832ZM115.174 28.832C117.307 29.0453 118.864 29.152 119.846 29.152C120.827 29.152 121.499 29.0773 121.862 28.928C122.246 28.7787 122.534 28.608 122.726 28.416C122.918 28.2027 123.056 27.8933 123.142 27.488C123.248 26.976 123.302 26.3467 123.302 25.6C123.302 24.8533 123.12 24.2027 122.758 23.648C122.395 23.0933 122.054 22.6773 121.734 22.4C121.435 22.1227 120.88 21.632 120.07 20.928C119.259 20.224 118.683 19.7227 118.342 19.424C118.022 19.104 117.563 18.6133 116.966 17.952C115.878 16.7573 115.334 15.5093 115.334 14.208C115.334 11.9467 115.568 10.56 116.038 10.048C116.763 9.30133 117.542 8.87467 118.374 8.768C119.206 8.64 120.091 8.576 121.03 8.576L125.382 9.504C125.211 10.72 124.966 11.4347 124.646 11.648C124.496 11.776 124.23 11.84 123.846 11.84C123.483 11.84 123.003 11.776 122.406 11.648L121.19 11.424C119.931 11.424 119.163 11.68 118.886 12.192C118.715 12.4693 118.608 12.7253 118.566 12.96C118.544 13.1947 118.534 13.5467 118.534 14.016C118.534 14.8907 119.611 16.2347 121.766 18.048C122.79 18.8587 123.59 19.5413 124.166 20.096C124.742 20.6507 125.286 21.3227 125.798 22.112C126.31 22.9013 126.566 23.648 126.566 24.352C126.566 25.056 126.555 25.6 126.534 25.984C126.534 26.3467 126.491 26.8587 126.406 27.52C126.342 28.16 126.235 28.6613 126.086 29.024C125.936 29.3867 125.712 29.8027 125.414 30.272C125.115 30.7413 124.752 31.0933 124.326 31.328C123.238 31.9253 121.936 32.224 120.422 32.224C119.568 32.224 118.576 32.128 117.446 31.936C116.315 31.7227 115.558 31.5947 115.174 31.552V28.832ZM131.447 30.048C131.447 31.0293 131.341 31.6053 131.127 31.776C130.935 31.9253 130.274 32 129.143 32H128.471V8.96H129.143C130.274 8.96 130.935 9.04533 131.127 9.216C131.341 9.36533 131.447 9.93067 131.447 10.912V17.376L131.319 18.176H136.599L136.503 17.376V8.96H137.207C138.338 8.96 138.999 9.04533 139.191 9.216C139.405 9.36533 139.511 9.93067 139.511 10.912V32H138.871C137.698 32 137.005 31.9253 136.791 31.776C136.599 31.6053 136.503 31.0293 136.503 30.048V21.696L136.759 21.024H131.191L131.447 21.76V30.048ZM147.954 32.224C145.544 32.224 143.901 31.3067 143.026 29.472C142.173 27.6373 141.746 24.608 141.746 20.384C141.746 16.16 142.205 13.1413 143.122 11.328C144.04 9.49333 145.65 8.576 147.954 8.576C150.28 8.576 151.89 9.48267 152.786 11.296C153.682 13.1093 154.13 16.1387 154.13 20.384C154.13 24.6293 153.704 27.6693 152.85 29.504C152.018 31.3173 150.386 32.224 147.954 32.224ZM144.786 20.288C144.786 23.3387 145.021 25.6213 145.49 27.136C145.96 28.6293 146.781 29.376 147.954 29.376C149.149 29.376 149.981 28.6293 150.45 27.136C150.92 25.6213 151.154 23.3493 151.154 20.32C151.154 14.3893 150.088 11.424 147.954 11.424C145.842 11.424 144.786 14.3787 144.786 20.288ZM159.388 30.048C159.388 31.0293 159.292 31.6053 159.1 31.776C158.908 31.9253 158.236 32 157.084 32H156.38V8.928L161.564 8.576C163.697 8.576 165.169 8.85333 165.98 9.408C166.279 9.62133 166.524 9.81333 166.716 9.984C166.929 10.1547 167.1 10.4213 167.228 10.784C167.377 11.1253 167.484 11.4133 167.548 11.648C167.633 11.8613 167.687 12.2027 167.708 12.672C167.772 13.4827 167.804 14.304 167.804 15.136C167.804 15.9467 167.793 16.5653 167.772 16.992C167.751 17.3973 167.676 17.8987 167.548 18.496C167.441 19.0933 167.26 19.5413 167.004 19.84C166.748 20.1387 166.396 20.4373 165.948 20.736C165.159 21.2907 163.708 21.568 161.596 21.568H159.388V30.048ZM161.596 18.72C162.641 18.72 163.452 18.5493 164.028 18.208C164.391 17.9947 164.604 17.4293 164.668 16.512C164.689 16.2133 164.7 15.744 164.7 15.104C164.7 14.4427 164.689 13.9733 164.668 13.696C164.647 13.3973 164.583 13.0667 164.476 12.704C164.391 12.32 164.241 12.064 164.028 11.936C163.452 11.5947 162.641 11.424 161.596 11.424H159.132L159.388 12.224V17.984L159.132 18.72H161.596Z" fill="black"/>
<path d="M109.828 48.0469C109.849 48.1302 109.854 48.237 109.844 48.3672C109.833 48.4974 109.823 48.6198 109.812 48.7344C109.812 48.8698 109.807 48.9661 109.797 49.0234C109.786 49.0807 109.771 49.1354 109.75 49.1875C109.74 49.2396 109.729 49.2943 109.719 49.3516C109.703 49.4089 109.688 49.4661 109.672 49.5234C109.656 49.5807 109.643 49.6406 109.633 49.7031C109.617 49.7656 109.604 49.8281 109.594 49.8906C109.594 49.9271 109.594 49.9635 109.594 50C109.594 50.0312 109.591 50.0651 109.586 50.1016C109.581 50.138 109.578 50.1745 109.578 50.2109C109.578 50.2422 109.578 50.276 109.578 50.3125C109.578 50.3542 109.578 50.3984 109.578 50.4453C109.573 50.4922 109.568 50.5417 109.562 50.5938C109.557 50.6927 109.573 50.7865 109.609 50.875C109.635 50.9375 109.677 51.0078 109.734 51.0859C109.786 51.1589 109.828 51.2396 109.859 51.3281C109.943 51.3802 109.982 51.4141 109.977 51.4297C109.971 51.4401 109.974 51.4583 109.984 51.4844C110.021 51.5625 110.078 51.6146 110.156 51.6406C110.255 51.7031 110.383 51.7292 110.539 51.7188C110.701 51.7083 110.839 51.7188 110.953 51.75C111.146 51.7188 111.312 51.6615 111.453 51.5781C111.474 51.5677 111.495 51.5573 111.516 51.5469C111.542 51.5365 111.565 51.526 111.586 51.5156C111.633 51.4896 111.672 51.4583 111.703 51.4219C111.74 51.3542 111.768 51.2917 111.789 51.2344C111.81 51.1667 111.839 51.0938 111.875 51.0156C111.906 50.9427 111.938 50.8438 111.969 50.7188C112 50.5938 112.021 50.4948 112.031 50.4219C112.089 50.3229 112.138 50.2214 112.18 50.1172C112.227 50.013 112.268 49.9062 112.305 49.7969L112.516 49.1562C112.557 49.0312 112.599 48.9141 112.641 48.8047C112.682 48.6953 112.729 48.5833 112.781 48.4688C112.823 48.3542 112.865 48.2422 112.906 48.1328C112.948 48.0234 113.005 47.9219 113.078 47.8281C113.109 47.6615 113.156 47.5156 113.219 47.3906L113.406 47.0156C113.479 46.849 113.557 46.6927 113.641 46.5469C113.688 46.4688 113.732 46.3932 113.773 46.3203C113.82 46.2422 113.862 46.1667 113.898 46.0938C113.94 46.0208 113.982 45.9479 114.023 45.875C114.065 45.8021 114.109 45.7292 114.156 45.6562C114.219 45.4896 114.305 45.3203 114.414 45.1484C114.513 44.987 114.594 44.8177 114.656 44.6406C114.714 44.4896 114.76 44.349 114.797 44.2188C114.839 44.0833 114.901 43.9583 114.984 43.8438C115.026 43.7604 115.062 43.6797 115.094 43.6016C115.13 43.5234 115.161 43.4505 115.188 43.3828C115.214 43.3099 115.242 43.2396 115.273 43.1719C115.31 43.1042 115.349 43.0365 115.391 42.9688C115.401 42.9167 115.414 42.8698 115.43 42.8281C115.445 42.7865 115.464 42.7396 115.484 42.6875C115.396 42.7135 115.318 42.7552 115.25 42.8125C115.182 42.875 115.094 42.9219 114.984 42.9531C114.901 43.0052 114.812 43.0651 114.719 43.1328C114.625 43.2005 114.547 43.2708 114.484 43.3438C114.453 43.4688 114.422 43.5469 114.391 43.5781C114.37 43.599 114.339 43.6354 114.297 43.6875C114.255 43.6927 114.198 43.7057 114.125 43.7266C114.052 43.7474 113.995 43.7604 113.953 43.7656C113.891 43.7396 113.852 43.7083 113.836 43.6719C113.82 43.6302 113.797 43.5833 113.766 43.5312C113.714 43.4427 113.701 43.3698 113.727 43.3125C113.753 43.2552 113.776 43.2083 113.797 43.1719C113.812 43.151 113.836 43.125 113.867 43.0938C113.898 43.0625 113.917 43.0365 113.922 43.0156C114.062 42.8802 114.203 42.7656 114.344 42.6719C114.495 42.5677 114.635 42.4583 114.766 42.3438C114.797 42.3125 114.828 42.2812 114.859 42.25C114.891 42.2188 114.922 42.1849 114.953 42.1484C114.984 42.112 115.016 42.0807 115.047 42.0547C115.078 42.0234 115.109 41.9948 115.141 41.9688L115.562 41.6406C115.755 41.5052 115.893 41.3828 115.977 41.2734C116.065 41.1589 116.161 41.0625 116.266 40.9844C116.37 40.9062 116.542 40.8542 116.781 40.8281C116.802 40.8229 116.82 40.8177 116.836 40.8125C116.857 40.8073 116.875 40.8021 116.891 40.7969C116.932 40.7865 116.974 40.7812 117.016 40.7812C117.078 40.7708 117.109 40.7708 117.109 40.7812C117.109 40.7969 117.146 40.7917 117.219 40.7656C117.255 40.7604 117.299 40.7474 117.352 40.7266L117.484 40.6719C117.526 40.6562 117.578 40.6432 117.641 40.6328C117.708 40.6224 117.755 40.6094 117.781 40.5938C117.812 40.5885 117.846 40.5885 117.883 40.5938C117.904 40.599 117.922 40.6042 117.938 40.6094C117.958 40.6146 117.979 40.6198 118 40.625C118.125 40.724 118.161 40.8594 118.109 41.0312C118.062 41.1979 118 41.349 117.922 41.4844C117.891 41.5469 117.852 41.6094 117.805 41.6719C117.758 41.7344 117.708 41.7812 117.656 41.8125L117.398 42.1562C117.357 42.2135 117.312 42.2734 117.266 42.3359C117.224 42.3932 117.182 42.4531 117.141 42.5156C117.099 42.5729 117.06 42.6328 117.023 42.6953C116.987 42.7578 116.951 42.8229 116.914 42.8906C116.878 42.9583 116.841 43.0234 116.805 43.0859C116.768 43.1484 116.729 43.2083 116.688 43.2656C116.604 43.3906 116.526 43.5156 116.453 43.6406C116.38 43.7656 116.307 43.8958 116.234 44.0312C116.151 44.2083 116.055 44.3776 115.945 44.5391C115.841 44.6901 115.745 44.8698 115.656 45.0781C115.63 45.1406 115.607 45.2031 115.586 45.2656C115.565 45.3281 115.544 45.3906 115.523 45.4531C115.503 45.5156 115.482 45.5807 115.461 45.6484C115.44 45.7109 115.417 45.776 115.391 45.8438C115.37 45.8698 115.352 45.9036 115.336 45.9453C115.32 45.987 115.302 46.0208 115.281 46.0469C115.266 46.0677 115.253 46.1042 115.242 46.1562C115.237 46.1875 115.219 46.2135 115.188 46.2344C115.151 46.3333 115.112 46.4297 115.07 46.5234C115.029 46.612 114.987 46.7005 114.945 46.7891C114.857 46.9661 114.786 47.1562 114.734 47.3594C114.708 47.3854 114.693 47.4141 114.688 47.4453C114.682 47.4766 114.667 47.5052 114.641 47.5312C114.651 47.5417 114.651 47.5911 114.641 47.6797C114.63 47.7682 114.615 47.8333 114.594 47.875C114.526 48.0052 114.477 48.0938 114.445 48.1406C114.424 48.1719 114.406 48.2057 114.391 48.2422C114.375 48.2734 114.359 48.3073 114.344 48.3438C114.234 48.5521 114.13 48.7812 114.031 49.0312C113.938 49.276 113.833 49.5156 113.719 49.75C113.656 49.8542 113.602 49.9609 113.555 50.0703C113.508 50.1797 113.458 50.2969 113.406 50.4219C113.406 50.4896 113.391 50.5521 113.359 50.6094C113.333 50.6562 113.307 50.7135 113.281 50.7812C113.234 50.8906 113.206 50.9792 113.195 51.0469C113.18 51.1302 113.146 51.2135 113.094 51.2969L113 51.4141C112.979 51.4401 112.953 51.4792 112.922 51.5312C112.906 51.5573 112.893 51.6016 112.883 51.6641C112.872 51.7266 112.859 51.7708 112.844 51.7969C112.823 51.8594 112.786 51.9219 112.734 51.9844C112.682 52.0469 112.63 52.1042 112.578 52.1562C112.521 52.2135 112.482 52.2656 112.461 52.3125C112.44 52.3594 112.401 52.4115 112.344 52.4688C112.276 52.5 112.219 52.5339 112.172 52.5703C112.13 52.6016 112.073 52.6302 112 52.6562C111.859 52.7292 111.729 52.7812 111.609 52.8125C111.505 52.8385 111.44 52.8568 111.414 52.8672C111.378 52.8828 111.333 52.8906 111.281 52.8906C111.219 52.8906 111.161 52.8854 111.109 52.875C111.057 52.8646 111 52.8594 110.938 52.8594C110.849 52.8906 110.766 52.8958 110.688 52.875L110.438 52.8125H110.305C110.268 52.8125 110.224 52.8073 110.172 52.7969C110.01 52.7656 109.865 52.6953 109.734 52.5859C109.604 52.4818 109.458 52.4167 109.297 52.3906C109.057 52.2344 108.857 52.026 108.695 51.7656C108.534 51.5052 108.396 51.2135 108.281 50.8906C108.229 50.7083 108.219 50.513 108.25 50.3047C108.266 50.2005 108.279 50.099 108.289 50C108.299 49.8958 108.307 49.7917 108.312 49.6875C108.339 49.5521 108.354 49.4271 108.359 49.3125C108.365 49.2135 108.385 49.099 108.422 48.9688C108.443 48.8958 108.466 48.8255 108.492 48.7578C108.518 48.6901 108.542 48.6302 108.562 48.5781C108.599 48.5208 108.646 48.4635 108.703 48.4062C108.76 48.349 108.807 48.2865 108.844 48.2188C108.911 48.1771 108.995 48.1589 109.094 48.1641C109.198 48.1745 109.302 48.1667 109.406 48.1406C109.443 48.1302 109.479 48.1198 109.516 48.1094C109.552 48.0938 109.589 48.0755 109.625 48.0547C109.693 48.0182 109.76 48.0156 109.828 48.0469ZM119.656 51.8906L119.562 51.5469C119.5 51.4167 119.49 51.2135 119.531 50.9375L119.586 50.6641C119.596 50.6276 119.604 50.5807 119.609 50.5234C119.62 50.4661 119.63 50.3958 119.641 50.3125C119.651 50.2344 119.661 50.1562 119.672 50.0781C119.688 49.9948 119.706 49.9115 119.727 49.8281C119.747 49.7448 119.763 49.6615 119.773 49.5781C119.789 49.4948 119.802 49.4115 119.812 49.3281C119.734 49.4479 119.659 49.5703 119.586 49.6953C119.513 49.8203 119.443 49.9505 119.375 50.0859C119.245 50.3411 119.083 50.5625 118.891 50.75C118.849 50.875 118.797 50.9557 118.734 50.9922C118.672 51.0234 118.609 51.0547 118.547 51.0859C118.484 51.1172 118.432 51.1927 118.391 51.3125C118.339 51.3646 118.289 51.4193 118.242 51.4766C118.195 51.5339 118.161 51.6042 118.141 51.6875C118.089 51.7083 118.036 51.75 117.984 51.8125C117.885 51.9115 117.823 51.9635 117.797 51.9688C117.771 51.974 117.745 51.9896 117.719 52.0156C117.615 52.099 117.523 52.1615 117.445 52.2031C117.367 52.2448 117.276 52.2708 117.172 52.2812C117.057 52.3021 116.909 52.3177 116.727 52.3281C116.638 52.3333 116.557 52.3385 116.484 52.3438C116.411 52.349 116.349 52.3542 116.297 52.3594C116.229 52.3073 116.177 52.276 116.141 52.2656C116.125 52.2604 116.102 52.2526 116.07 52.2422C116.044 52.2318 116.01 52.2188 115.969 52.2031C115.818 52.1406 115.745 52.112 115.75 52.1172C115.745 52.112 115.737 52.1068 115.727 52.1016C115.711 52.0964 115.693 52.0885 115.672 52.0781C115.589 52.0156 115.531 51.9661 115.5 51.9297C115.479 51.9036 115.443 51.8646 115.391 51.8125C115.219 51.5469 115.12 51.2031 115.094 50.7812C115.083 50.6354 115.109 50.4896 115.172 50.3438C115.234 50.1979 115.292 50.0677 115.344 49.9531C115.406 49.8229 115.474 49.7031 115.547 49.5938C115.589 49.5312 115.628 49.4714 115.664 49.4141C115.695 49.3568 115.724 49.3021 115.75 49.25C115.812 49.125 115.823 49.0443 115.781 49.0078C115.745 48.9661 115.755 48.8854 115.812 48.7656C115.839 48.6823 115.87 48.6094 115.906 48.5469L116.047 48.2969C116.141 48.1302 116.24 47.9818 116.344 47.8516C116.438 47.737 116.516 47.5833 116.578 47.3906C116.63 47.2448 116.701 47.1328 116.789 47.0547C116.878 46.9766 116.984 46.9062 117.109 46.8438C117.161 46.8646 117.237 46.8568 117.336 46.8203C117.435 46.7839 117.51 46.7448 117.562 46.7031C117.635 46.7031 117.693 46.6823 117.734 46.6406C117.849 46.6198 117.909 46.6198 117.914 46.6406C117.919 46.6615 117.932 46.6719 117.953 46.6719C117.974 46.6771 118.003 46.6771 118.039 46.6719C118.076 46.6667 118.104 46.6667 118.125 46.6719C118.161 46.7812 118.188 46.849 118.203 46.875C118.224 46.901 118.234 46.9271 118.234 46.9531C118.234 46.9844 118.232 47.026 118.227 47.0781C118.221 47.1302 118.214 47.1667 118.203 47.1875C118.146 47.2656 118.112 47.3151 118.102 47.3359L118.078 47.3906C118.047 47.4323 118.01 47.4818 117.969 47.5391C117.932 47.5911 117.891 47.6536 117.844 47.7266L117.594 48.0938C117.536 48.1823 117.484 48.2396 117.438 48.2656C117.38 48.2969 117.333 48.3542 117.297 48.4375C117.276 48.474 117.26 48.513 117.25 48.5547C117.245 48.5911 117.229 48.6302 117.203 48.6719C117.083 48.9219 116.948 49.1745 116.797 49.4297C116.719 49.5599 116.643 49.6901 116.57 49.8203C116.503 49.9453 116.438 50.0677 116.375 50.1875C116.37 50.2292 116.362 50.2708 116.352 50.3125C116.341 50.349 116.331 50.388 116.32 50.4297C116.294 50.5182 116.281 50.5938 116.281 50.6562C116.281 50.6719 116.276 50.7526 116.266 50.8984C116.255 51.0443 116.26 51.1302 116.281 51.1562C116.344 51.2448 116.38 51.2839 116.391 51.2734C116.401 51.263 116.411 51.2656 116.422 51.2812C116.464 51.3854 116.492 51.4453 116.508 51.4609C116.523 51.4766 116.557 51.4948 116.609 51.5156C116.651 51.526 116.711 51.5182 116.789 51.4922C116.867 51.4661 116.927 51.4427 116.969 51.4219C117.094 51.3594 117.188 51.2943 117.25 51.2266C117.312 51.1589 117.375 51.0885 117.438 51.0156C117.594 50.8281 117.76 50.6094 117.938 50.3594C118.115 50.1094 118.281 49.8906 118.438 49.7031C118.495 49.5781 118.57 49.4531 118.664 49.3281C118.763 49.1927 118.839 49.0729 118.891 48.9688L119.109 48.5469C119.141 48.4896 119.174 48.4271 119.211 48.3594C119.247 48.2917 119.286 48.2188 119.328 48.1406C119.391 48.0521 119.456 47.9714 119.523 47.8984C119.591 47.8255 119.641 47.7188 119.672 47.5781C119.698 47.5052 119.737 47.4349 119.789 47.3672C119.815 47.3307 119.839 47.2995 119.859 47.2734C119.885 47.2422 119.906 47.2135 119.922 47.1875C120 47.1146 120.049 47.0573 120.07 47.0156C120.091 46.974 120.125 46.9375 120.172 46.9062C120.286 46.875 120.375 46.8516 120.438 46.8359C120.5 46.8203 120.578 46.8229 120.672 46.8438C120.755 46.7917 120.844 46.7656 120.938 46.7656C120.984 46.7656 121.029 46.7682 121.07 46.7734C121.117 46.7734 121.161 46.776 121.203 46.7812C121.203 46.8333 121.216 46.8672 121.242 46.8828C121.268 46.8984 121.281 46.9271 121.281 46.9688C121.323 47.0625 121.323 47.1771 121.281 47.3125C121.234 47.4635 121.208 47.599 121.203 47.7188C121.177 47.8281 121.138 47.9245 121.086 48.0078C121.029 48.1016 120.984 48.2031 120.953 48.3125C120.932 48.3906 120.914 48.4531 120.898 48.5C120.888 48.5469 120.88 48.5781 120.875 48.5938L120.828 48.7656C120.807 48.8594 120.786 48.9505 120.766 49.0391C120.745 49.1224 120.724 49.2057 120.703 49.2891C120.661 49.4557 120.63 49.6406 120.609 49.8438C120.609 49.8958 120.602 49.9505 120.586 50.0078C120.57 50.0599 120.562 50.1094 120.562 50.1562C120.562 50.2083 120.565 50.2708 120.57 50.3438C120.576 50.4167 120.604 50.4635 120.656 50.4844C120.714 50.5052 120.763 50.5 120.805 50.4688C120.857 50.4271 120.911 50.3906 120.969 50.3594C121.005 50.3333 121.057 50.2865 121.125 50.2188C121.193 50.151 121.245 50.1042 121.281 50.0781C121.333 50.026 121.391 49.9844 121.453 49.9531C121.516 49.9219 121.573 49.8802 121.625 49.8281C121.708 49.7552 121.789 49.6823 121.867 49.6094C121.951 49.5312 122.029 49.4531 122.102 49.375C122.258 49.2135 122.422 49.0833 122.594 48.9844C122.76 48.8073 122.93 48.6432 123.102 48.4922C123.273 48.3411 123.469 48.2135 123.688 48.1094C123.771 48.2448 123.792 48.3568 123.75 48.4453C123.708 48.5339 123.656 48.6198 123.594 48.7031C123.568 48.7292 123.531 48.7552 123.484 48.7812C123.427 48.8125 123.385 48.8385 123.359 48.8594L123.281 48.9375C123.25 48.9688 123.224 48.9844 123.203 48.9844C123.203 49.026 123.19 49.0599 123.164 49.0859L123.094 49.1562C123.026 49.2604 122.953 49.3594 122.875 49.4531C122.802 49.5417 122.724 49.6276 122.641 49.7109C122.557 49.7943 122.474 49.8776 122.391 49.9609C122.312 50.0391 122.234 50.1198 122.156 50.2031C122.083 50.2292 122.039 50.263 122.023 50.3047C122.008 50.3568 121.974 50.401 121.922 50.4375C121.901 50.4635 121.88 50.487 121.859 50.5078C121.839 50.5286 121.818 50.5495 121.797 50.5703C121.776 50.5911 121.755 50.612 121.734 50.6328C121.714 50.6536 121.693 50.6771 121.672 50.7031C121.609 50.7708 121.555 50.8411 121.508 50.9141C121.461 50.9818 121.396 51.0469 121.312 51.1094C121.26 51.1615 121.221 51.2161 121.195 51.2734C121.174 51.3255 121.135 51.3802 121.078 51.4375C120.995 51.5208 120.935 51.5599 120.898 51.5547C120.867 51.5495 120.839 51.599 120.812 51.7031C120.729 51.7656 120.682 51.8099 120.672 51.8359C120.667 51.8568 120.651 51.8646 120.625 51.8594C120.599 51.8698 120.562 51.8776 120.516 51.8828C120.464 51.888 120.438 51.901 120.438 51.9219C120.37 51.9531 120.315 51.9844 120.273 52.0156C120.232 52.0521 120.182 52.0729 120.125 52.0781C119.99 52.099 119.893 52.0911 119.836 52.0547C119.779 52.0182 119.719 51.9635 119.656 51.8906ZM124.219 49.625L124.312 49.7031C124.339 49.7448 124.331 49.8021 124.289 49.875C124.268 49.9115 124.25 49.9453 124.234 49.9766C124.224 50.0078 124.214 50.0365 124.203 50.0625C124.208 50.0833 124.214 50.1042 124.219 50.125C124.224 50.1406 124.229 50.1536 124.234 50.1641C124.245 50.1953 124.24 50.2292 124.219 50.2656C124.292 50.3229 124.339 50.3828 124.359 50.4453C124.385 50.5286 124.422 50.599 124.469 50.6562C124.531 50.724 124.586 50.776 124.633 50.8125C124.69 50.849 124.745 50.8958 124.797 50.9531C124.854 50.9219 124.896 50.9062 124.922 50.9062C124.958 50.9062 125 50.8958 125.047 50.875C125.135 50.7604 125.208 50.6146 125.266 50.4375C125.276 50.3958 125.286 50.349 125.297 50.2969C125.307 50.2448 125.312 50.1979 125.312 50.1562C125.307 50.0208 125.266 49.8802 125.188 49.7344C125.109 49.5833 125.052 49.4427 125.016 49.3125C124.974 49.224 124.961 49.1302 124.977 49.0312C124.992 48.9219 124.99 48.8281 124.969 48.75C124.964 48.6979 124.948 48.6562 124.922 48.625C124.911 48.6094 124.901 48.5938 124.891 48.5781C124.88 48.5573 124.87 48.5365 124.859 48.5156C124.839 48.4271 124.831 48.3333 124.836 48.2344C124.846 48.1302 124.823 48.0417 124.766 47.9688C124.703 48.0312 124.604 48.151 124.469 48.3281C124.333 48.5 124.198 48.6719 124.062 48.8438C123.932 49.0156 123.839 49.1302 123.781 49.1875C123.755 49.224 123.727 49.2604 123.695 49.2969C123.669 49.3281 123.641 49.3568 123.609 49.3828C123.578 49.4089 123.547 49.4401 123.516 49.4766C123.49 49.5078 123.464 49.5417 123.438 49.5781C123.271 49.7865 123.146 49.9401 123.062 50.0391C122.984 50.138 122.906 50.2396 122.828 50.3438C122.75 50.4479 122.625 50.6146 122.453 50.8438C122.396 50.9271 122.299 51.0625 122.164 51.25C122.023 51.4375 121.891 51.6198 121.766 51.7969C121.635 51.9688 121.557 52.0833 121.531 52.1406C121.469 52.2448 121.388 52.3359 121.289 52.4141C121.19 52.4922 121.073 52.5312 120.938 52.5312C120.938 52.526 120.927 52.4844 120.906 52.4062C120.885 52.3333 120.867 52.2552 120.852 52.1719C120.831 52.0938 120.818 52.0521 120.812 52.0469C120.844 51.9844 120.867 51.9219 120.883 51.8594C120.898 51.8021 120.943 51.7448 121.016 51.6875C121.036 51.6198 121.096 51.5078 121.195 51.3516C121.294 51.1901 121.409 51.0182 121.539 50.8359C121.669 50.6484 121.792 50.4766 121.906 50.3203C122.016 50.1641 122.089 50.0573 122.125 50C122.193 49.9323 122.292 49.8151 122.422 49.6484C122.547 49.4818 122.672 49.3151 122.797 49.1484C122.927 48.9766 123.021 48.8542 123.078 48.7812C123.125 48.6406 123.221 48.4661 123.367 48.2578C123.518 48.0443 123.677 47.8281 123.844 47.6094C124.016 47.3854 124.156 47.1927 124.266 47.0312C124.318 46.9479 124.362 46.875 124.398 46.8125C124.435 46.75 124.474 46.6823 124.516 46.6094C124.557 46.5677 124.594 46.5208 124.625 46.4688C124.646 46.3906 124.635 46.3307 124.594 46.2891C124.557 46.2474 124.542 46.1927 124.547 46.125C124.641 45.9479 124.732 45.8359 124.82 45.7891C124.914 45.737 125.005 45.651 125.094 45.5312C125.156 45.4896 125.206 45.4583 125.242 45.4375C125.294 45.4115 125.344 45.375 125.391 45.3281C125.464 45.2552 125.57 45.237 125.711 45.2734C125.857 45.3047 125.943 45.349 125.969 45.4062C125.974 45.4375 125.974 45.4792 125.969 45.5312C125.964 45.5573 125.958 45.5833 125.953 45.6094C125.948 45.6354 125.943 45.6615 125.938 45.6875C125.927 45.7344 125.917 45.7786 125.906 45.8203C125.896 45.862 125.885 45.9036 125.875 45.9453C125.865 45.9818 125.854 46.0234 125.844 46.0703C125.833 46.112 125.823 46.1562 125.812 46.2031C125.792 46.3177 125.773 46.4271 125.758 46.5312C125.742 46.6354 125.776 46.7344 125.859 46.8281C125.849 46.8802 125.852 46.9427 125.867 47.0156C125.883 47.0885 125.901 47.1562 125.922 47.2188C125.943 47.5521 126.003 47.8828 126.102 48.2109C126.201 48.5391 126.307 48.8385 126.422 49.1094C126.422 49.1615 126.43 49.2135 126.445 49.2656C126.461 49.3177 126.479 49.3698 126.5 49.4219C126.531 49.7552 126.5 50.0859 126.406 50.4141C126.359 50.5755 126.312 50.737 126.266 50.8984C126.224 51.0599 126.182 51.2188 126.141 51.375C126.078 51.4792 126.026 51.599 125.984 51.7344C125.948 51.8542 125.896 51.9531 125.828 52.0312C125.776 52.1146 125.729 52.2083 125.688 52.3125C125.646 52.4167 125.562 52.5 125.438 52.5625C125.37 52.5833 125.299 52.5833 125.227 52.5625C125.159 52.5417 125.094 52.5417 125.031 52.5625C124.984 52.5677 124.938 52.5807 124.891 52.6016C124.854 52.6172 124.812 52.625 124.766 52.625C124.63 52.651 124.518 52.638 124.43 52.5859C124.352 52.5443 124.245 52.5104 124.109 52.4844C124.109 52.4531 124.094 52.4297 124.062 52.4141C124.031 52.3984 124.005 52.3802 123.984 52.3594C123.948 52.2031 123.906 52.0833 123.859 52C123.823 51.9271 123.792 51.849 123.766 51.7656C123.734 51.6458 123.719 51.5339 123.719 51.4297C123.719 51.3151 123.693 51.2031 123.641 51.0938C123.599 51 123.581 50.9427 123.586 50.9219C123.591 50.901 123.594 50.8698 123.594 50.8281C123.594 50.6927 123.586 50.5443 123.57 50.3828C123.555 50.2161 123.62 50.0833 123.766 49.9844C123.823 49.9427 123.862 49.888 123.883 49.8203C123.904 49.763 123.948 49.7031 124.016 49.6406C124.036 49.6198 124.07 49.6094 124.117 49.6094C124.154 49.6094 124.188 49.6146 124.219 49.625ZM132.297 43.375C132.526 43.4115 132.724 43.4349 132.891 43.4453C133.062 43.4557 133.25 43.4427 133.453 43.4062L134.07 43.3203C134.237 43.2995 134.438 43.276 134.672 43.25C134.734 43.2448 134.799 43.2448 134.867 43.25C134.904 43.2552 134.938 43.2604 134.969 43.2656C135 43.2656 135.031 43.2656 135.062 43.2656C135.198 43.2656 135.331 43.2604 135.461 43.25C135.591 43.2396 135.714 43.2292 135.828 43.2188C135.849 43.2135 135.867 43.2083 135.883 43.2031C135.904 43.1979 135.922 43.1927 135.938 43.1875C135.969 43.1771 136 43.1771 136.031 43.1875C136.078 43.1875 136.125 43.1875 136.172 43.1875C136.219 43.1875 136.266 43.1849 136.312 43.1797C136.406 43.1745 136.49 43.2083 136.562 43.2812C136.594 43.3854 136.604 43.4427 136.594 43.4531C136.578 43.4688 136.568 43.4844 136.562 43.5C136.552 43.6354 136.534 43.7031 136.508 43.7031C136.482 43.7031 136.469 43.7135 136.469 43.7344C136.385 43.7552 136.315 43.7734 136.258 43.7891C136.201 43.8047 136.156 43.8385 136.125 43.8906C135.948 43.9271 135.784 43.9349 135.633 43.9141C135.482 43.888 135.328 43.9115 135.172 43.9844C135.094 44.0208 135.018 44.0599 134.945 44.1016C134.872 44.1484 134.776 44.151 134.656 44.1094C134.552 44.1094 134.432 44.1146 134.297 44.125C134.161 44.1354 134.031 44.1458 133.906 44.1562C133.729 44.1719 133.529 44.1901 133.305 44.2109C133.086 44.2266 132.917 44.237 132.797 44.2422C132.682 44.2474 132.518 44.2552 132.305 44.2656C132.091 44.276 131.901 44.2812 131.734 44.2812C131.651 44.349 131.596 44.4375 131.57 44.5469C131.544 44.651 131.49 44.7344 131.406 44.7969C131.312 45.0052 131.245 45.138 131.203 45.1953C131.156 45.2578 131.12 45.3385 131.094 45.4375C130.948 45.625 130.815 45.8203 130.695 46.0234C130.586 46.2109 130.448 46.401 130.281 46.5938C130.26 46.7083 130.221 46.8099 130.164 46.8984C130.112 46.9818 130.073 47.099 130.047 47.25C129.938 47.3958 129.854 47.5677 129.797 47.7656C129.771 47.8594 129.74 47.9557 129.703 48.0547C129.672 48.1536 129.635 48.2552 129.594 48.3594C129.573 48.4427 129.549 48.5234 129.523 48.6016C129.497 48.6797 129.469 48.7604 129.438 48.8438C129.401 48.9375 129.352 49.0339 129.289 49.1328C129.263 49.1745 129.234 49.2214 129.203 49.2734C129.177 49.3203 129.151 49.3698 129.125 49.4219C129.104 49.4427 129.094 49.4714 129.094 49.5078C129.094 49.5339 129.089 49.5625 129.078 49.5938C129.062 49.6302 129.047 49.6667 129.031 49.7031C129.016 49.7344 129 49.763 128.984 49.7891C128.964 49.8255 128.938 49.8802 128.906 49.9531C128.891 49.9896 128.878 50.0443 128.867 50.1172C128.857 50.1901 128.844 50.2448 128.828 50.2812C128.823 50.2969 128.818 50.3125 128.812 50.3281C128.807 50.3438 128.802 50.3568 128.797 50.3672C128.792 50.3776 128.786 50.3906 128.781 50.4062C128.776 50.4219 128.771 50.4375 128.766 50.4531C128.734 50.599 128.734 50.6979 128.766 50.75C128.797 50.8021 128.823 50.8542 128.844 50.9062C128.854 50.9375 128.865 50.9661 128.875 50.9922C128.885 51.0182 128.896 51.0443 128.906 51.0703C128.932 51.1172 128.948 51.1667 128.953 51.2188C128.979 51.2292 129.005 51.2396 129.031 51.25C129.057 51.2604 129.081 51.2708 129.102 51.2812C129.143 51.3021 129.193 51.3125 129.25 51.3125C129.318 51.3229 129.385 51.2943 129.453 51.2266C129.526 51.1536 129.589 51.1146 129.641 51.1094C129.703 51.0885 129.773 51.0781 129.852 51.0781C129.919 51.0781 129.979 51.0625 130.031 51.0312C130.062 51.0052 130.091 50.9792 130.117 50.9531C130.143 50.9271 130.167 50.901 130.188 50.875C130.219 50.8281 130.276 50.7917 130.359 50.7656C130.526 50.724 130.615 50.6901 130.625 50.6641C130.63 50.6432 130.667 50.6042 130.734 50.5469C130.771 50.5208 130.805 50.4948 130.836 50.4688C130.872 50.4427 130.904 50.4193 130.93 50.3984C130.971 50.362 131.042 50.3125 131.141 50.25C131.245 50.1979 131.305 50.1667 131.32 50.1562C131.336 50.1458 131.38 50.1094 131.453 50.0469C131.505 50.0208 131.552 49.9948 131.594 49.9688C131.641 49.9375 131.682 49.9062 131.719 49.875C131.776 49.8229 131.859 49.7656 131.969 49.7031C132.094 49.651 132.161 49.6198 132.172 49.6094C132.188 49.5938 132.198 49.5755 132.203 49.5547C132.208 49.5339 132.266 49.4896 132.375 49.4219C132.411 49.3438 132.458 49.276 132.516 49.2188C132.542 49.1927 132.57 49.1641 132.602 49.1328C132.633 49.0964 132.667 49.0573 132.703 49.0156C132.771 48.9375 132.836 48.875 132.898 48.8281C132.971 48.7708 133.031 48.7188 133.078 48.6719C133.099 48.6562 133.125 48.6328 133.156 48.6016C133.188 48.5703 133.224 48.5521 133.266 48.5469C133.297 48.5208 133.323 48.4974 133.344 48.4766C133.37 48.4557 133.393 48.4349 133.414 48.4141C133.435 48.3932 133.458 48.3698 133.484 48.3438C133.516 48.3177 133.552 48.2865 133.594 48.25L133.672 48.1719C133.708 48.1354 133.734 48.1146 133.75 48.1094C133.797 48.1094 133.831 48.125 133.852 48.1562C133.878 48.1875 133.911 48.2031 133.953 48.2031C133.948 48.2708 133.943 48.3255 133.938 48.3672C133.938 48.4089 133.938 48.4401 133.938 48.4609C133.938 48.5026 133.927 48.5417 133.906 48.5781C133.844 48.6771 133.773 48.7292 133.695 48.7344C133.617 48.7448 133.557 48.8021 133.516 48.9062C133.484 48.8854 133.445 48.8802 133.398 48.8906C133.352 48.901 133.318 48.9167 133.297 48.9375C133.318 48.974 133.328 49.0104 133.328 49.0469C133.328 49.0677 133.333 49.1042 133.344 49.1562C133.151 49.349 133.026 49.5 132.969 49.6094C132.839 49.7448 132.771 49.8203 132.766 49.8359L132.75 49.8594L132.625 49.9844C132.479 50.099 132.37 50.2083 132.297 50.3125C132.229 50.4115 132.12 50.5052 131.969 50.5938C131.854 50.6771 131.776 50.7396 131.734 50.7812C131.714 50.8021 131.688 50.8281 131.656 50.8594C131.625 50.8854 131.589 50.9167 131.547 50.9531C131.521 50.9792 131.482 51.0234 131.43 51.0859C131.378 51.1484 131.333 51.1927 131.297 51.2188C131.229 51.2708 131.159 51.3177 131.086 51.3594C131.029 51.3906 130.969 51.4427 130.906 51.5156C130.755 51.5833 130.643 51.6667 130.57 51.7656C130.503 51.8542 130.401 51.9427 130.266 52.0312C130.172 52.0938 130.044 52.1719 129.883 52.2656C129.721 52.3594 129.583 52.4271 129.469 52.4688C129.453 52.474 129.438 52.4792 129.422 52.4844C129.406 52.4896 129.393 52.4948 129.383 52.5C129.372 52.5052 129.359 52.5104 129.344 52.5156C129.328 52.5208 129.312 52.526 129.297 52.5312C129.214 52.4792 129.133 52.4271 129.055 52.375C128.977 52.3229 128.911 52.25 128.859 52.1562C128.76 52.0833 128.685 52.0312 128.633 52C128.57 51.9635 128.516 51.9219 128.469 51.875C128.417 51.7865 128.362 51.6979 128.305 51.6094C128.247 51.5208 128.185 51.4323 128.117 51.3438C127.982 51.1615 127.88 50.9635 127.812 50.75C127.797 50.724 127.784 50.6797 127.773 50.6172L127.75 50.4688C127.74 50.4271 127.729 50.388 127.719 50.3516C127.708 50.3151 127.698 50.2812 127.688 50.25C127.667 50.1979 127.661 50.1198 127.672 50.0156C127.672 49.9427 127.682 49.875 127.703 49.8125C127.714 49.776 127.724 49.7396 127.734 49.7031C127.745 49.6615 127.755 49.6198 127.766 49.5781C127.786 49.5104 127.81 49.4453 127.836 49.3828C127.862 49.3151 127.888 49.25 127.914 49.1875C127.977 49.0469 128.021 48.9115 128.047 48.7812C128.109 48.5625 128.177 48.3542 128.25 48.1562C128.266 48.1198 128.279 48.0703 128.289 48.0078C128.294 47.9609 128.323 47.9271 128.375 47.9062C128.417 47.6979 128.484 47.4974 128.578 47.3047C128.672 47.112 128.766 46.9271 128.859 46.75C128.917 46.6406 128.971 46.5312 129.023 46.4219C129.076 46.3073 129.128 46.1927 129.18 46.0781C129.232 45.9635 129.284 45.8516 129.336 45.7422C129.388 45.6276 129.443 45.5156 129.5 45.4062C129.505 45.2917 129.547 45.1875 129.625 45.0938C129.63 44.9896 129.672 44.8776 129.75 44.7578C129.828 44.638 129.88 44.526 129.906 44.4219C129.792 44.3906 129.664 44.388 129.523 44.4141C129.383 44.4401 129.26 44.4635 129.156 44.4844C128.969 44.4896 128.771 44.4896 128.562 44.4844C128.526 44.4792 128.49 44.474 128.453 44.4688C128.422 44.4583 128.388 44.4505 128.352 44.4453C128.284 44.4297 128.219 44.4219 128.156 44.4219C128.062 44.4271 127.992 44.4193 127.945 44.3984C127.893 44.3724 127.844 44.3698 127.797 44.3906C127.651 44.2656 127.503 44.1562 127.352 44.0625C127.195 43.9688 127.094 43.849 127.047 43.7031C127.047 43.6719 127.062 43.6458 127.094 43.625C127.135 43.5938 127.161 43.5729 127.172 43.5625C127.26 43.5365 127.354 43.5286 127.453 43.5391C127.552 43.5443 127.635 43.526 127.703 43.4844C127.854 43.5052 128.008 43.4948 128.164 43.4531C128.305 43.4115 128.453 43.3958 128.609 43.4062C128.63 43.4062 128.661 43.4115 128.703 43.4219C128.745 43.4323 128.776 43.4375 128.797 43.4375C128.849 43.4427 128.893 43.4427 128.93 43.4375C128.951 43.4323 128.971 43.4271 128.992 43.4219C129.013 43.4167 129.036 43.4115 129.062 43.4062C129.125 43.3958 129.193 43.3958 129.266 43.4062C129.339 43.4167 129.411 43.4167 129.484 43.4062C129.635 43.3958 129.799 43.4089 129.977 43.4453C130.169 43.4818 130.339 43.474 130.484 43.4219C130.51 43.349 130.536 43.276 130.562 43.2031C130.594 43.125 130.628 43.0495 130.664 42.9766C130.737 42.8255 130.792 42.6771 130.828 42.5312C130.87 42.4688 130.911 42.3984 130.953 42.3203C130.995 42.2422 131.026 42.1667 131.047 42.0938L131.195 41.8438C131.216 41.8125 131.237 41.7812 131.258 41.75C131.279 41.7188 131.302 41.6875 131.328 41.6562C131.401 41.5052 131.456 41.362 131.492 41.2266C131.513 41.1536 131.534 41.0807 131.555 41.0078C131.581 40.9297 131.609 40.849 131.641 40.7656C131.708 40.6927 131.776 40.612 131.844 40.5234C131.911 40.4349 131.979 40.3385 132.047 40.2344C132.125 40.2448 132.185 40.224 132.227 40.1719C132.273 40.1198 132.344 40.125 132.438 40.1875C132.438 40.2188 132.451 40.2474 132.477 40.2734C132.503 40.2995 132.505 40.3385 132.484 40.3906C132.589 40.4948 132.656 40.5885 132.688 40.6719C132.708 40.7552 132.701 40.8516 132.664 40.9609C132.628 41.0703 132.635 41.1719 132.688 41.2656C132.708 41.3125 132.714 41.362 132.703 41.4141C132.693 41.4714 132.698 41.5156 132.719 41.5469C132.745 41.6042 132.773 41.6562 132.805 41.7031C132.841 41.7552 132.859 41.8229 132.859 41.9062C132.859 41.9375 132.852 41.9766 132.836 42.0234C132.82 42.0703 132.802 42.1198 132.781 42.1719C132.745 42.3281 132.714 42.4375 132.688 42.5C132.677 42.5312 132.667 42.5651 132.656 42.6016C132.646 42.6328 132.635 42.6667 132.625 42.7031C132.552 42.7917 132.516 42.8464 132.516 42.8672C132.516 42.8828 132.51 42.9062 132.5 42.9375C132.484 42.9688 132.469 43.0052 132.453 43.0469C132.438 43.0833 132.419 43.1224 132.398 43.1641C132.378 43.2057 132.359 43.2448 132.344 43.2812C132.328 43.3177 132.312 43.349 132.297 43.375ZM139.156 50.7656C139.109 50.8385 139.073 50.9323 139.047 51.0469C139.021 51.1615 138.984 51.2552 138.938 51.3281C138.901 51.4115 138.854 51.4896 138.797 51.5625C138.75 51.6198 138.714 51.7083 138.688 51.8281C138.677 51.9115 138.68 51.9948 138.695 52.0781C138.711 52.1771 138.708 52.2552 138.688 52.3125C138.682 52.349 138.661 52.388 138.625 52.4297C138.594 52.4661 138.594 52.5104 138.625 52.5625C138.438 52.6458 138.271 52.6771 138.125 52.6562C137.979 52.6354 137.854 52.5885 137.75 52.5156C137.698 52.526 137.654 52.5208 137.617 52.5C137.581 52.4792 137.542 52.4531 137.5 52.4219C137.448 52.401 137.424 52.3646 137.43 52.3125C137.44 52.2552 137.432 52.2083 137.406 52.1719C137.349 52 137.31 51.8932 137.289 51.8516C137.263 51.7943 137.255 51.7292 137.266 51.6562C137.292 51.5156 137.341 51.4036 137.414 51.3203C137.477 51.2474 137.542 51.151 137.609 51.0312C137.672 50.875 137.732 50.7396 137.789 50.625C137.846 50.5104 137.911 50.401 137.984 50.2969C137.99 50.2656 138.008 50.2292 138.039 50.1875L138.109 50.0938C138.141 50.026 138.161 49.9818 138.172 49.9609L138.234 49.8438C138.25 49.8177 138.266 49.7917 138.281 49.7656C138.297 49.7344 138.31 49.7031 138.32 49.6719C138.331 49.6406 138.344 49.612 138.359 49.5859C138.375 49.5547 138.391 49.526 138.406 49.5C138.427 49.4479 138.453 49.3958 138.484 49.3438L138.578 49.1875C138.583 49.1719 138.589 49.1562 138.594 49.1406C138.599 49.125 138.604 49.1094 138.609 49.0938C138.615 49.0677 138.635 49.0417 138.672 49.0156C138.672 48.9479 138.682 48.9036 138.703 48.8828C138.724 48.862 138.734 48.8125 138.734 48.7344C138.792 48.6667 138.839 48.6016 138.875 48.5391C138.911 48.4766 138.958 48.4115 139.016 48.3438L139.281 47.9141C139.344 47.8151 139.401 47.7083 139.453 47.5938C139.453 47.5417 139.464 47.4974 139.484 47.4609L139.547 47.3438C139.568 47.3125 139.583 47.276 139.594 47.2344C139.599 47.1979 139.62 47.1667 139.656 47.1406C139.729 46.9323 139.792 46.7656 139.844 46.6406C139.896 46.5156 139.948 46.3958 140 46.2812C140.031 46.2083 140.06 46.1589 140.086 46.1328C140.117 46.1016 140.135 46.0781 140.141 46.0625C140.172 45.9844 140.201 45.9167 140.227 45.8594C140.253 45.7969 140.276 45.7474 140.297 45.7109C140.339 45.6276 140.37 45.5469 140.391 45.4688C140.448 45.349 140.505 45.2448 140.562 45.1562C140.625 45.0625 140.672 44.9427 140.703 44.7969C140.745 44.7604 140.773 44.7214 140.789 44.6797C140.805 44.638 140.833 44.599 140.875 44.5625C140.885 44.5312 140.896 44.5 140.906 44.4688C140.922 44.4375 140.938 44.4062 140.953 44.375L141.047 44.1875C141.099 44.1146 141.146 44.026 141.188 43.9219C141.266 43.7708 141.344 43.6432 141.422 43.5391C141.495 43.4401 141.568 43.3177 141.641 43.1719C141.703 43.0208 141.747 42.9219 141.773 42.875C141.805 42.8229 141.823 42.776 141.828 42.7344C141.76 42.7552 141.69 42.7786 141.617 42.8047C141.549 42.8307 141.479 42.8568 141.406 42.8828C141.25 42.9401 141.083 42.9583 140.906 42.9375C140.792 42.9167 140.716 42.9167 140.68 42.9375C140.643 42.9583 140.604 42.9688 140.562 42.9688C140.49 42.9792 140.445 42.9844 140.43 42.9844C140.388 42.9844 140.349 42.9948 140.312 43.0156C140.224 43.0469 140.148 43.0755 140.086 43.1016C140.029 43.1224 139.982 43.1406 139.945 43.1562C139.878 43.1875 139.807 43.1823 139.734 43.1406C139.74 43.099 139.745 43.0573 139.75 43.0156C139.755 42.9688 139.76 42.9219 139.766 42.875C139.776 42.7812 139.807 42.7031 139.859 42.6406C140.109 42.4323 140.383 42.2526 140.68 42.1016C140.977 41.9505 141.286 41.8021 141.609 41.6562C141.724 41.625 141.828 41.5964 141.922 41.5703C142.016 41.5443 142.104 41.5104 142.188 41.4688C142.271 41.2917 142.359 41.125 142.453 40.9688C142.547 40.8125 142.656 40.6719 142.781 40.5469C142.891 40.4792 142.938 40.4531 142.922 40.4688C142.911 40.4792 142.932 40.4844 142.984 40.4844C143.042 40.5104 143.089 40.5729 143.125 40.6719C143.151 40.7031 143.174 40.7448 143.195 40.7969C143.211 40.8438 143.245 40.8698 143.297 40.875C143.328 40.8854 143.362 40.8828 143.398 40.8672C143.451 40.8464 143.49 40.8333 143.516 40.8281C143.625 40.8177 143.706 40.8021 143.758 40.7812C143.805 40.7604 143.859 40.7552 143.922 40.7656C143.964 40.75 144.023 40.737 144.102 40.7266C144.18 40.7161 144.24 40.7031 144.281 40.6875C144.359 40.6771 144.424 40.6615 144.477 40.6406C144.534 40.6146 144.604 40.599 144.688 40.5938C144.943 40.5729 145.229 40.599 145.547 40.6719C145.573 40.6875 145.617 40.7109 145.68 40.7422L145.828 40.8125C145.927 40.8594 146.003 40.8906 146.055 40.9062C146.128 40.9271 146.188 40.9635 146.234 41.0156C146.333 41.1146 146.417 41.2188 146.484 41.3281C146.526 41.3333 146.562 41.3542 146.594 41.3906C146.615 41.4115 146.646 41.4375 146.688 41.4688C146.719 41.526 146.75 41.5807 146.781 41.6328C146.812 41.6849 146.844 41.737 146.875 41.7891C146.932 41.8828 146.974 42 147 42.1406C147.026 42.3177 147.018 42.4974 146.977 42.6797C146.956 42.7682 146.938 42.8594 146.922 42.9531C146.906 43.0417 146.891 43.1302 146.875 43.2188C146.865 43.2708 146.854 43.3203 146.844 43.3672C146.833 43.4141 146.823 43.4583 146.812 43.5C146.802 43.5417 146.799 43.5755 146.805 43.6016C146.81 43.6276 146.812 43.6667 146.812 43.7188C146.807 43.8385 146.784 43.9583 146.742 44.0781C146.711 44.1771 146.677 44.2917 146.641 44.4219C146.557 44.724 146.471 45.0104 146.383 45.2812C146.294 45.5521 146.141 45.7708 145.922 45.9375C145.87 46.0208 145.812 46.0938 145.75 46.1562L145.547 46.3594C145.411 46.526 145.234 46.6562 145.016 46.75C144.714 46.9688 144.396 47.1719 144.062 47.3594L143.688 47.6094C143.568 47.6927 143.432 47.7656 143.281 47.8281C143.219 47.8854 143.138 47.9401 143.039 47.9922C142.997 48.013 142.953 48.0365 142.906 48.0625C142.859 48.0885 142.812 48.1146 142.766 48.1406L142.102 48.4688C142.003 48.5208 141.896 48.5703 141.781 48.6172C141.672 48.6589 141.557 48.6979 141.438 48.7344C141.25 48.776 141.073 48.8047 140.906 48.8203C140.74 48.8359 140.583 48.8229 140.438 48.7812C140.422 48.776 140.401 48.7682 140.375 48.7578C140.354 48.7474 140.331 48.737 140.305 48.7266C140.242 48.7005 140.203 48.6875 140.188 48.6875C140.135 48.7083 140.094 48.7734 140.062 48.8828C140.026 49.0026 140 49.0833 139.984 49.125C139.922 49.2812 139.849 49.4245 139.766 49.5547C139.672 49.7057 139.594 49.849 139.531 49.9844L139.344 50.375C139.312 50.4427 139.281 50.5104 139.25 50.5781C139.219 50.6406 139.188 50.7031 139.156 50.7656ZM141.312 47.4062C141.396 47.3438 141.5 47.3177 141.625 47.3281C141.766 47.3385 141.875 47.3333 141.953 47.3125C142.047 47.2865 142.102 47.2786 142.117 47.2891C142.128 47.2943 142.146 47.2969 142.172 47.2969C142.203 47.2969 142.245 47.2917 142.297 47.2812C142.349 47.2708 142.385 47.2604 142.406 47.25C142.469 47.2292 142.529 47.2057 142.586 47.1797C142.648 47.1484 142.708 47.1146 142.766 47.0781C142.823 47.0417 142.88 47.0104 142.938 46.9844C142.995 46.9531 143.052 46.9271 143.109 46.9062C143.156 46.8594 143.214 46.8151 143.281 46.7734C143.312 46.7526 143.344 46.7318 143.375 46.7109C143.411 46.6901 143.448 46.6667 143.484 46.6406L143.641 46.4844C143.688 46.4375 143.75 46.401 143.828 46.375C143.875 46.3021 143.906 46.2578 143.922 46.2422C143.932 46.2318 143.938 46.224 143.938 46.2188C144.042 46.1458 144.128 46.0599 144.195 45.9609C144.263 45.862 144.333 45.7552 144.406 45.6406C144.479 45.5469 144.552 45.4505 144.625 45.3516C144.698 45.2526 144.76 45.1458 144.812 45.0312L144.984 44.8047C145.031 44.7474 145.083 44.6719 145.141 44.5781C145.161 44.5573 145.172 44.5312 145.172 44.5C145.172 44.4635 145.182 44.4323 145.203 44.4062C145.266 44.2708 145.307 44.1875 145.328 44.1562C145.359 44.0521 145.396 43.9792 145.438 43.9375C145.448 43.9167 145.458 43.8984 145.469 43.8828C145.479 43.862 145.49 43.8438 145.5 43.8281C145.51 43.8125 145.521 43.7969 145.531 43.7812C145.542 43.7604 145.552 43.7396 145.562 43.7188C145.578 43.6823 145.602 43.638 145.633 43.5859L145.703 43.4688C145.719 43.4531 145.732 43.4271 145.742 43.3906C145.753 43.349 145.766 43.3177 145.781 43.2969C145.786 43.2656 145.799 43.237 145.82 43.2109C145.841 43.1797 145.854 43.1562 145.859 43.1406C145.891 43.0521 145.896 42.9635 145.875 42.875C145.854 42.7917 145.844 42.7135 145.844 42.6406C145.823 42.5625 145.805 42.4922 145.789 42.4297C145.779 42.3672 145.771 42.3125 145.766 42.2656C145.76 42.1771 145.729 42.1042 145.672 42.0469C145.656 42.0312 145.63 42.0182 145.594 42.0078C145.557 41.9974 145.531 41.9844 145.516 41.9688C145.406 41.9271 145.336 41.9089 145.305 41.9141C145.268 41.9193 145.224 41.9115 145.172 41.8906C145.104 41.9219 145.018 41.9297 144.914 41.9141C144.826 41.8984 144.719 41.8958 144.594 41.9062C144.536 41.9062 144.474 41.9193 144.406 41.9453C144.339 41.9714 144.281 41.974 144.234 41.9531C144.141 41.9948 144.068 42.0156 144.016 42.0156C143.943 42.026 143.896 42.0312 143.875 42.0312C143.844 42.0312 143.802 42.0365 143.75 42.0469C143.682 42.0573 143.615 42.0729 143.547 42.0938C143.484 42.1094 143.424 42.1302 143.367 42.1562C143.258 42.2083 143.13 42.2552 142.984 42.2969C142.984 42.3854 142.974 42.4583 142.953 42.5156C142.932 42.5729 142.922 42.6406 142.922 42.7188C142.854 42.9115 142.781 43.0833 142.703 43.2344C142.661 43.3177 142.622 43.4036 142.586 43.4922C142.555 43.5755 142.526 43.6615 142.5 43.75C142.385 43.9583 142.281 44.1745 142.188 44.3984C142.089 44.6328 141.984 44.8542 141.875 45.0625C141.844 45.1302 141.81 45.1979 141.773 45.2656C141.737 45.3333 141.698 45.401 141.656 45.4688C141.578 45.5938 141.526 45.75 141.5 45.9375C141.448 46.0521 141.409 46.1615 141.383 46.2656C141.372 46.3177 141.357 46.3698 141.336 46.4219C141.32 46.4688 141.302 46.5156 141.281 46.5625C141.271 46.5885 141.26 46.6146 141.25 46.6406C141.24 46.6615 141.229 46.6823 141.219 46.7031C141.208 46.724 141.198 46.7474 141.188 46.7734C141.177 46.7943 141.167 46.8177 141.156 46.8438C141.13 46.875 141.115 46.9089 141.109 46.9453C141.104 46.9766 141.089 47.0208 141.062 47.0781C141.01 47.1615 140.977 47.2396 140.961 47.3125C140.956 47.3438 140.948 47.375 140.938 47.4062C140.927 47.4375 140.917 47.4688 140.906 47.5C140.943 47.4948 141.003 47.474 141.086 47.4375C141.148 47.4062 141.224 47.3958 141.312 47.4062ZM150.109 48.3125C150.214 48.3385 150.289 48.375 150.336 48.4219C150.372 48.4583 150.391 48.5 150.391 48.5469C150.307 48.6615 150.258 48.737 150.242 48.7734C150.227 48.8099 150.193 48.8385 150.141 48.8594C150.073 48.9635 150 49.0625 149.922 49.1562C149.849 49.2448 149.768 49.3307 149.68 49.4141C149.518 49.5703 149.359 49.75 149.203 49.9531C149.135 50.0208 149.089 50.0729 149.062 50.1094C149.036 50.1458 148.99 50.1979 148.922 50.2656C148.797 50.3542 148.693 50.4453 148.609 50.5391C148.562 50.5911 148.513 50.6406 148.461 50.6875C148.414 50.7292 148.365 50.7708 148.312 50.8125C148.286 50.8333 148.26 50.8542 148.234 50.875C148.214 50.8906 148.19 50.9089 148.164 50.9297C148.143 50.9505 148.12 50.9714 148.094 50.9922C148.068 51.013 148.042 51.0365 148.016 51.0625C147.974 51.1042 147.927 51.1458 147.875 51.1875C147.854 51.2031 147.831 51.2214 147.805 51.2422C147.784 51.2578 147.76 51.276 147.734 51.2969C147.672 51.3698 147.609 51.4427 147.547 51.5156C147.484 51.5885 147.422 51.6667 147.359 51.75C147.25 51.8021 147.146 51.8646 147.047 51.9375C146.953 52.0052 146.844 52.0677 146.719 52.125C146.667 52.1562 146.617 52.2057 146.57 52.2734C146.529 52.3359 146.469 52.3802 146.391 52.4062C146.307 52.4375 146.219 52.4453 146.125 52.4297C146.031 52.4141 145.953 52.3906 145.891 52.3594C145.823 52.3125 145.781 52.2865 145.766 52.2812C145.724 52.2708 145.698 52.2656 145.688 52.2656C145.589 52.125 145.521 51.9766 145.484 51.8203C145.464 51.737 145.44 51.6536 145.414 51.5703C145.393 51.487 145.37 51.401 145.344 51.3125C145.323 51.2604 145.307 51.2057 145.297 51.1484C145.286 51.0911 145.276 51.026 145.266 50.9531L145.242 50.8281C145.237 50.8073 145.232 50.7865 145.227 50.7656C145.221 50.7396 145.214 50.7135 145.203 50.6875C145.182 50.6354 145.161 50.5807 145.141 50.5234C145.12 50.4661 145.104 50.4062 145.094 50.3438C145.073 50.2188 145.065 50.0964 145.07 49.9766C145.076 49.8568 145.089 49.7396 145.109 49.625C145.172 49.2812 145.263 48.9531 145.383 48.6406C145.503 48.3281 145.625 48.0312 145.75 47.75C145.776 47.6198 145.805 47.5208 145.836 47.4531C145.867 47.3854 145.901 47.2917 145.938 47.1719C145.984 47.1146 146.021 47.0312 146.047 46.9219C146.057 46.875 146.068 46.8281 146.078 46.7812C146.094 46.7344 146.109 46.6875 146.125 46.6406C146.141 46.599 146.159 46.5573 146.18 46.5156C146.201 46.4688 146.221 46.4193 146.242 46.3672C146.284 46.2734 146.318 46.1771 146.344 46.0781C146.38 45.9583 146.409 45.8542 146.43 45.7656C146.44 45.7135 146.453 45.6641 146.469 45.6172C146.49 45.5703 146.51 45.526 146.531 45.4844C146.573 45.375 146.612 45.2682 146.648 45.1641C146.69 45.0599 146.729 44.9583 146.766 44.8594C146.802 44.7604 146.839 44.6615 146.875 44.5625C146.917 44.4635 146.958 44.3646 147 44.2656C147.01 44.2344 147.021 44.2031 147.031 44.1719C147.042 44.1406 147.052 44.1094 147.062 44.0781C147.083 44.0208 147.115 43.9635 147.156 43.9062C147.182 43.8333 147.208 43.7786 147.234 43.7422C147.276 43.6797 147.307 43.6302 147.328 43.5938C147.328 43.5365 147.346 43.4974 147.383 43.4766C147.409 43.4609 147.438 43.4271 147.469 43.375C147.526 43.2865 147.565 43.2031 147.586 43.125C147.607 43.0469 147.646 42.9635 147.703 42.875L147.891 42.6406C147.901 42.6198 147.911 42.599 147.922 42.5781C147.932 42.5573 147.943 42.5365 147.953 42.5156C147.979 42.474 148.01 42.4375 148.047 42.4062C148.167 42.2188 148.292 42.0312 148.422 41.8438L148.844 41.25C148.938 41.1042 149.042 40.9661 149.156 40.8359C149.271 40.7057 149.391 40.5781 149.516 40.4531C149.557 40.401 149.607 40.3438 149.664 40.2812C149.721 40.2188 149.781 40.1823 149.844 40.1719C149.943 40.1615 150.047 40.1719 150.156 40.2031C150.188 40.2552 150.216 40.3099 150.242 40.3672C150.268 40.4245 150.292 40.4896 150.312 40.5625C150.333 40.8854 150.323 41.1979 150.281 41.5C150.24 41.8021 150.193 42.099 150.141 42.3906C150.13 42.4583 150.128 42.5078 150.133 42.5391C150.138 42.5703 150.135 42.6198 150.125 42.6875C150.104 42.75 150.078 42.8307 150.047 42.9297C150.016 43.0286 149.99 43.1198 149.969 43.2031C149.969 43.3438 149.938 43.474 149.875 43.5938C149.812 43.7083 149.771 43.8229 149.75 43.9375C149.719 43.9583 149.701 43.9922 149.695 44.0391C149.69 44.0859 149.672 44.1198 149.641 44.1406C149.615 44.2604 149.581 44.3646 149.539 44.4531C149.492 44.5469 149.453 44.6406 149.422 44.7344C149.344 44.8438 149.266 44.9505 149.188 45.0547C149.109 45.1589 149.029 45.263 148.945 45.3672C148.862 45.4661 148.781 45.5703 148.703 45.6797C148.63 45.7839 148.557 45.8906 148.484 46C148.302 46.276 148.112 46.5365 147.914 46.7812C147.716 47.026 147.526 47.2865 147.344 47.5625C147.198 47.6927 147.083 47.8229 147 47.9531C146.911 48.0938 146.792 48.224 146.641 48.3438C146.615 48.4479 146.589 48.5573 146.562 48.6719C146.542 48.7865 146.518 48.9036 146.492 49.0234C146.471 49.1432 146.448 49.2656 146.422 49.3906C146.396 49.5156 146.37 49.6406 146.344 49.7656C146.339 49.8333 146.323 49.9036 146.297 49.9766C146.286 50.013 146.276 50.0495 146.266 50.0859C146.255 50.1172 146.245 50.151 146.234 50.1875C146.214 50.2604 146.208 50.349 146.219 50.4531C146.224 50.5469 146.208 50.6354 146.172 50.7188C146.188 50.7604 146.201 50.8203 146.211 50.8984C146.216 50.9661 146.234 51.026 146.266 51.0781C146.323 51.1719 146.385 51.2188 146.453 51.2188C146.531 51.1771 146.573 51.1589 146.578 51.1641C146.583 51.1693 146.599 51.1667 146.625 51.1562C146.677 51.125 146.729 51.0833 146.781 51.0312C146.833 50.9792 146.88 50.9323 146.922 50.8906C146.979 50.8646 147.018 50.8411 147.039 50.8203C147.055 50.8047 147.083 50.7812 147.125 50.75C147.156 50.7292 147.185 50.7135 147.211 50.7031C147.237 50.6927 147.26 50.6771 147.281 50.6562C147.432 50.5 147.573 50.3828 147.703 50.3047C147.839 50.2266 147.948 50.1302 148.031 50.0156L148.312 49.8438C148.37 49.8125 148.424 49.7682 148.477 49.7109C148.523 49.6536 148.583 49.6094 148.656 49.5781C148.688 49.5365 148.708 49.5104 148.719 49.5C148.729 49.4896 148.75 49.4635 148.781 49.4219C148.844 49.3802 148.906 49.3385 148.969 49.2969C149.031 49.2552 149.091 49.2135 149.148 49.1719C149.206 49.1302 149.266 49.0885 149.328 49.0469C149.396 49.0052 149.464 48.9635 149.531 48.9219C149.552 48.8698 149.586 48.8281 149.633 48.7969C149.68 48.7656 149.719 48.7344 149.75 48.7031C149.781 48.6719 149.807 48.638 149.828 48.6016C149.854 48.5599 149.891 48.5365 149.938 48.5312C149.943 48.4844 149.966 48.4479 150.008 48.4219C150.049 48.3958 150.083 48.3594 150.109 48.3125ZM149.266 42.4844H149.25C149.156 42.5052 149.091 42.5521 149.055 42.625C149.018 42.6979 148.984 42.7812 148.953 42.875C148.932 42.9167 148.911 42.9531 148.891 42.9844C148.875 43.0156 148.862 43.0417 148.852 43.0625C148.831 43.099 148.823 43.1615 148.828 43.25C148.667 43.5156 148.513 43.7891 148.367 44.0703C148.221 44.3464 148.081 44.6302 147.945 44.9219C147.815 45.2135 147.682 45.5078 147.547 45.8047C147.411 46.0964 147.276 46.3906 147.141 46.6875C147.354 46.474 147.549 46.224 147.727 45.9375C147.815 45.7917 147.906 45.6562 148 45.5312C148.099 45.4062 148.198 45.2917 148.297 45.1875C148.37 45.0104 148.445 44.8385 148.523 44.6719C148.607 44.5052 148.693 44.3464 148.781 44.1953C148.953 43.9036 149.089 43.5573 149.188 43.1562C149.146 43.026 149.151 42.9141 149.203 42.8203C149.255 42.7266 149.276 42.6146 149.266 42.4844ZM152.588 47.6562L152.572 47.7812C152.582 47.8177 152.572 47.8802 152.541 47.9688C152.489 48.0312 152.457 48.099 152.447 48.1719C152.426 48.2135 152.408 48.25 152.392 48.2812C152.377 48.3125 152.364 48.3542 152.353 48.4062C152.332 48.4688 152.324 48.5417 152.33 48.625C152.335 48.6667 152.335 48.7083 152.33 48.75C152.33 48.7865 152.327 48.8229 152.322 48.8594C152.301 48.974 152.285 49.0859 152.275 49.1953C152.265 49.3047 152.254 49.4167 152.244 49.5312C152.244 49.6458 152.233 49.776 152.213 49.9219C152.192 50.0677 152.171 50.1979 152.15 50.3125C152.197 50.3958 152.223 50.474 152.228 50.5469C152.233 50.625 152.27 50.6927 152.338 50.75C152.546 50.7188 152.713 50.6693 152.838 50.6016C152.963 50.5339 153.082 50.4375 153.197 50.3125C153.28 50.276 153.345 50.2396 153.392 50.2031C153.434 50.1667 153.494 50.125 153.572 50.0781L153.697 49.9531C153.822 49.8854 153.892 49.8438 153.908 49.8281C153.918 49.8177 153.931 49.8073 153.947 49.7969C153.968 49.7865 153.989 49.776 154.009 49.7656C154.186 49.651 154.322 49.5312 154.416 49.4062C154.494 49.3438 154.559 49.2786 154.611 49.2109C154.653 49.1536 154.733 49.099 154.853 49.0469C154.921 48.9635 154.996 48.8932 155.08 48.8359C155.163 48.7786 155.239 48.7083 155.306 48.625C155.364 48.625 155.405 48.6354 155.431 48.6562C155.447 48.6667 155.463 48.6771 155.478 48.6875C155.499 48.6979 155.52 48.7083 155.541 48.7188C155.572 48.8021 155.577 48.888 155.556 48.9766C155.535 49.0651 155.499 49.1458 155.447 49.2188C155.395 49.2865 155.369 49.3281 155.369 49.3438C155.369 49.3542 155.364 49.3646 155.353 49.375C155.322 49.4115 155.283 49.4505 155.236 49.4922C155.189 49.5286 155.15 49.5677 155.119 49.6094C155.067 49.7031 155.025 49.75 154.994 49.75C154.963 49.75 154.936 49.7604 154.916 49.7812C154.822 49.8385 154.757 49.8802 154.72 49.9062C154.679 49.9427 154.619 49.9844 154.541 50.0312C154.431 50.0885 154.364 50.1302 154.338 50.1562C154.311 50.1823 154.291 50.1979 154.275 50.2031C154.15 50.3438 154.028 50.4609 153.908 50.5547C153.798 50.638 153.681 50.7552 153.556 50.9062C153.515 50.9375 153.473 50.9688 153.431 51C153.39 51.0312 153.353 51.0729 153.322 51.125C153.228 51.1875 153.153 51.25 153.095 51.3125C153.038 51.375 152.973 51.4479 152.9 51.5312C152.838 51.5625 152.77 51.6068 152.697 51.6641C152.608 51.7318 152.53 51.7812 152.463 51.8125C152.436 51.8281 152.392 51.8516 152.33 51.8828C152.278 51.9089 152.228 51.9219 152.181 51.9219C152.061 51.9427 151.947 51.9323 151.838 51.8906C151.739 51.8542 151.64 51.8229 151.541 51.7969C151.499 51.7344 151.447 51.6823 151.384 51.6406C151.291 51.526 151.223 51.3906 151.181 51.2344C151.14 51.0781 151.098 50.9115 151.056 50.7344C150.963 50.7969 150.884 50.8646 150.822 50.9375C150.759 51.0156 150.666 51.0833 150.541 51.1406C150.436 51.2396 150.33 51.3385 150.22 51.4375C150.111 51.5312 149.996 51.6224 149.877 51.7109C149.762 51.7995 149.645 51.8932 149.525 51.9922C149.405 52.0859 149.285 52.1823 149.166 52.2812C149.082 52.3646 149.025 52.3958 148.994 52.375C148.9 52.4896 148.733 52.526 148.494 52.4844C148.41 52.4427 148.317 52.4062 148.213 52.375C148.14 52.3542 148.056 52.3229 147.963 52.2812C147.785 52.25 147.637 52.1719 147.517 52.0469C147.397 51.9219 147.296 51.776 147.213 51.6094C147.181 51.5208 147.158 51.4427 147.142 51.375C147.137 51.3385 147.129 51.2995 147.119 51.2578C147.108 51.2161 147.098 51.1719 147.088 51.125C147.082 51.0365 147.067 50.9661 147.041 50.9141C147.02 50.8568 147.02 50.8021 147.041 50.75C147.02 50.724 147.015 50.6901 147.025 50.6484C147.035 50.5964 147.041 50.5573 147.041 50.5312C147.03 50.3854 147.043 50.2292 147.08 50.0625C147.116 49.8958 147.166 49.7448 147.228 49.6094C147.259 49.5573 147.301 49.5052 147.353 49.4531C147.379 49.4219 147.395 49.3906 147.4 49.3594C147.405 49.3333 147.421 49.3073 147.447 49.2812C147.473 49.25 147.504 49.2188 147.541 49.1875C147.593 49.1458 147.629 49.1146 147.65 49.0938C147.676 49.0573 147.702 49.0234 147.728 48.9922C147.759 48.9557 147.793 48.9245 147.83 48.8984C147.866 48.8724 147.9 48.8438 147.931 48.8125C147.963 48.7812 147.994 48.75 148.025 48.7188C148.061 48.6823 148.09 48.6458 148.111 48.6094C148.137 48.5677 148.176 48.5365 148.228 48.5156C148.27 48.4427 148.317 48.3828 148.369 48.3359C148.421 48.2891 148.478 48.2396 148.541 48.1875C148.718 47.974 148.936 47.7917 149.197 47.6406C149.463 47.4896 149.697 47.3229 149.9 47.1406C149.973 47.1094 150.035 47.0729 150.088 47.0312C150.14 46.9896 150.192 46.9479 150.244 46.9062C150.374 46.7917 150.515 46.7552 150.666 46.7969L151.072 46.9062C151.176 47 151.278 47.0938 151.377 47.1875C151.476 47.2812 151.561 47.3854 151.634 47.5C151.671 47.4948 151.71 47.4922 151.752 47.4922C151.793 47.487 151.838 47.487 151.884 47.4922C151.978 47.5026 152.077 47.4948 152.181 47.4688C152.213 47.4688 152.244 47.4609 152.275 47.4453C152.306 47.4297 152.332 47.4219 152.353 47.4219C152.509 47.474 152.588 47.5521 152.588 47.6562ZM150.525 47.8906C150.244 48.026 149.989 48.1849 149.759 48.3672C149.53 48.5495 149.311 48.7448 149.103 48.9531C149.077 48.9792 149.048 49.0052 149.017 49.0312C148.991 49.0521 148.965 49.0755 148.939 49.1016C148.913 49.1224 148.887 49.1458 148.861 49.1719C148.835 49.1979 148.811 49.224 148.791 49.25C148.749 49.3021 148.71 49.3646 148.673 49.4375C148.637 49.5104 148.603 49.5781 148.572 49.6406C148.561 49.6615 148.551 49.6823 148.541 49.7031C148.53 49.7188 148.52 49.7318 148.509 49.7422C148.499 49.7526 148.489 49.7656 148.478 49.7812C148.468 49.7969 148.457 49.8125 148.447 49.8281C148.426 49.8802 148.418 49.9323 148.423 49.9844C148.429 50.0208 148.431 50.0781 148.431 50.1562V50.3125C148.431 50.3438 148.436 50.3958 148.447 50.4688C148.478 50.5833 148.494 50.6979 148.494 50.8125C148.494 50.8958 148.502 50.9974 148.517 51.1172C148.533 51.237 148.572 51.3177 148.634 51.3594C148.702 51.401 148.767 51.4115 148.83 51.3906C148.903 51.3646 148.963 51.349 149.009 51.3438C149.374 51.0625 149.718 50.7682 150.041 50.4609C150.364 50.1536 150.65 49.8073 150.9 49.4219C150.879 49.1667 150.877 48.9036 150.892 48.6328C150.908 48.3776 150.884 48.1406 150.822 47.9219C150.78 47.8958 150.731 47.888 150.673 47.8984C150.632 47.9036 150.582 47.901 150.525 47.8906ZM155.119 50.7656C155.218 50.7865 155.311 50.7604 155.4 50.6875C155.494 50.6094 155.582 50.5469 155.666 50.5C155.707 50.4479 155.757 50.3932 155.814 50.3359C155.871 50.2786 155.931 50.2292 155.994 50.1875C156.067 50.0938 156.142 50.0026 156.22 49.9141C156.304 49.8255 156.39 49.7396 156.478 49.6562C156.52 49.6042 156.561 49.5547 156.603 49.5078C156.645 49.4557 156.686 49.4062 156.728 49.3594C156.77 49.3125 156.811 49.2656 156.853 49.2188C156.895 49.1667 156.936 49.1146 156.978 49.0625C157.02 49.0052 157.061 48.9375 157.103 48.8594C157.119 48.8281 157.134 48.7969 157.15 48.7656C157.171 48.7344 157.192 48.7031 157.213 48.6719C157.27 48.5781 157.33 48.4948 157.392 48.4219C157.46 48.3385 157.509 48.2396 157.541 48.125C157.582 48.0573 157.637 48.0052 157.705 47.9688C157.772 47.9323 157.827 47.8802 157.869 47.8125C157.895 47.7812 157.921 47.7344 157.947 47.6719C157.968 47.6198 157.999 47.5781 158.041 47.5469C158.082 47.5156 158.106 47.4896 158.111 47.4688C158.121 47.4427 158.134 47.4219 158.15 47.4062C158.181 47.349 158.22 47.3021 158.267 47.2656C158.319 47.2188 158.364 47.1719 158.4 47.125C158.53 47.0208 158.624 46.9401 158.681 46.8828C158.739 46.8255 158.817 46.7656 158.916 46.7031C159.103 46.6406 159.293 46.6198 159.486 46.6406C159.679 46.6615 159.817 46.7292 159.9 46.8438C159.905 46.9115 159.913 46.9792 159.923 47.0469C159.934 47.1094 159.944 47.1693 159.955 47.2266C159.981 47.3516 159.963 47.5052 159.9 47.6875C159.858 47.7917 159.806 47.8958 159.744 48C159.686 48.0938 159.64 48.1979 159.603 48.3125L159.541 48.4062C159.509 48.4479 159.489 48.474 159.478 48.4844C159.379 48.7656 159.27 49.0391 159.15 49.3047C159.093 49.4349 159.035 49.5677 158.978 49.7031C158.921 49.8385 158.864 49.974 158.806 50.1094C159.082 49.974 159.28 49.8646 159.4 49.7812C159.468 49.7344 159.538 49.6901 159.611 49.6484C159.684 49.6016 159.759 49.5573 159.838 49.5156L160.119 49.3281C160.166 49.2969 160.213 49.2656 160.259 49.2344C160.311 49.2031 160.364 49.1719 160.416 49.1406C160.499 49.0365 160.593 48.9505 160.697 48.8828C160.801 48.8151 160.91 48.7448 161.025 48.6719C161.098 48.599 161.171 48.5391 161.244 48.4922C161.317 48.4453 161.395 48.3958 161.478 48.3438C161.504 48.3229 161.53 48.3021 161.556 48.2812C161.582 48.2604 161.606 48.2396 161.627 48.2188C161.689 48.1667 161.739 48.1302 161.775 48.1094L161.892 47.9844C161.944 47.9323 161.989 47.8958 162.025 47.875C162.119 47.8385 162.213 47.7917 162.306 47.7344C162.358 47.7031 162.397 47.6771 162.423 47.6562C162.46 47.625 162.504 47.599 162.556 47.5781L162.666 47.4297C162.707 47.3672 162.765 47.349 162.838 47.375C162.864 47.3438 162.903 47.3281 162.955 47.3281C163.017 47.3281 163.061 47.3385 163.088 47.3594C163.088 47.3958 163.095 47.4271 163.111 47.4531C163.127 47.4792 163.124 47.5156 163.103 47.5625C163.051 47.599 163.004 47.638 162.963 47.6797C162.931 47.7109 162.879 47.7396 162.806 47.7656C162.676 47.9062 162.559 48.0104 162.455 48.0781C162.356 48.1406 162.275 48.2292 162.213 48.3438C162.035 48.5208 161.853 48.6979 161.666 48.875C161.478 49.0521 161.291 49.224 161.103 49.3906C161.046 49.3906 160.989 49.4115 160.931 49.4531C160.874 49.4948 160.822 49.5052 160.775 49.4844C160.713 49.4583 160.66 49.5 160.619 49.6094C160.348 49.8958 160.046 50.151 159.713 50.375C159.509 50.5885 159.275 50.7786 159.009 50.9453C158.739 51.1172 158.504 51.3021 158.306 51.5C158.285 51.7031 158.231 51.9036 158.142 52.1016C158.054 52.2995 157.983 52.4896 157.931 52.6719C157.89 52.7604 157.853 52.8438 157.822 52.9219C157.796 53 157.772 53.0729 157.752 53.1406C157.71 53.2812 157.655 53.4115 157.588 53.5312C157.556 53.7083 157.504 53.8724 157.431 54.0234C157.358 54.1745 157.28 54.3229 157.197 54.4688C157.171 54.5938 157.119 54.7031 157.041 54.7969C156.968 54.8854 156.9 55 156.838 55.1406C156.811 55.1979 156.785 55.2474 156.759 55.2891C156.733 55.3307 156.707 55.3802 156.681 55.4375C156.65 55.4896 156.624 55.5417 156.603 55.5938C156.582 55.6458 156.556 55.6979 156.525 55.75L156.463 55.8203C156.452 55.8307 156.442 55.8411 156.431 55.8516C156.421 55.8672 156.41 55.8802 156.4 55.8906L156.213 56.2188C156.124 56.4062 156.017 56.5547 155.892 56.6641C155.824 56.7214 155.757 56.7839 155.689 56.8516C155.621 56.9193 155.551 56.9896 155.478 57.0625C155.431 57.1094 155.387 57.1615 155.345 57.2188C155.309 57.2708 155.265 57.3229 155.213 57.375C155.145 57.4427 155.093 57.4922 155.056 57.5234C155.03 57.5443 155.004 57.5677 154.978 57.5938C154.952 57.625 154.926 57.6562 154.9 57.6875C154.817 57.7188 154.749 57.7682 154.697 57.8359C154.645 57.9036 154.593 57.974 154.541 58.0469C154.489 58.0781 154.455 58.1016 154.439 58.1172C154.423 58.1328 154.39 58.1562 154.338 58.1875C154.265 58.2135 154.213 58.237 154.181 58.2578C154.145 58.2839 154.124 58.2969 154.119 58.2969C154.051 58.3333 153.973 58.3568 153.884 58.3672C153.796 58.3776 153.723 58.4062 153.666 58.4531C153.561 58.4531 153.486 58.4323 153.439 58.3906C153.392 58.349 153.348 58.3021 153.306 58.25C153.233 58.1146 153.21 57.974 153.236 57.8281C153.257 57.6823 153.291 57.5286 153.338 57.3672C153.384 57.2057 153.4 57.0365 153.384 56.8594C153.442 56.6927 153.473 56.5521 153.478 56.4375C153.483 56.3333 153.504 56.2292 153.541 56.125C153.619 55.9948 153.66 55.9115 153.666 55.875C153.671 55.8281 153.702 55.7917 153.759 55.7656C153.77 55.6979 153.785 55.6458 153.806 55.6094C153.832 55.5677 153.848 55.5208 153.853 55.4688C153.884 55.4479 153.91 55.4219 153.931 55.3906C153.952 55.3646 153.983 55.3385 154.025 55.3125C154.077 55.2083 154.124 55.112 154.166 55.0234C154.207 54.9349 154.241 54.8542 154.267 54.7812C154.293 54.7083 154.322 54.6354 154.353 54.5625C154.39 54.4896 154.426 54.4167 154.463 54.3438C154.478 54.3021 154.491 54.2604 154.502 54.2188C154.517 54.1823 154.53 54.1458 154.541 54.1094C154.551 54.0729 154.561 54.0365 154.572 54C154.588 53.9688 154.603 53.9375 154.619 53.9062C154.666 53.8021 154.736 53.6875 154.83 53.5625L155.088 53.2188C155.124 53.1719 155.155 53.1302 155.181 53.0938C155.207 53.0625 155.226 53.0365 155.236 53.0156C155.267 52.9635 155.291 52.9271 155.306 52.9062C155.395 52.8438 155.434 52.8047 155.423 52.7891C155.418 52.7734 155.421 52.7656 155.431 52.7656C155.572 52.625 155.707 52.5 155.838 52.3906C155.9 52.3177 155.963 52.25 156.025 52.1875C156.088 52.125 156.16 52.0677 156.244 52.0156C156.306 51.9427 156.369 51.875 156.431 51.8125C156.494 51.75 156.567 51.6927 156.65 51.6406C156.733 51.5833 156.811 51.5234 156.884 51.4609C156.963 51.3932 157.035 51.3255 157.103 51.2578C157.171 51.1849 157.241 51.1172 157.314 51.0547C157.387 50.9922 157.463 50.9323 157.541 50.875C157.567 50.7188 157.603 50.5885 157.65 50.4844C157.697 50.3854 157.733 50.2604 157.759 50.1094C157.801 50.0365 157.838 49.9531 157.869 49.8594C157.9 49.7656 157.926 49.6771 157.947 49.5938C157.978 49.5625 158.002 49.5208 158.017 49.4688C158.038 49.3958 158.056 49.3385 158.072 49.2969C158.124 49.1979 158.15 49.1094 158.15 49.0312C158.16 48.9479 158.166 48.8932 158.166 48.8672C158.166 48.8151 158.176 48.7604 158.197 48.7031C158.207 48.6302 158.213 48.5573 158.213 48.4844C158.124 48.5625 158.059 48.6354 158.017 48.7031C157.965 48.7865 157.91 48.8646 157.853 48.9375C157.832 48.9583 157.809 48.9818 157.783 49.0078C157.757 49.0339 157.739 49.0729 157.728 49.125C157.666 49.1927 157.629 49.2292 157.619 49.2344C157.598 49.2396 157.588 49.2552 157.588 49.2812C157.468 49.4167 157.348 49.5547 157.228 49.6953C157.114 49.8307 156.996 49.9714 156.877 50.1172C156.762 50.263 156.645 50.4062 156.525 50.5469C156.405 50.6823 156.285 50.8177 156.166 50.9531C156.072 51.0365 155.973 51.1172 155.869 51.1953C155.765 51.2734 155.655 51.3542 155.541 51.4375C155.499 51.4688 155.452 51.5052 155.4 51.5469C155.353 51.5833 155.301 51.6224 155.244 51.6641C155.124 51.7526 154.983 51.7708 154.822 51.7188C154.582 51.8125 154.387 51.7943 154.236 51.6641C154.085 51.5339 153.968 51.3906 153.884 51.2344C153.843 51.1719 153.809 51.1172 153.783 51.0703C153.757 51.0234 153.749 50.9427 153.759 50.8281C153.77 50.7708 153.783 50.7135 153.798 50.6562C153.809 50.5938 153.822 50.5339 153.838 50.4766C153.853 50.4193 153.869 50.3568 153.884 50.2891C153.895 50.2214 153.905 50.151 153.916 50.0781C153.926 50.0208 153.936 49.9635 153.947 49.9062C153.957 49.849 153.965 49.7917 153.97 49.7344C153.986 49.625 154.009 49.5052 154.041 49.375C154.072 49.2292 154.114 49.0885 154.166 48.9531C154.218 48.8177 154.28 48.7031 154.353 48.6094C154.379 48.5312 154.405 48.4557 154.431 48.3828C154.457 48.3047 154.481 48.2318 154.502 48.1641C154.528 48.0911 154.551 48.0208 154.572 47.9531C154.598 47.8802 154.624 47.8073 154.65 47.7344C154.702 47.5677 154.765 47.4062 154.838 47.25C154.91 47.0938 154.989 46.9427 155.072 46.7969C155.124 46.724 155.173 46.6589 155.22 46.6016C155.267 46.5443 155.317 46.4844 155.369 46.4219C155.473 46.4115 155.556 46.3932 155.619 46.3672C155.681 46.3411 155.744 46.3125 155.806 46.2812C155.843 46.2708 155.879 46.2604 155.916 46.25C155.952 46.2396 155.989 46.2318 156.025 46.2266C156.061 46.2161 156.095 46.2083 156.127 46.2031C156.163 46.1927 156.197 46.1823 156.228 46.1719C156.343 46.1198 156.416 46.0964 156.447 46.1016C156.473 46.1068 156.499 46.0938 156.525 46.0625C156.546 46.1146 156.577 46.1484 156.619 46.1641C156.666 46.1797 156.692 46.2135 156.697 46.2656C156.697 46.3385 156.668 46.4271 156.611 46.5312C156.559 46.6302 156.52 46.7083 156.494 46.7656C156.473 46.8021 156.452 46.8411 156.431 46.8828C156.41 46.9245 156.39 46.9688 156.369 47.0156C156.327 47.1146 156.28 47.1979 156.228 47.2656C156.218 47.3125 156.205 47.3594 156.189 47.4062C156.179 47.4531 156.163 47.4974 156.142 47.5391C156.121 47.5807 156.103 47.625 156.088 47.6719C156.072 47.7188 156.056 47.7656 156.041 47.8125C155.936 47.9271 155.845 48.0573 155.767 48.2031C155.689 48.349 155.608 48.5052 155.525 48.6719C155.504 48.724 155.481 48.7708 155.455 48.8125C155.434 48.849 155.41 48.8958 155.384 48.9531C155.374 49 155.364 49.0469 155.353 49.0938C155.348 49.1406 155.34 49.1875 155.33 49.2344C155.324 49.2812 155.317 49.3281 155.306 49.375C155.296 49.4219 155.285 49.4688 155.275 49.5156C155.233 49.625 155.202 49.7448 155.181 49.875C155.16 50.0208 155.145 50.1667 155.134 50.3125C155.124 50.4583 155.119 50.6094 155.119 50.7656ZM157.353 52.1094H157.338C157.134 52.2396 156.952 52.388 156.791 52.5547C156.713 52.638 156.632 52.7188 156.548 52.7969C156.47 52.8802 156.39 52.9635 156.306 53.0469C156.27 53.0885 156.233 53.1276 156.197 53.1641C156.16 53.2057 156.124 53.2474 156.088 53.2891C156.009 53.3776 155.942 53.4635 155.884 53.5469C155.832 53.6406 155.778 53.737 155.72 53.8359C155.663 53.9349 155.593 54.026 155.509 54.1094C155.379 54.2292 155.301 54.3203 155.275 54.3828C155.259 54.4193 155.244 54.4505 155.228 54.4766C155.213 54.5078 155.197 54.5365 155.181 54.5625L155.064 54.8047C155.043 54.8411 155.022 54.8776 155.002 54.9141C154.981 54.9557 154.957 54.9948 154.931 55.0312C154.884 55.1198 154.838 55.224 154.791 55.3438C154.744 55.4635 154.697 55.5677 154.65 55.6562C154.577 55.8438 154.52 56.0234 154.478 56.1953C154.436 56.3672 154.421 56.5417 154.431 56.7188V56.8359C154.431 56.8672 154.447 56.8958 154.478 56.9219C154.525 56.9219 154.603 56.901 154.713 56.8594C154.796 56.7865 154.877 56.7135 154.955 56.6406C155.033 56.5677 155.108 56.4896 155.181 56.4062C155.327 56.2396 155.483 56.0729 155.65 55.9062C155.796 55.7396 155.926 55.5599 156.041 55.3672C156.155 55.1745 156.254 54.9583 156.338 54.7188C156.369 54.6615 156.397 54.6016 156.423 54.5391C156.449 54.4818 156.473 54.4193 156.494 54.3516C156.53 54.2266 156.582 54.1094 156.65 54C156.707 53.8333 156.765 53.6693 156.822 53.5078C156.884 53.3464 156.947 53.1901 157.009 53.0391C157.145 52.7161 157.259 52.4062 157.353 52.1094ZM170.041 44.1719L170.197 44.2188C170.218 44.2448 170.228 44.276 170.228 44.3125C170.228 44.3385 170.244 44.3646 170.275 44.3906C170.254 44.4844 170.236 44.5807 170.22 44.6797C170.205 44.7786 170.197 44.875 170.197 44.9688C170.197 45.0052 170.21 45.0417 170.236 45.0781C170.262 45.1146 170.275 45.1458 170.275 45.1719C170.223 45.2917 170.184 45.3646 170.158 45.3906C170.132 45.4167 170.119 45.4427 170.119 45.4688C170.067 45.4896 170.028 45.5208 170.002 45.5625C169.976 45.6042 169.931 45.625 169.869 45.625C169.848 45.6562 169.824 45.6797 169.798 45.6953C169.767 45.7161 169.749 45.7448 169.744 45.7812C169.572 45.8542 169.384 45.849 169.181 45.7656C169.124 45.6667 169.051 45.599 168.963 45.5625C168.827 45.3646 168.822 45.1302 168.947 44.8594C168.968 44.8073 168.991 44.7526 169.017 44.6953C169.043 44.638 169.067 44.599 169.088 44.5781C169.197 44.5 169.28 44.4479 169.338 44.4219C169.358 44.4115 169.379 44.401 169.4 44.3906C169.426 44.375 169.449 44.3594 169.47 44.3438C169.507 44.3177 169.561 44.2917 169.634 44.2656C169.666 44.2552 169.694 44.25 169.72 44.25C169.762 44.25 169.801 44.2396 169.838 44.2188C169.858 44.2135 169.877 44.2083 169.892 44.2031C169.913 44.1979 169.931 44.1927 169.947 44.1875C169.989 44.1771 170.02 44.1719 170.041 44.1719ZM167.697 51.0938L167.775 51.125C167.869 51.0833 167.983 51.0677 168.119 51.0781C168.259 51.0885 168.369 51.0677 168.447 51.0156C168.499 50.974 168.535 50.9427 168.556 50.9219C168.588 50.8906 168.624 50.8802 168.666 50.8906C168.832 50.8281 168.973 50.7656 169.088 50.7031C169.207 50.6406 169.332 50.5938 169.463 50.5625C169.546 50.5312 169.619 50.4844 169.681 50.4219C169.895 50.3542 170.074 50.2578 170.22 50.1328C170.371 50.0078 170.535 49.875 170.713 49.7344C170.858 49.651 170.981 49.5781 171.08 49.5156C171.179 49.4531 171.285 49.375 171.4 49.2812C171.426 49.224 171.455 49.1849 171.486 49.1641C171.512 49.1484 171.541 49.1146 171.572 49.0625C171.759 49.0625 171.864 49.1354 171.884 49.2812C171.832 49.3958 171.762 49.4896 171.673 49.5625C171.58 49.6406 171.499 49.724 171.431 49.8125C171.348 49.8646 171.28 49.9115 171.228 49.9531C171.176 49.9948 171.124 50.0573 171.072 50.1406C171.067 50.1406 171.035 50.1641 170.978 50.2109C170.926 50.2578 170.895 50.2812 170.884 50.2812C170.801 50.3802 170.739 50.4401 170.697 50.4609C170.655 50.4818 170.582 50.5365 170.478 50.625C170.41 50.7396 170.317 50.8333 170.197 50.9062C169.973 51.1198 169.736 51.2995 169.486 51.4453C169.356 51.5182 169.233 51.5938 169.119 51.6719C169.004 51.7448 168.895 51.8177 168.791 51.8906C168.739 51.9219 168.702 51.9505 168.681 51.9766C168.66 52.0026 168.624 52.0365 168.572 52.0781C168.52 52.1198 168.439 52.1615 168.33 52.2031C168.22 52.2448 168.124 52.2812 168.041 52.3125C167.973 52.3542 167.916 52.3854 167.869 52.4062C167.634 52.4167 167.457 52.3802 167.338 52.2969C167.202 52.224 167.098 52.1667 167.025 52.125C166.952 52.0833 166.89 52.0156 166.838 51.9219C166.718 51.8646 166.647 51.7682 166.627 51.6328C166.616 51.5599 166.603 51.4896 166.588 51.4219C166.572 51.3542 166.556 51.2865 166.541 51.2188C166.53 51.1667 166.52 51.1068 166.509 51.0391C166.499 50.9714 166.499 50.901 166.509 50.8281C166.535 50.7083 166.551 50.5859 166.556 50.4609C166.561 50.3464 166.588 50.2344 166.634 50.125C166.681 50.0208 166.71 49.9062 166.72 49.7812C166.731 49.6562 166.759 49.5417 166.806 49.4375C166.874 49.3333 166.903 49.276 166.892 49.2656C166.887 49.2604 166.89 49.2448 166.9 49.2188L166.97 49.125C166.986 49.1042 167.009 49.0677 167.041 49.0156L167.134 48.7812C167.181 48.6927 167.228 48.6198 167.275 48.5625C167.322 48.5 167.364 48.4115 167.4 48.2969C167.426 48.224 167.455 48.1667 167.486 48.125C167.507 48.099 167.525 48.0729 167.541 48.0469C167.561 48.0156 167.582 47.9844 167.603 47.9531C167.629 47.901 167.655 47.8359 167.681 47.7578C167.692 47.7214 167.702 47.6875 167.713 47.6562C167.728 47.6198 167.744 47.5833 167.759 47.5469C167.791 47.4635 167.83 47.3802 167.877 47.2969C167.923 47.2135 167.973 47.1302 168.025 47.0469C168.067 46.9635 168.103 46.901 168.134 46.8594C168.166 46.8177 168.228 46.7917 168.322 46.7812C168.369 46.7708 168.416 46.7734 168.463 46.7891C168.52 46.8047 168.572 46.8021 168.619 46.7812C168.754 46.7188 168.848 46.6875 168.9 46.6875C168.952 46.6875 168.989 46.6719 169.009 46.6406C169.119 46.6458 169.202 46.6823 169.259 46.75C169.317 46.8125 169.379 46.875 169.447 46.9375C169.384 47.2396 169.314 47.4714 169.236 47.6328C169.158 47.7943 169.072 47.9635 168.978 48.1406C168.926 48.224 168.874 48.3177 168.822 48.4219C168.77 48.526 168.723 48.6198 168.681 48.7031C168.629 48.8177 168.574 48.9193 168.517 49.0078C168.449 49.112 168.4 49.2135 168.369 49.3125L168.298 49.4609C168.267 49.5234 168.244 49.5729 168.228 49.6094C168.218 49.6458 168.205 49.6823 168.189 49.7188C168.179 49.75 168.163 49.7786 168.142 49.8047C168.121 49.8307 168.103 49.8594 168.088 49.8906C168.072 49.9167 168.056 49.9427 168.041 49.9688C168.009 50.0312 167.978 50.0938 167.947 50.1562C167.916 50.2188 167.89 50.2865 167.869 50.3594C167.817 50.474 167.785 50.5495 167.775 50.5859C167.77 50.5964 167.765 50.6094 167.759 50.625C167.754 50.6354 167.749 50.6458 167.744 50.6562C167.723 50.7708 167.692 50.8646 167.65 50.9375C167.608 51.0104 167.624 51.0625 167.697 51.0938ZM175.525 43.375C175.754 43.4115 175.952 43.4349 176.119 43.4453C176.291 43.4557 176.478 43.4427 176.681 43.4062L177.298 43.3203C177.465 43.2995 177.666 43.276 177.9 43.25C177.963 43.2448 178.028 43.2448 178.095 43.25C178.132 43.2552 178.166 43.2604 178.197 43.2656C178.228 43.2656 178.259 43.2656 178.291 43.2656C178.426 43.2656 178.559 43.2604 178.689 43.25C178.819 43.2396 178.942 43.2292 179.056 43.2188C179.077 43.2135 179.095 43.2083 179.111 43.2031C179.132 43.1979 179.15 43.1927 179.166 43.1875C179.197 43.1771 179.228 43.1771 179.259 43.1875C179.306 43.1875 179.353 43.1875 179.4 43.1875C179.447 43.1875 179.494 43.1849 179.541 43.1797C179.634 43.1745 179.718 43.2083 179.791 43.2812C179.822 43.3854 179.832 43.4427 179.822 43.4531C179.806 43.4688 179.796 43.4844 179.791 43.5C179.78 43.6354 179.762 43.7031 179.736 43.7031C179.71 43.7031 179.697 43.7135 179.697 43.7344C179.614 43.7552 179.543 43.7734 179.486 43.7891C179.429 43.8047 179.384 43.8385 179.353 43.8906C179.176 43.9271 179.012 43.9349 178.861 43.9141C178.71 43.888 178.556 43.9115 178.4 43.9844C178.322 44.0208 178.246 44.0599 178.173 44.1016C178.101 44.1484 178.004 44.151 177.884 44.1094C177.78 44.1094 177.66 44.1146 177.525 44.125C177.39 44.1354 177.259 44.1458 177.134 44.1562C176.957 44.1719 176.757 44.1901 176.533 44.2109C176.314 44.2266 176.145 44.237 176.025 44.2422C175.91 44.2474 175.746 44.2552 175.533 44.2656C175.319 44.276 175.129 44.2812 174.963 44.2812C174.879 44.349 174.824 44.4375 174.798 44.5469C174.772 44.651 174.718 44.7344 174.634 44.7969C174.541 45.0052 174.473 45.138 174.431 45.1953C174.384 45.2578 174.348 45.3385 174.322 45.4375C174.176 45.625 174.043 45.8203 173.923 46.0234C173.814 46.2109 173.676 46.401 173.509 46.5938C173.489 46.7083 173.449 46.8099 173.392 46.8984C173.34 46.9818 173.301 47.099 173.275 47.25C173.166 47.3958 173.082 47.5677 173.025 47.7656C172.999 47.8594 172.968 47.9557 172.931 48.0547C172.9 48.1536 172.864 48.2552 172.822 48.3594C172.801 48.4427 172.778 48.5234 172.752 48.6016C172.726 48.6797 172.697 48.7604 172.666 48.8438C172.629 48.9375 172.58 49.0339 172.517 49.1328C172.491 49.1745 172.463 49.2214 172.431 49.2734C172.405 49.3203 172.379 49.3698 172.353 49.4219C172.332 49.4427 172.322 49.4714 172.322 49.5078C172.322 49.5339 172.317 49.5625 172.306 49.5938C172.291 49.6302 172.275 49.6667 172.259 49.7031C172.244 49.7344 172.228 49.763 172.213 49.7891C172.192 49.8255 172.166 49.8802 172.134 49.9531C172.119 49.9896 172.106 50.0443 172.095 50.1172C172.085 50.1901 172.072 50.2448 172.056 50.2812C172.051 50.2969 172.046 50.3125 172.041 50.3281C172.035 50.3438 172.03 50.3568 172.025 50.3672C172.02 50.3776 172.015 50.3906 172.009 50.4062C172.004 50.4219 171.999 50.4375 171.994 50.4531C171.963 50.599 171.963 50.6979 171.994 50.75C172.025 50.8021 172.051 50.8542 172.072 50.9062C172.082 50.9375 172.093 50.9661 172.103 50.9922C172.114 51.0182 172.124 51.0443 172.134 51.0703C172.16 51.1172 172.176 51.1667 172.181 51.2188C172.207 51.2292 172.233 51.2396 172.259 51.25C172.285 51.2604 172.309 51.2708 172.33 51.2812C172.371 51.3021 172.421 51.3125 172.478 51.3125C172.546 51.3229 172.614 51.2943 172.681 51.2266C172.754 51.1536 172.817 51.1146 172.869 51.1094C172.931 51.0885 173.002 51.0781 173.08 51.0781C173.147 51.0781 173.207 51.0625 173.259 51.0312C173.291 51.0052 173.319 50.9792 173.345 50.9531C173.371 50.9271 173.395 50.901 173.416 50.875C173.447 50.8281 173.504 50.7917 173.588 50.7656C173.754 50.724 173.843 50.6901 173.853 50.6641C173.858 50.6432 173.895 50.6042 173.963 50.5469C173.999 50.5208 174.033 50.4948 174.064 50.4688C174.101 50.4427 174.132 50.4193 174.158 50.3984C174.199 50.362 174.27 50.3125 174.369 50.25C174.473 50.1979 174.533 50.1667 174.548 50.1562C174.564 50.1458 174.608 50.1094 174.681 50.0469C174.733 50.0208 174.78 49.9948 174.822 49.9688C174.869 49.9375 174.91 49.9062 174.947 49.875C175.004 49.8229 175.088 49.7656 175.197 49.7031C175.322 49.651 175.39 49.6198 175.4 49.6094C175.416 49.5938 175.426 49.5755 175.431 49.5547C175.436 49.5339 175.494 49.4896 175.603 49.4219C175.64 49.3438 175.686 49.276 175.744 49.2188C175.77 49.1927 175.798 49.1641 175.83 49.1328C175.861 49.0964 175.895 49.0573 175.931 49.0156C175.999 48.9375 176.064 48.875 176.127 48.8281C176.199 48.7708 176.259 48.7188 176.306 48.6719C176.327 48.6562 176.353 48.6328 176.384 48.6016C176.416 48.5703 176.452 48.5521 176.494 48.5469C176.525 48.5208 176.551 48.4974 176.572 48.4766C176.598 48.4557 176.621 48.4349 176.642 48.4141C176.663 48.3932 176.686 48.3698 176.713 48.3438C176.744 48.3177 176.78 48.2865 176.822 48.25L176.9 48.1719C176.936 48.1354 176.963 48.1146 176.978 48.1094C177.025 48.1094 177.059 48.125 177.08 48.1562C177.106 48.1875 177.14 48.2031 177.181 48.2031C177.176 48.2708 177.171 48.3255 177.166 48.3672C177.166 48.4089 177.166 48.4401 177.166 48.4609C177.166 48.5026 177.155 48.5417 177.134 48.5781C177.072 48.6771 177.002 48.7292 176.923 48.7344C176.845 48.7448 176.785 48.8021 176.744 48.9062C176.713 48.8854 176.673 48.8802 176.627 48.8906C176.58 48.901 176.546 48.9167 176.525 48.9375C176.546 48.974 176.556 49.0104 176.556 49.0469C176.556 49.0677 176.561 49.1042 176.572 49.1562C176.379 49.349 176.254 49.5 176.197 49.6094C176.067 49.7448 175.999 49.8203 175.994 49.8359L175.978 49.8594L175.853 49.9844C175.707 50.099 175.598 50.2083 175.525 50.3125C175.457 50.4115 175.348 50.5052 175.197 50.5938C175.082 50.6771 175.004 50.7396 174.963 50.7812C174.942 50.8021 174.916 50.8281 174.884 50.8594C174.853 50.8854 174.817 50.9167 174.775 50.9531C174.749 50.9792 174.71 51.0234 174.658 51.0859C174.606 51.1484 174.561 51.1927 174.525 51.2188C174.457 51.2708 174.387 51.3177 174.314 51.3594C174.257 51.3906 174.197 51.4427 174.134 51.5156C173.983 51.5833 173.871 51.6667 173.798 51.7656C173.731 51.8542 173.629 51.9427 173.494 52.0312C173.4 52.0938 173.272 52.1719 173.111 52.2656C172.949 52.3594 172.811 52.4271 172.697 52.4688C172.681 52.474 172.666 52.4792 172.65 52.4844C172.634 52.4896 172.621 52.4948 172.611 52.5C172.601 52.5052 172.588 52.5104 172.572 52.5156C172.556 52.5208 172.541 52.526 172.525 52.5312C172.442 52.4792 172.361 52.4271 172.283 52.375C172.205 52.3229 172.14 52.25 172.088 52.1562C171.989 52.0833 171.913 52.0312 171.861 52C171.798 51.9635 171.744 51.9219 171.697 51.875C171.645 51.7865 171.59 51.6979 171.533 51.6094C171.476 51.5208 171.413 51.4323 171.345 51.3438C171.21 51.1615 171.108 50.9635 171.041 50.75C171.025 50.724 171.012 50.6797 171.002 50.6172L170.978 50.4688C170.968 50.4271 170.957 50.388 170.947 50.3516C170.936 50.3151 170.926 50.2812 170.916 50.25C170.895 50.1979 170.89 50.1198 170.9 50.0156C170.9 49.9427 170.91 49.875 170.931 49.8125C170.942 49.776 170.952 49.7396 170.963 49.7031C170.973 49.6615 170.983 49.6198 170.994 49.5781C171.015 49.5104 171.038 49.4453 171.064 49.3828C171.09 49.3151 171.116 49.25 171.142 49.1875C171.205 49.0469 171.249 48.9115 171.275 48.7812C171.338 48.5625 171.405 48.3542 171.478 48.1562C171.494 48.1198 171.507 48.0703 171.517 48.0078C171.522 47.9609 171.551 47.9271 171.603 47.9062C171.645 47.6979 171.713 47.4974 171.806 47.3047C171.9 47.112 171.994 46.9271 172.088 46.75C172.145 46.6406 172.199 46.5312 172.252 46.4219C172.304 46.3073 172.356 46.1927 172.408 46.0781C172.46 45.9635 172.512 45.8516 172.564 45.7422C172.616 45.6276 172.671 45.5156 172.728 45.4062C172.733 45.2917 172.775 45.1875 172.853 45.0938C172.858 44.9896 172.9 44.8776 172.978 44.7578C173.056 44.638 173.108 44.526 173.134 44.4219C173.02 44.3906 172.892 44.388 172.752 44.4141C172.611 44.4401 172.489 44.4635 172.384 44.4844C172.197 44.4896 171.999 44.4896 171.791 44.4844C171.754 44.4792 171.718 44.474 171.681 44.4688C171.65 44.4583 171.616 44.4505 171.58 44.4453C171.512 44.4297 171.447 44.4219 171.384 44.4219C171.291 44.4271 171.22 44.4193 171.173 44.3984C171.121 44.3724 171.072 44.3698 171.025 44.3906C170.879 44.2656 170.731 44.1562 170.58 44.0625C170.423 43.9688 170.322 43.849 170.275 43.7031C170.275 43.6719 170.291 43.6458 170.322 43.625C170.364 43.5938 170.39 43.5729 170.4 43.5625C170.489 43.5365 170.582 43.5286 170.681 43.5391C170.78 43.5443 170.864 43.526 170.931 43.4844C171.082 43.5052 171.236 43.4948 171.392 43.4531C171.533 43.4115 171.681 43.3958 171.838 43.4062C171.858 43.4062 171.89 43.4115 171.931 43.4219C171.973 43.4323 172.004 43.4375 172.025 43.4375C172.077 43.4427 172.121 43.4427 172.158 43.4375C172.179 43.4323 172.199 43.4271 172.22 43.4219C172.241 43.4167 172.265 43.4115 172.291 43.4062C172.353 43.3958 172.421 43.3958 172.494 43.4062C172.567 43.4167 172.64 43.4167 172.713 43.4062C172.864 43.3958 173.028 43.4089 173.205 43.4453C173.397 43.4818 173.567 43.474 173.713 43.4219C173.739 43.349 173.765 43.276 173.791 43.2031C173.822 43.125 173.856 43.0495 173.892 42.9766C173.965 42.8255 174.02 42.6771 174.056 42.5312C174.098 42.4688 174.14 42.3984 174.181 42.3203C174.223 42.2422 174.254 42.1667 174.275 42.0938L174.423 41.8438C174.444 41.8125 174.465 41.7812 174.486 41.75C174.507 41.7188 174.53 41.6875 174.556 41.6562C174.629 41.5052 174.684 41.362 174.72 41.2266C174.741 41.1536 174.762 41.0807 174.783 41.0078C174.809 40.9297 174.838 40.849 174.869 40.7656C174.936 40.6927 175.004 40.612 175.072 40.5234C175.14 40.4349 175.207 40.3385 175.275 40.2344C175.353 40.2448 175.413 40.224 175.455 40.1719C175.502 40.1198 175.572 40.125 175.666 40.1875C175.666 40.2188 175.679 40.2474 175.705 40.2734C175.731 40.2995 175.733 40.3385 175.713 40.3906C175.817 40.4948 175.884 40.5885 175.916 40.6719C175.936 40.7552 175.929 40.8516 175.892 40.9609C175.856 41.0703 175.864 41.1719 175.916 41.2656C175.936 41.3125 175.942 41.362 175.931 41.4141C175.921 41.4714 175.926 41.5156 175.947 41.5469C175.973 41.6042 176.002 41.6562 176.033 41.7031C176.069 41.7552 176.088 41.8229 176.088 41.9062C176.088 41.9375 176.08 41.9766 176.064 42.0234C176.048 42.0703 176.03 42.1198 176.009 42.1719C175.973 42.3281 175.942 42.4375 175.916 42.5C175.905 42.5312 175.895 42.5651 175.884 42.6016C175.874 42.6328 175.864 42.6667 175.853 42.7031C175.78 42.7917 175.744 42.8464 175.744 42.8672C175.744 42.8828 175.739 42.9062 175.728 42.9375C175.713 42.9688 175.697 43.0052 175.681 43.0469C175.666 43.0833 175.647 43.1224 175.627 43.1641C175.606 43.2057 175.588 43.2448 175.572 43.2812C175.556 43.3177 175.541 43.349 175.525 43.375Z" fill="black"/>
</svg>
