<svg width="183" height="233" viewBox="0 0 183 233" fill="none" xmlns="http://www.w3.org/2000/svg">
<line x1="31.9452" y1="31.8093" x2="5.94517" y2="222.809" stroke="#949494" stroke-width="12"/>
<line x1="148.938" y1="31.1399" x2="176.569" y2="221.911" stroke="#949494" stroke-width="12"/>
<path d="M25.9531 37.0081L154.953 36.0002" stroke="#949494" stroke-width="12"/>
<line y1="227" x2="183" y2="227" stroke="#949494" stroke-width="12"/>
<path d="M105.5 21C105.5 29.6861 98.6601 36.5 90.5 36.5C82.3399 36.5 75.5 29.6861 75.5 21C75.5 12.3139 82.3399 5.5 90.5 5.5C98.6601 5.5 105.5 12.3139 105.5 21Z" fill="white" stroke="#949494" stroke-width="11"/>
<path d="M109.364 125.75C108.886 124.091 108.216 122.625 107.352 121.352C106.489 120.057 105.432 118.966 104.182 118.08C102.955 117.17 101.545 116.477 99.9545 116C98.3864 115.523 96.6477 115.284 94.7386 115.284C91.1705 115.284 88.0341 116.17 85.3295 117.943C82.6477 119.716 80.5568 122.295 79.0568 125.682C77.5568 129.045 76.8068 133.159 76.8068 138.023C76.8068 142.886 77.5455 147.023 79.0227 150.432C80.5 153.841 82.5909 156.443 85.2955 158.239C88 160.011 91.1932 160.898 94.875 160.898C98.2159 160.898 101.068 160.307 103.432 159.125C105.818 157.92 107.636 156.227 108.886 154.045C110.159 151.864 110.795 149.284 110.795 146.307L113.795 146.75H95.7955V135.636H125.011V144.432C125.011 150.568 123.716 155.841 121.125 160.25C118.534 164.636 114.966 168.023 110.42 170.409C105.875 172.773 100.67 173.955 94.8068 173.955C88.2614 173.955 82.5114 172.511 77.5568 169.625C72.6023 166.716 68.7386 162.591 65.9659 157.25C63.2159 151.886 61.8409 145.523 61.8409 138.159C61.8409 132.5 62.6591 127.455 64.2955 123.023C65.9545 118.568 68.2727 114.795 71.25 111.705C74.2273 108.614 77.6932 106.261 81.6477 104.648C85.6023 103.034 89.8864 102.227 94.5 102.227C98.4545 102.227 102.136 102.807 105.545 103.966C108.955 105.102 111.977 106.716 114.614 108.807C117.273 110.898 119.443 113.386 121.125 116.273C122.807 119.136 123.886 122.295 124.364 125.75H109.364Z" fill="#949494"/>
</svg>
